<svg width="626" height="509" viewBox="0 0 626 509" fill="none" xmlns="http://www.w3.org/2000/svg">
<path opacity="0.7" d="M551.776 73.7347C551.776 73.7347 481.251 -3.56928 369.595 0.128557C257.939 3.82639 162.696 78.7294 83.9556 137.334C5.21484 195.938 -15.8937 286.965 29.8794 358.03C75.6524 429.095 148.595 399.179 241.455 445.305C334.315 491.432 351.955 517.632 455.395 506.416C558.835 495.2 637.576 380.479 625.839 258.276C614.103 136.072 551.776 73.7347 551.776 73.7347Z" fill="#97C3F9" fill-opacity="0.2"/>
<path d="M626 444.765H0V445.078H626V444.765Z" fill="#EBEBEB"/>
<path d="M555.75 456.684H514.284V456.997H555.75V456.684Z" fill="#EBEBEB"/>
<path d="M227.025 460.928H164.6V461.241H227.025V460.928Z" fill="#EBEBEB"/>
<path d="M513.032 468.315H476.06V468.628H513.032V468.315Z" fill="#EBEBEB"/>
<path d="M92.7231 466.212H65.6799V466.525H92.7231V466.212Z" fill="#EBEBEB"/>
<path d="M151.905 466.212H103.866V466.525H151.905V466.212Z" fill="#EBEBEB"/>
<path d="M414.687 453.291H297.4V453.604H414.687V453.291Z" fill="#EBEBEB"/>
<path d="M296.724 388.926H54.9753C53.0815 388.922 51.2663 388.168 49.9284 386.827C48.5904 385.487 47.8389 383.671 47.8389 381.777V41.9463C47.8554 40.0633 48.6141 38.2629 49.9503 36.9361C51.2865 35.6093 53.0923 34.8632 54.9753 34.86H296.724C298.62 34.86 300.438 35.6132 301.779 36.9539C303.12 38.2946 303.873 40.1129 303.873 42.0089V381.777C303.873 383.673 303.12 385.491 301.779 386.832C300.438 388.172 298.62 388.926 296.724 388.926ZM54.9753 35.1104C53.1645 35.1137 51.429 35.8354 50.1497 37.117C48.8704 38.3986 48.1519 40.1355 48.1519 41.9463V381.777C48.1519 383.588 48.8704 385.324 50.1497 386.606C51.429 387.888 53.1645 388.609 54.9753 388.613H296.724C298.536 388.609 300.273 387.888 301.554 386.607C302.835 385.326 303.557 383.589 303.56 381.777V41.9463C303.557 40.1343 302.835 38.3975 301.554 37.1163C300.273 35.835 298.536 35.1137 296.724 35.1104H54.9753Z" fill="#EBEBEB"/>
<path d="M567.544 388.926H325.783C323.888 388.922 322.072 388.168 320.732 386.828C319.392 385.488 318.637 383.672 318.634 381.777V41.9463C318.654 40.0622 319.415 38.2618 320.753 36.9353C322.092 35.6088 323.899 34.8632 325.783 34.86H567.544C569.425 34.8665 571.227 35.614 572.561 36.9405C573.894 38.267 574.652 40.0655 574.668 41.9463V381.777C574.668 383.668 573.918 385.483 572.583 386.823C571.248 388.163 569.436 388.919 567.544 388.926ZM325.783 35.1104C323.971 35.1137 322.234 35.835 320.953 37.1163C319.672 38.3975 318.95 40.1343 318.947 41.9463V381.777C318.95 383.589 319.672 385.326 320.953 386.607C322.234 387.888 323.971 388.609 325.783 388.613H567.544C569.356 388.609 571.093 387.888 572.374 386.607C573.655 385.326 574.377 383.589 574.38 381.777V41.9463C574.377 40.1343 573.655 38.3975 572.374 37.1163C571.093 35.835 569.356 35.1137 567.544 35.1104H325.783Z" fill="#EBEBEB"/>
<path d="M136.105 234.742L475.66 234.742V68.9019L136.105 68.9019V234.742Z" fill="#E6E6E6"/>
<path d="M129.745 234.742L472.693 234.742V68.9019L129.745 68.9019V234.742Z" fill="#F0F0F0"/>
<path d="M136.105 246.561L475.66 246.561V234.742L136.105 234.742V246.561Z" fill="#E6E6E6"/>
<path d="M119.14 246.561L462.088 246.561V234.742L119.14 234.742V246.561Z" fill="#F0F0F0"/>
<path d="M463.791 225.853V77.8161L138.646 77.8161V225.853L463.791 225.853Z" fill="#FAFAFA"/>
<path d="M228.077 225.853L213.829 77.8161H189.165L203.412 225.853H228.077Z" fill="white"/>
<path d="M417.943 225.853L403.682 77.8161H379.018L393.278 225.853H417.943Z" fill="white"/>
<path d="M459.672 175.672C459.852 175.669 460.024 175.595 460.151 175.466C460.277 175.338 460.348 175.164 460.348 174.984V83.5878C460.361 83.4905 460.353 83.3914 460.325 83.2973C460.297 83.2032 460.249 83.1162 460.184 83.0422C460.12 82.9682 460.04 82.9089 459.95 82.8683C459.861 82.8276 459.764 82.8066 459.666 82.8066C459.567 82.8066 459.47 82.8276 459.381 82.8683C459.291 82.9089 459.212 82.9682 459.147 83.0422C459.082 83.1162 459.034 83.2032 459.006 83.2973C458.978 83.3914 458.97 83.4905 458.983 83.5878V174.984C458.983 175.074 459.001 175.164 459.036 175.247C459.07 175.331 459.121 175.407 459.185 175.471C459.249 175.535 459.325 175.585 459.408 175.62C459.492 175.655 459.581 175.672 459.672 175.672Z" fill="#F0F0F0"/>
<path d="M198.117 225.853L183.856 77.8161H174.241L188.501 225.853H198.117Z" fill="white"/>
<path d="M139.773 225.853V77.8161H138.646V225.853H139.773Z" fill="#E6E6E6"/>
<path opacity="0.5" d="M127.641 93.9544H467.196L468.01 81.2716H128.455L127.641 93.9544Z" fill="#E0E0E0"/>
<path opacity="0.5" d="M127.641 114.8H467.196L468.01 102.117H128.455L127.641 114.8Z" fill="#E0E0E0"/>
<path opacity="0.5" d="M127.641 135.646H467.196L468.01 122.963H128.455L127.641 135.646Z" fill="#E0E0E0"/>
<path opacity="0.5" d="M127.641 156.492H467.196L468.01 143.809H128.455L127.641 156.492Z" fill="#E0E0E0"/>
<path opacity="0.5" d="M127.641 177.338H467.196L468.01 164.655H128.455L127.641 177.338Z" fill="#E0E0E0"/>
<path opacity="0.5" d="M127.641 198.183H467.196L468.01 185.501H128.455L127.641 198.183Z" fill="#E0E0E0"/>
<path d="M331.329 444.765H352.688V301.987H331.329V444.765Z" fill="#E6E6E6"/>
<path d="M336.938 444.765H331.329V425.321H342.835L336.938 444.765Z" fill="#F0F0F0"/>
<path d="M528.307 444.765H549.666V301.987H528.307V444.765Z" fill="#E6E6E6"/>
<path d="M331.317 432.833H533.189V301.987H331.317V432.833Z" fill="#F0F0F0"/>
<path d="M335.674 343.653H528.832V307.771H335.674V343.653Z" fill="#E6E6E6"/>
<path d="M369.34 318.926H491.41C496.894 318.926 502.127 314.507 505.896 306.682H354.854C358.623 314.507 363.856 318.926 369.34 318.926Z" fill="#F0F0F0"/>
<path d="M527.58 444.765H533.202V425.321H521.696L527.58 444.765Z" fill="#F0F0F0"/>
<path d="M335.674 385.345H528.832V349.463H335.674V385.345Z" fill="#E6E6E6"/>
<path d="M369.34 360.618H491.41C496.894 360.618 502.127 356.186 505.896 348.373H354.854C358.623 356.186 363.856 360.618 369.34 360.618Z" fill="#F0F0F0"/>
<path d="M335.674 427.036H528.832V391.154H335.674V427.036Z" fill="#E6E6E6"/>
<path d="M369.34 402.297H491.41C496.894 402.297 502.127 397.865 505.896 390.052H354.854C358.623 397.865 363.856 402.297 369.34 402.297Z" fill="#F0F0F0"/>
<path d="M190.692 257.929H165.928C162.788 257.929 160.243 260.474 160.243 263.613V273.128C160.243 276.267 162.788 278.812 165.928 278.812H190.692C193.831 278.812 196.376 276.267 196.376 273.128V263.613C196.376 260.474 193.831 257.929 190.692 257.929Z" fill="#F5F5F5"/>
<path d="M235.902 257.929H211.137C207.998 257.929 205.453 260.474 205.453 263.613V273.128C205.453 276.267 207.998 278.812 211.137 278.812H235.902C239.041 278.812 241.586 276.267 241.586 273.128V263.613C241.586 260.474 239.041 257.929 235.902 257.929Z" fill="#F5F5F5"/>
<path d="M103.265 253.747C103.265 253.747 104.129 278.787 137.157 278.787C170.184 278.787 171.036 253.747 171.036 253.747H103.265Z" fill="#F0F0F0"/>
<path d="M245.304 436.602H281.662V286.7H245.304L245.304 436.602Z" fill="#F0F0F0"/>
<path d="M95.4024 444.765H274.689V436.602H95.4024V444.765Z" fill="#F0F0F0"/>
<path d="M245.304 286.687H88.4162V436.589H245.304V286.687Z" fill="#F5F5F5"/>
<path d="M231.019 344.367H102.714V378.922H231.019V344.367Z" fill="#F0F0F0"/>
<path d="M231.019 386.634H102.714V421.19H231.019V386.634Z" fill="#F0F0F0"/>
<path d="M151.805 348.999H181.916C182.682 348.996 183.415 348.69 183.957 348.149C184.499 347.607 184.804 346.873 184.808 346.107C184.808 345.339 184.503 344.602 183.961 344.058C183.419 343.513 182.684 343.206 181.916 343.203H151.805C151.037 343.206 150.301 343.513 149.759 344.058C149.217 344.602 148.913 345.339 148.913 346.107C148.916 346.873 149.222 347.607 149.764 348.149C150.305 348.69 151.039 348.996 151.805 348.999Z" fill="#F5F5F5"/>
<path d="M231.019 302.112H102.714V336.667H231.019V302.112Z" fill="#F0F0F0"/>
<path d="M151.805 306.744H181.916C182.684 306.741 183.419 306.434 183.961 305.889C184.503 305.345 184.808 304.608 184.808 303.84C184.804 303.074 184.499 302.34 183.957 301.798C183.415 301.257 182.682 300.951 181.916 300.948H151.805C151.039 300.951 150.305 301.257 149.764 301.798C149.222 302.34 148.916 303.074 148.913 303.84C148.913 304.608 149.217 305.345 149.759 305.889C150.301 306.434 151.037 306.741 151.805 306.744Z" fill="#F5F5F5"/>
<path d="M151.805 391.254H181.916C183.513 391.254 184.808 389.959 184.808 388.362V388.35C184.808 386.752 183.513 385.458 181.916 385.458H151.805C150.208 385.458 148.913 386.752 148.913 388.35V388.362C148.913 389.959 150.208 391.254 151.805 391.254Z" fill="#F5F5F5"/>
<path d="M83.571 286.687H245.304V278.8H83.571V286.687Z" fill="#F0F0F0"/>
<path d="M286.746 278.812H245.304V286.7H286.746V278.812Z" fill="#E6E6E6"/>
<path d="M487.98 195.354L479.003 181.757C479.316 260.458 480.643 264.99 480.605 278.537H487.804C488.806 212.644 491.585 212.256 487.98 195.354Z" fill="#E0E0E0"/>
<path d="M484.524 301.974C505.17 301.974 522.585 293.598 526.817 282.268C527.899 279.168 529.381 276.222 531.224 273.504L531.549 273.04H437.474L437.799 273.504C439.651 276.218 441.137 279.165 442.219 282.268C446.451 293.598 463.866 301.974 484.524 301.974Z" fill="#FAFAFA"/>
<path d="M437.286 275.845H531.737C533.012 275.842 534.251 275.416 535.259 274.635C536.267 273.853 536.987 272.76 537.308 271.526C537.526 270.676 537.546 269.788 537.368 268.929C537.19 268.07 536.818 267.263 536.28 266.57C535.743 265.876 535.054 265.315 534.267 264.928C533.479 264.542 532.614 264.34 531.737 264.339H437.286C436.408 264.338 435.541 264.538 434.753 264.924C433.964 265.309 433.274 265.871 432.736 266.565C432.198 267.259 431.827 268.067 431.649 268.927C431.472 269.786 431.495 270.676 431.715 271.526C432.032 272.762 432.751 273.858 433.76 274.64C434.769 275.422 436.01 275.846 437.286 275.845Z" fill="#F0F0F0"/>
<path d="M485.263 184.399C483.472 163.115 461.575 161.012 420.609 150.983C440.704 208.888 492.036 264.564 485.263 184.399Z" fill="#E0E0E0"/>
<path d="M479.328 173.219C476.298 156.317 479.466 138.4 526.904 140.153C515.023 186.69 493.426 251.694 479.328 173.219Z" fill="#E0E0E0"/>
<path d="M481.482 214.484C482.921 195.016 497.92 171.916 547.024 188.53C525.189 226.316 478.001 261.472 481.482 214.484Z" fill="#E0E0E0"/>
<path d="M313 501.305C447.067 501.305 555.75 494.96 555.75 487.132C555.75 479.305 447.067 472.96 313 472.96C178.933 472.96 70.2497 479.305 70.2497 487.132C70.2497 494.96 178.933 501.305 313 501.305Z" fill="#F5F5F5"/>
<path d="M168.707 311.852H322.34V303.564H168.707V311.852Z" fill="#0489C7"/>
<path opacity="0.5" d="M168.707 311.852H322.34V303.564H168.707V311.852Z" fill="white"/>
<path d="M168.707 303.564H98.3571V311.852H168.707V303.564Z" fill="#0489C7"/>
<path opacity="0.5" d="M168.707 303.564H98.3571V311.852H168.707V303.564Z" fill="white"/>
<path opacity="0.2" d="M168.707 303.564H98.3571V311.852H168.707V303.564Z" fill="black"/>
<path d="M103.115 320.692H317.607L319.448 311.852H101.262L103.115 320.692Z" fill="#0489C7"/>
<path opacity="0.6" d="M103.115 320.692H317.607L319.448 311.852H101.262L103.115 320.692Z" fill="black"/>
<path d="M295.334 320.692V482.488H290.489L284.379 320.692H295.334Z" fill="#0489C7"/>
<path opacity="0.5" d="M295.334 320.692V482.488H290.489L284.379 320.692H295.334Z" fill="white"/>
<path d="M238.068 320.692V482.488H233.223L227.113 320.692H238.068Z" fill="#0489C7"/>
<path opacity="0.5" d="M238.068 320.692V482.488H233.223L227.113 320.692H238.068Z" fill="white"/>
<path d="M113.919 320.692V482.488H118.765L124.874 320.692H113.919Z" fill="#0489C7"/>
<path opacity="0.5" d="M113.919 320.692V482.488H118.765L124.874 320.692H113.919Z" fill="white"/>
<path d="M171.186 320.692V482.488H176.031L182.141 320.692H171.186Z" fill="#0489C7"/>
<path opacity="0.5" d="M171.186 320.692V482.488H176.031L182.141 320.692H171.186Z" fill="white"/>
<path d="M497.432 199.548C500.174 204.894 502.691 210.228 505.107 215.686C507.523 221.145 509.764 226.666 511.83 232.35C512.318 233.803 512.844 235.205 513.295 236.695L513.646 237.797L513.833 238.348C513.833 238.535 514.021 238.999 514.096 239.312C514.369 240.544 514.461 241.809 514.372 243.068C514.189 245.087 513.686 247.065 512.882 248.927C512.222 250.518 511.431 252.05 510.516 253.509C507.12 258.8 502.946 263.549 498.133 267.594L493.513 263.363C496.616 258.787 499.342 253.968 501.664 248.952C502.155 247.824 502.573 246.666 502.916 245.484C503.182 244.6 503.296 243.677 503.254 242.755C503.256 242.558 503.208 242.365 503.116 242.191C503.116 242.191 503.116 242.254 503.054 242.104L502.866 241.615L502.478 240.639C501.977 239.387 501.388 238.035 500.838 236.72C498.584 231.474 496.143 226.228 493.651 220.982L486.139 205.27L497.432 199.548Z" fill="#FF8B7B"/>
<path d="M494.891 261.848L489.219 264.276L494.866 272.102C494.866 272.102 498.972 269.798 499.485 265.779L494.891 261.848Z" fill="#FF8B7B"/>
<path d="M481.544 268.183L487.792 274.042L494.866 272.101L489.219 264.276L481.544 268.183Z" fill="#FF8B7B"/>
<path d="M458.32 160.298C458.182 160.961 457.731 161.425 457.293 161.337C456.855 161.249 456.63 160.636 456.755 159.985C456.88 159.334 457.356 158.858 457.781 158.946C458.207 159.033 458.457 159.634 458.32 160.298Z" fill="#263238"/>
<path d="M457.794 161.437C456.594 163.296 455.145 164.981 453.487 166.445C453.87 166.863 454.339 167.192 454.863 167.408C455.386 167.624 455.951 167.723 456.517 167.697L457.794 161.437Z" fill="#ED847E"/>
<path d="M461.487 157.13C461.43 157.129 461.375 157.115 461.323 157.092C461.271 157.068 461.225 157.034 461.187 156.993C460.86 156.621 460.451 156.332 459.992 156.147C459.533 155.962 459.038 155.887 458.545 155.928C458.494 155.937 458.442 155.936 458.391 155.925C458.341 155.914 458.293 155.893 458.25 155.863C458.208 155.834 458.172 155.796 458.144 155.752C458.116 155.709 458.097 155.66 458.088 155.609C458.079 155.558 458.08 155.506 458.091 155.455C458.102 155.405 458.123 155.357 458.153 155.315C458.183 155.272 458.22 155.236 458.264 155.208C458.308 155.18 458.356 155.161 458.407 155.152C459.028 155.077 459.657 155.152 460.243 155.369C460.829 155.587 461.354 155.942 461.775 156.404C461.825 156.461 461.857 156.531 461.869 156.606C461.881 156.681 461.871 156.757 461.841 156.827C461.81 156.896 461.761 156.956 461.699 156.998C461.636 157.041 461.563 157.065 461.487 157.068V157.13Z" fill="#263238"/>
<path d="M477.112 169.575C475.86 175.685 474.721 186.865 478.99 190.947C478.99 190.947 477.325 197.132 465.982 197.132C453.462 197.132 460.022 190.947 460.022 190.947C466.821 189.319 466.645 184.261 465.469 179.516L477.112 169.575Z" fill="#FF8B7B"/>
<path d="M481.92 192.887C482.834 190.934 483.86 188.693 481.569 188.092C479.065 187.429 465.356 187.141 460.698 188.743C456.041 190.346 457.531 194.177 457.531 194.177L481.92 192.887Z" fill="#0489C7"/>
<path d="M456.792 478.068C455.728 478.068 454.689 477.918 454.288 477.429C454.201 477.302 454.154 477.152 454.154 476.998C454.154 476.843 454.201 476.693 454.288 476.566C454.357 476.451 454.448 476.351 454.555 476.272C454.662 476.192 454.784 476.135 454.914 476.102C456.304 475.727 459.221 477.354 459.334 477.467C459.37 477.485 459.399 477.515 459.417 477.551C459.435 477.587 459.441 477.628 459.434 477.667C459.428 477.706 459.41 477.742 459.383 477.771C459.357 477.8 459.322 477.821 459.284 477.83C458.461 477.977 457.628 478.057 456.792 478.068ZM455.478 476.44C455.349 476.42 455.218 476.42 455.089 476.44C455.009 476.456 454.933 476.489 454.866 476.536C454.799 476.584 454.743 476.645 454.701 476.716C454.564 476.966 454.614 477.079 454.701 477.154C455.089 477.692 457.205 477.705 458.745 477.48C457.729 476.946 456.62 476.61 455.478 476.49V476.44Z" fill="#0489C7"/>
<path d="M459.321 477.88H459.234C458.232 477.43 456.229 475.614 456.379 474.675C456.379 474.45 456.579 474.174 457.118 474.124C457.315 474.104 457.514 474.123 457.703 474.181C457.892 474.239 458.068 474.335 458.219 474.462C458.969 475.374 459.407 476.501 459.471 477.68C459.476 477.713 459.471 477.747 459.458 477.778C459.445 477.809 459.423 477.835 459.396 477.855L459.321 477.88ZM457.28 474.5H457.155C456.805 474.5 456.78 474.675 456.78 474.725C456.68 475.289 458.032 476.716 459.071 477.329C458.97 476.379 458.586 475.481 457.969 474.75C457.774 474.592 457.532 474.503 457.28 474.5Z" fill="#0489C7"/>
<path d="M468.498 477.68H460.148L459.321 458.362H467.66L468.498 477.68Z" fill="#FF8B7B"/>
<path d="M528.644 468.478L520.344 469.379L514.084 450.612L522.384 449.71L528.644 468.478Z" fill="#FF8B7B"/>
<path d="M516.55 471.27C515.511 471.545 514.472 471.658 514.046 471.27C513.929 471.168 513.847 471.033 513.811 470.882C513.775 470.732 513.787 470.574 513.846 470.431C513.883 470.301 513.947 470.181 514.033 470.078C514.12 469.975 514.226 469.89 514.347 469.83C515.599 469.116 518.829 470.005 518.966 470.043C519.006 470.054 519.041 470.077 519.067 470.108C519.094 470.139 519.111 470.177 519.117 470.218C519.119 470.259 519.11 470.299 519.09 470.335C519.07 470.37 519.04 470.399 519.004 470.418C518.215 470.779 517.393 471.064 516.55 471.27ZM514.872 470.018C514.747 470.052 514.626 470.098 514.509 470.155C514.437 470.192 514.374 470.244 514.322 470.306C514.27 470.369 514.232 470.441 514.209 470.518C514.134 470.794 514.209 470.894 514.272 470.957C514.785 471.382 516.838 470.869 518.278 470.281C517.17 469.976 516.013 469.891 514.872 470.03V470.018Z" fill="#0489C7"/>
<path d="M518.941 470.431C518.941 470.431 518.879 470.431 518.854 470.431C517.765 470.243 515.386 468.991 515.311 468.039C515.311 467.814 515.373 467.501 515.887 467.313C516.067 467.236 516.26 467.197 516.456 467.197C516.652 467.197 516.846 467.236 517.026 467.313C518.278 467.902 519.042 470.018 519.079 470.105C519.098 470.135 519.108 470.17 519.108 470.205C519.108 470.241 519.098 470.276 519.079 470.306L518.941 470.431ZM516.137 467.651H516.012C515.686 467.777 515.699 467.914 515.699 467.964C515.699 468.528 517.414 469.567 518.566 469.917C518.243 469.02 517.648 468.245 516.863 467.701C516.636 467.594 516.377 467.576 516.137 467.651Z" fill="#0489C7"/>
<path d="M519.868 468.603L528.87 465.986C529.029 465.938 529.199 465.947 529.352 466.011C529.505 466.075 529.631 466.19 529.709 466.337L533.352 473.06C533.435 473.224 533.48 473.404 533.486 473.587C533.491 473.771 533.456 473.953 533.384 474.121C533.311 474.29 533.202 474.44 533.064 474.562C532.927 474.683 532.764 474.773 532.588 474.825C529.433 475.689 527.856 475.952 523.899 477.091C521.458 477.805 516.513 479.52 513.145 480.497C509.777 481.473 508.375 478.268 509.664 477.567C515.448 474.425 517.239 471.883 518.691 469.542C518.949 469.09 519.37 468.754 519.868 468.603Z" fill="#263238"/>
<path d="M460.198 476.716H469.312C469.479 476.715 469.641 476.772 469.771 476.877C469.901 476.982 469.991 477.128 470.026 477.292L471.678 484.704C471.714 484.887 471.708 485.075 471.661 485.256C471.614 485.437 471.528 485.604 471.408 485.747C471.288 485.89 471.137 486.004 470.968 486.081C470.798 486.159 470.613 486.197 470.426 486.193C467.134 486.131 462.389 485.943 458.257 485.943C453.424 485.943 450.745 486.206 445.124 486.206C441.693 486.206 440.754 482.738 442.181 482.45C448.717 481.023 452.498 480.872 458.144 477.442C458.745 477.009 459.458 476.757 460.198 476.716Z" fill="#263238"/>
<path d="M454.188 206.071C453.086 209.001 451.897 211.567 450.62 214.247C449.343 216.926 447.978 219.492 446.513 222.072C443.546 227.361 440.015 232.314 435.984 236.845C435.446 237.421 434.895 237.997 434.319 238.56C434.043 238.836 433.755 239.124 433.455 239.399L432.478 240.288C431.543 241.128 430.424 241.737 429.211 242.066C428.325 242.299 427.401 242.354 426.494 242.229C426.042 242.17 425.597 242.066 425.167 241.916C424.788 241.781 424.419 241.618 424.065 241.427C423.109 240.9 422.276 240.175 421.624 239.299C421.208 238.765 420.847 238.19 420.547 237.584C419.76 235.931 419.172 234.191 418.794 232.401C418.456 230.823 418.231 229.321 418.03 227.831C417.345 222.014 417.178 216.149 417.529 210.303L423.789 209.852C425.041 215.248 426.293 220.757 427.696 225.865C428.046 227.117 428.459 228.369 428.873 229.521C429.176 230.471 429.597 231.379 430.125 232.225C430.2 232.325 430.275 232.376 430.225 232.225C430 231.909 429.698 231.655 429.348 231.487C429.152 231.377 428.947 231.285 428.735 231.211C428.471 231.117 428.199 231.049 427.921 231.011C427.365 230.936 426.801 230.966 426.256 231.098C425.718 231.229 425.215 231.472 424.779 231.812L425.317 231.211C425.53 230.998 425.73 230.773 425.93 230.535C426.331 230.084 426.719 229.596 427.107 229.12C430.282 224.968 433.085 220.544 435.483 215.899C436.735 213.545 437.987 211.117 439.126 208.688C440.266 206.259 441.418 203.68 442.419 201.401L454.188 206.071Z" fill="#FF8B7B"/>
<path d="M493.939 192.825C501.764 194.628 509.664 217.489 509.664 217.489L493.563 229.045C493.563 229.045 489.069 218.391 484.637 209.076C480.004 199.31 485.939 190.997 493.939 192.825Z" fill="#263238"/>
<path d="M447.177 193.263C447.177 193.263 438.3 203.279 446.689 265.391H491.322C491.635 258.542 487.328 225.114 493.939 192.775C489.002 191.828 484.008 191.201 478.99 190.897C472.673 190.527 466.34 190.527 460.022 190.897C455.685 191.35 451.391 192.141 447.177 193.263Z" fill="#263238"/>
<path d="M458.232 201.714C461.036 209.226 448.216 229.108 448.216 229.108L429.161 217.652C434.013 212.123 438.179 206.027 441.568 199.498C447.74 186.652 455.978 195.667 458.232 201.714Z" fill="#263238"/>
<path d="M419.67 214.009L411.67 210.641L415.839 204.118C415.839 204.118 421.511 204.719 423.602 208.45C423.9 208.994 423.986 209.629 423.843 210.233C423.699 210.837 423.337 211.366 422.825 211.718L419.67 214.009Z" fill="#FF8B7B"/>
<path d="M405.172 205.758L412.158 201.138L415.839 204.118L411.67 210.641L405.172 205.758Z" fill="#FF8B7B"/>
<path opacity="0.2" d="M459.321 458.362L459.747 468.327H468.098L467.672 458.362H459.321Z" fill="black"/>
<path opacity="0.2" d="M522.384 449.723L514.084 450.624L517.564 461.028L525.615 459.388L522.384 449.723Z" fill="black"/>
<path d="M480.605 163.365C478.464 171.366 477.613 176.161 472.68 179.491C465.256 184.499 456.003 178.752 455.715 170.276C455.453 162.639 459.008 150.833 467.597 149.23C469.488 148.859 471.443 148.98 473.274 149.58C475.105 150.18 476.752 151.239 478.057 152.657C479.362 154.075 480.281 155.804 480.728 157.679C481.174 159.554 481.132 161.511 480.605 163.365Z" fill="#FF8B7B"/>
<path d="M485.839 158.658C486.94 158.921 489.181 158.758 491.197 154.201C493.989 147.941 481.732 149.693 481.732 149.693C481.732 149.693 493 144.585 483.385 139.677C477.125 136.485 474.771 139.44 473.92 141.868C474.17 139.364 473.556 136.034 467.81 137.799C459.046 140.479 465.368 147.415 465.368 147.415C464.446 146.757 463.322 146.443 462.192 146.527C461.062 146.612 459.998 147.09 459.184 147.878C456.379 150.382 458.583 153.925 461.287 157.08C459.672 159.359 458.971 162.088 463.303 163.102C464.077 163.244 464.778 163.649 465.287 164.25C465.796 164.85 466.081 165.608 466.095 166.395C466.095 170.664 466.257 174.145 469.225 176.874C472.192 179.604 482.533 175.71 482.007 169.613C484.526 169.345 486.922 168.387 488.931 166.846C494.265 162.677 488.005 159.547 485.839 158.658Z" fill="#263238"/>
<path d="M469.2 163.503C468.345 165.376 466.897 166.916 465.08 167.885C462.677 169.137 461.324 167.309 461.875 164.905C462.364 162.739 464.204 159.484 466.671 159.221C469.137 158.958 470.189 161.237 469.2 163.503Z" fill="#FF8B7B"/>
<path d="M462.526 265.391C462.526 265.391 471.992 329.18 477.187 353.031C482.884 379.198 512.832 459.313 512.832 459.313L527.856 456.546C527.856 456.546 505.47 381.313 502.215 355.41C498.697 327.29 491.31 265.353 491.31 265.353L462.526 265.391Z" fill="#0489C7"/>
<path opacity="0.2" d="M468.511 288.115C479.516 290.268 478.264 331.108 477.012 352.117C473.844 337.268 469.225 308.697 466.07 288.415C466.827 288.044 467.686 287.938 468.511 288.115Z" fill="black"/>
<path d="M446.689 265.391C446.689 265.391 445.537 327.79 446.451 353.244C447.39 379.711 456.629 466.399 456.629 466.399H470.752C470.752 466.399 471.265 381.263 471.891 355.259C472.58 326.927 476.01 265.391 476.01 265.391H446.689Z" fill="#0489C7"/>
<path d="M509.414 454.28C509.351 454.28 512.03 459.764 512.03 459.764L528.945 456.659L527.693 451.563L509.414 454.28Z" fill="#263238"/>
<path d="M453.913 460.765C453.85 460.765 454.714 466.637 454.714 466.637H471.916L472.38 461.391L453.913 460.765Z" fill="#263238"/>
<path d="M312.249 477.317H321.213L321.151 456.584H312.199L312.249 477.317Z" fill="#7F3E3B"/>
<path d="M264.673 477.317H273.625L276.592 456.584H267.628L264.673 477.317Z" fill="#7F3E3B"/>
<path d="M274.188 476.29H264.172C263.998 476.286 263.829 476.346 263.697 476.459C263.565 476.573 263.48 476.731 263.458 476.904L262.282 484.854C262.259 485.055 262.278 485.259 262.34 485.452C262.401 485.645 262.502 485.823 262.637 485.974C262.772 486.125 262.937 486.246 263.121 486.33C263.306 486.413 263.506 486.456 263.709 486.456C267.227 486.394 268.917 486.181 273.337 486.181C276.066 486.181 281.688 486.469 285.444 486.469C289.2 486.469 289.425 482.713 287.86 482.412C280.849 480.91 278.094 478.819 275.728 476.841C275.301 476.472 274.752 476.276 274.188 476.29Z" fill="#263238"/>
<path d="M321.1 476.29H311.322C311.146 476.288 310.975 476.348 310.84 476.461C310.704 476.573 310.613 476.73 310.584 476.904L309.244 484.854C309.212 485.043 309.22 485.236 309.267 485.421C309.314 485.607 309.399 485.78 309.517 485.931C309.634 486.082 309.782 486.207 309.951 486.297C310.12 486.387 310.305 486.442 310.496 486.456C314.014 486.394 319.11 486.181 323.542 486.181C328.725 486.181 333.22 486.469 339.292 486.469C342.973 486.469 343.824 482.713 342.272 482.412C335.198 480.885 329.464 480.722 323.241 476.979C322.601 476.565 321.862 476.328 321.1 476.29Z" fill="#263238"/>
<path d="M314.252 194.039L326.484 190.12C326.484 190.12 337.752 221.02 341.007 224.288C345.414 228.732 351.724 240.564 355.205 247.124C354.804 248.589 352.701 251.994 351.449 252.633C342.823 246.448 331.354 234.654 328.913 229.458C323.354 217.652 314.252 194.039 314.252 194.039Z" fill="#7F3E3B"/>
<path d="M311.423 187.304C307.316 194.816 321.789 220.031 321.789 220.031L340.056 211.567C340.056 211.567 335.874 199.786 331.004 189.695C326.371 180.092 315.98 178.99 311.423 187.304Z" fill="#0489C7"/>
<path d="M354.429 245.872L363.643 251.469L356.82 260.833C353.974 257.949 351.584 254.648 349.734 251.043L354.429 245.872Z" fill="#7F3E3B"/>
<path d="M370.392 259.356L364.445 263.638L356.833 260.833L363.643 251.469L370.392 259.356Z" fill="#7F3E3B"/>
<path opacity="0.2" d="M321.151 456.584L321.176 467.276H312.224L312.186 456.584H321.151Z" fill="black"/>
<path opacity="0.2" d="M267.628 456.584H276.592L275.064 467.276H266.1L267.628 456.584Z" fill="black"/>
<path d="M323.129 182.22C323.129 182.22 334.397 213.007 325.558 263.375H277.656C277.143 256.013 280.886 216.413 272.936 181.77C278.215 180.746 283.556 180.068 288.924 179.741C295.708 179.347 302.51 179.347 309.294 179.741C313.962 180.214 318.587 181.043 323.129 182.22Z" fill="#0489C7"/>
<path d="M297.888 182.396C297.888 182.396 305.976 192.938 304.274 263.375H313.163C313.163 263.375 316.531 203.079 306.602 181.782C303.686 181.742 300.771 181.947 297.888 182.396Z" fill="white"/>
<path opacity="0.2" d="M283.553 190.321C284.492 196.017 283.027 209.664 277.982 225.377C277.736 211.872 276.299 198.415 273.687 185.163V185.1C276.83 184.825 282.664 184.975 283.553 190.321Z" fill="black"/>
<path d="M291.115 160.699C292.567 167.246 293.406 175.372 288.924 179.741C288.924 179.741 291.716 186.39 303.948 186.39C315.078 186.39 309.344 179.741 309.344 179.741C301.995 178.001 302.145 168.962 303.297 163.866L291.115 160.699Z" fill="#7F3E3B"/>
<path d="M288.924 179.178C292.909 182.748 297.755 185.22 302.984 186.352C300.843 187.804 298.089 193.013 298.089 193.013C298.089 193.013 287.747 189.069 285.719 179.654C286.708 179.441 288.924 179.178 288.924 179.178Z" fill="#0489C7"/>
<path opacity="0.3" d="M288.924 179.178C292.909 182.748 297.755 185.22 302.984 186.352C300.843 187.804 298.089 193.013 298.089 193.013C298.089 193.013 287.747 189.069 285.719 179.654C286.708 179.441 288.924 179.178 288.924 179.178Z" fill="black"/>
<path d="M308.355 178.928C308.355 178.928 311.197 184.9 305.989 186.289C308.577 187.592 310.746 189.597 312.249 192.074C312.249 192.074 315.93 184.724 311.51 179.428C310.559 179.191 308.355 178.928 308.355 178.928Z" fill="#0489C7"/>
<path opacity="0.3" d="M308.355 178.928C308.355 178.928 311.197 184.9 305.989 186.289C308.577 187.592 310.746 189.597 312.249 192.074C312.249 192.074 315.93 184.724 311.51 179.428C310.559 179.191 308.355 178.928 308.355 178.928Z" fill="black"/>
<path opacity="0.2" d="M303.259 163.879C302.354 167.422 302.463 171.148 303.572 174.633C302.532 175.128 301.369 175.302 300.23 175.134C297.55 174.596 295.935 173.369 293.707 168.874C293.519 167.722 291.365 161.85 291.128 160.749L303.259 163.879Z" fill="black"/>
<path d="M313.063 153.988C313.179 155.078 313.076 156.181 312.757 157.231C312.439 158.281 311.913 159.256 311.21 160.098C309.319 162.326 306.665 161.012 305.776 158.345C304.962 155.953 304.975 151.897 307.566 150.645C308.143 150.38 308.777 150.261 309.411 150.297C310.045 150.334 310.66 150.526 311.203 150.856C311.745 151.186 312.198 151.644 312.523 152.19C312.847 152.736 313.032 153.353 313.063 153.988Z" fill="#7F3E3B"/>
<path opacity="0.2" d="M313.063 153.988C313.179 155.078 313.076 156.181 312.757 157.231C312.439 158.281 311.913 159.256 311.21 160.098C309.319 162.326 306.665 161.012 305.776 158.345C304.962 155.953 304.975 151.897 307.566 150.645C308.143 150.38 308.777 150.261 309.411 150.297C310.045 150.334 310.66 150.526 311.203 150.856C311.745 151.186 312.198 151.644 312.523 152.19C312.847 152.736 313.032 153.353 313.063 153.988Z" fill="black"/>
<path d="M285.093 153.662C288.749 161.85 289.287 166.445 294.683 169.938C302.809 175.234 312.487 168.937 312.474 159.797C312.474 151.584 308.217 139.064 299.003 137.261C288.924 135.371 280.448 143.208 285.093 153.662Z" fill="#7F3E3B"/>
<path d="M283.703 161.312C285.063 162.957 286.923 164.113 288.999 164.605C291.503 165.131 291.941 162.689 290.489 160.285C289.174 158.119 286.858 153.913 284.066 155.816C282.213 157.13 281.913 159.259 283.703 161.312Z" fill="#7F3E3B"/>
<path d="M313.275 159.847C313.551 165.381 319.085 172.367 309.156 173.957C303.974 174.774 298.673 173.636 294.283 170.765C289.938 168.073 288.649 160.486 285.281 155.403C285.131 155.215 285.206 154.989 285.381 154.764C285.583 154.533 285.839 154.355 286.125 154.244C286.411 154.133 286.72 154.094 287.025 154.128C287.33 154.162 287.622 154.27 287.877 154.442C288.131 154.614 288.34 154.845 288.486 155.115C289.613 157.08 291.716 159.947 294.546 160.123C298.877 160.461 313 154.188 313.275 159.847Z" fill="#263238"/>
<path d="M294.07 263.375C294.07 263.375 295.322 274.643 296.787 289.905C298.539 307.195 300.705 329.656 302.083 346.771C302.076 346.846 302.076 346.921 302.083 346.996C302.345 350.251 302.571 353.256 302.771 356.086C304.712 383.993 309.231 465.21 309.231 465.21H324.406C324.406 465.21 330.29 382.328 330.015 353.92C329.764 326.576 325.52 263.375 325.52 263.375H294.07Z" fill="#263238"/>
<path d="M307.992 459.876C307.917 459.876 308.217 465.523 308.217 465.523H325.745L326.221 459.175L307.992 459.876Z" fill="#0489C7"/>
<path opacity="0.2" d="M296.787 289.905C298.539 307.195 300.705 329.656 302.083 346.771C302.076 346.846 302.076 346.921 302.083 346.996C305.45 330.783 308.53 316.009 305.225 291.908L296.787 289.905Z" fill="black"/>
<path d="M308.555 263.375C308.555 263.375 303.335 328.091 299.666 353.732C295.647 381.814 279.083 465.16 279.083 465.16H262.67C262.67 465.16 271.571 384.03 272.986 356.236C274.526 326.063 277.644 263.337 277.644 263.337L308.555 263.375Z" fill="#263238"/>
<path d="M262.206 459.701C262.144 459.701 261.881 465.523 261.881 465.523H279.91L281.162 459.526L262.206 459.701Z" fill="#0489C7"/>
<path d="M299.228 152.31C299.403 153.011 299.904 153.562 300.367 153.412C300.831 153.262 301.056 152.648 300.893 151.947C300.73 151.246 300.217 150.695 299.754 150.845C299.291 150.996 299.065 151.596 299.228 152.31Z" fill="#263238"/>
<path d="M307.141 150.582C307.316 151.296 307.817 151.834 308.28 151.684C308.743 151.534 308.969 150.933 308.806 150.219C308.643 149.506 308.13 148.967 307.667 149.118C307.203 149.268 306.978 149.869 307.141 150.582Z" fill="#263238"/>
<path d="M304.712 151.484C306.061 153.467 307.67 155.26 309.494 156.817C309.097 157.268 308.604 157.624 308.052 157.86C307.5 158.096 306.902 158.206 306.302 158.182L304.712 151.484Z" fill="#630F0F"/>
<path d="M304.737 163.027C304.764 163.02 304.79 163.007 304.812 162.99C304.834 162.973 304.853 162.952 304.867 162.927C304.881 162.903 304.89 162.876 304.893 162.848C304.897 162.82 304.895 162.791 304.887 162.764C304.87 162.711 304.833 162.666 304.785 162.638C304.736 162.611 304.679 162.602 304.624 162.614C303.753 162.847 302.839 162.872 301.956 162.687C301.073 162.503 300.246 162.113 299.541 161.55C299.522 161.531 299.5 161.515 299.475 161.505C299.45 161.494 299.424 161.489 299.397 161.489C299.37 161.489 299.344 161.494 299.319 161.505C299.294 161.515 299.272 161.531 299.253 161.55C299.232 161.569 299.215 161.592 299.203 161.618C299.191 161.644 299.185 161.672 299.185 161.7C299.185 161.729 299.191 161.757 299.203 161.783C299.215 161.808 299.232 161.832 299.253 161.85C300.007 162.47 300.898 162.9 301.852 163.105C302.806 163.31 303.795 163.283 304.737 163.027Z" fill="#7F3E3B"/>
<path d="M296.236 150.244C296.299 150.229 296.357 150.2 296.407 150.159C296.457 150.117 296.497 150.065 296.524 150.006C296.719 149.516 297.031 149.081 297.432 148.738C297.833 148.396 298.312 148.156 298.827 148.041C298.888 148.038 298.948 148.023 299.002 147.995C299.056 147.968 299.104 147.929 299.141 147.881C299.179 147.834 299.207 147.779 299.222 147.72C299.237 147.661 299.239 147.6 299.228 147.54C299.209 147.428 299.148 147.328 299.057 147.26C298.966 147.192 298.852 147.162 298.74 147.177C298.078 147.311 297.46 147.612 296.946 148.049C296.431 148.487 296.036 149.049 295.798 149.681C295.754 149.784 295.752 149.9 295.792 150.005C295.831 150.11 295.91 150.195 296.01 150.244C296.085 150.261 296.161 150.261 296.236 150.244Z" fill="#263238"/>
<path d="M310.033 146.977C310.092 146.953 310.147 146.919 310.196 146.876C310.275 146.797 310.32 146.689 310.32 146.576C310.32 146.463 310.275 146.355 310.196 146.275C309.756 145.763 309.201 145.361 308.577 145.104C307.952 144.848 307.275 144.743 306.602 144.798C306.491 144.817 306.392 144.878 306.326 144.97C306.26 145.061 306.234 145.175 306.252 145.286C306.273 145.397 306.335 145.496 306.425 145.563C306.516 145.63 306.628 145.661 306.74 145.649C307.274 145.608 307.81 145.695 308.304 145.902C308.799 146.108 309.236 146.43 309.582 146.839C309.637 146.901 309.708 146.947 309.788 146.971C309.868 146.996 309.952 146.997 310.033 146.977Z" fill="#263238"/>
<path d="M267.753 193.488L279.634 198.985C279.634 198.985 268.178 228.181 270.132 232.3C272.798 237.922 274.889 250.404 279.234 256.439C279.008 257.904 277.255 261.447 276.091 262.186C266.588 257.065 257.211 238.398 256.698 232.789C255.521 220.006 267.753 193.488 267.753 193.488Z" fill="#7F3E3B"/>
<path d="M272.936 181.77C264.498 183.022 255.508 212.356 255.508 212.356L276.054 221.408C276.054 221.408 281.062 208.45 284.667 198.071C288.448 187.216 282.001 180.443 272.936 181.77Z" fill="#0489C7"/>
<path d="M277.268 477.855C277.868 477.903 278.466 477.739 278.958 477.392C279.11 477.253 279.222 477.078 279.283 476.882C279.345 476.686 279.354 476.478 279.309 476.278C279.304 476.15 279.264 476.026 279.194 475.92C279.123 475.814 279.024 475.73 278.908 475.677C277.881 475.163 275.152 476.929 274.814 477.141C274.781 477.165 274.754 477.197 274.739 477.235C274.723 477.273 274.719 477.314 274.726 477.354C274.738 477.396 274.76 477.434 274.791 477.465C274.822 477.496 274.86 477.518 274.902 477.53C275.676 477.725 276.47 477.834 277.268 477.855ZM278.457 476.002C278.552 475.981 278.65 475.981 278.745 476.002C278.79 476.028 278.827 476.064 278.853 476.108C278.879 476.152 278.894 476.201 278.896 476.253C278.924 476.39 278.917 476.532 278.875 476.665C278.834 476.799 278.759 476.92 278.658 477.016C277.664 477.484 276.526 477.543 275.49 477.179C276.389 476.589 277.398 476.188 278.457 476.002Z" fill="#0489C7"/>
<path d="M274.952 477.53C274.984 477.541 275.02 477.541 275.052 477.53C275.941 477.029 277.556 475.026 277.318 474.074C277.277 473.915 277.185 473.774 277.056 473.672C276.927 473.57 276.769 473.514 276.604 473.511C276.445 473.489 276.283 473.502 276.129 473.55C275.976 473.598 275.835 473.678 275.715 473.786C274.739 474.637 274.726 477.217 274.726 477.329C274.727 477.369 274.737 477.409 274.757 477.444C274.777 477.479 274.805 477.508 274.839 477.53H274.952ZM276.492 473.899H276.579C276.867 473.899 276.892 474.062 276.905 474.112C277.068 474.7 276.041 476.19 275.165 476.879C275.15 475.878 275.447 474.898 276.016 474.074C276.146 473.957 276.317 473.895 276.492 473.899Z" fill="#0489C7"/>
<path d="M324.894 477.855C325.654 477.927 326.415 477.732 327.047 477.304C327.188 477.174 327.293 477.011 327.354 476.829C327.416 476.648 327.431 476.454 327.398 476.265C327.387 476.147 327.347 476.034 327.281 475.936C327.216 475.838 327.127 475.757 327.022 475.702C325.908 475.088 322.39 476.954 322.014 477.129C321.978 477.153 321.949 477.187 321.931 477.227C321.913 477.267 321.907 477.311 321.914 477.354C321.922 477.398 321.942 477.439 321.974 477.47C322.005 477.502 322.046 477.522 322.09 477.53C323.013 477.724 323.951 477.833 324.894 477.855ZM326.434 476.002C326.572 475.997 326.708 476.022 326.835 476.077C326.875 476.099 326.91 476.132 326.934 476.171C326.958 476.211 326.971 476.256 326.972 476.303C326.997 476.425 326.99 476.552 326.95 476.671C326.911 476.789 326.841 476.896 326.747 476.979C326.221 477.48 324.756 477.555 322.766 477.229C323.907 476.609 325.149 476.194 326.434 476.002Z" fill="#0489C7"/>
<path d="M322.115 477.53H322.19C323.254 477.041 325.307 475.113 325.094 474.099C325.094 473.861 324.869 473.561 324.281 473.498C324.072 473.476 323.861 473.497 323.661 473.56C323.461 473.622 323.275 473.725 323.116 473.861C322.027 474.8 321.864 477.217 321.864 477.317C321.864 477.354 321.873 477.391 321.891 477.423C321.908 477.456 321.934 477.484 321.964 477.505C322.01 477.531 322.063 477.54 322.115 477.53ZM324.13 473.899H324.256C324.644 473.899 324.669 474.087 324.681 474.137C324.806 474.75 323.429 476.265 322.352 476.929C322.398 475.921 322.767 474.956 323.404 474.174C323.603 473.994 323.862 473.896 324.13 473.899Z" fill="#0489C7"/>
<path d="M278.169 256.276L286.62 257.528L280.36 265.779C280.36 265.779 273.011 264.452 272.911 258.58L278.169 256.276Z" fill="#7F3E3B"/>
<path d="M292.53 263.262L286.52 270.436L280.385 265.766L286.62 257.516L292.53 263.262Z" fill="#7F3E3B"/>
<path d="M198.041 188.581C198.041 188.581 189.903 185.1 183.38 189.269C176.858 193.438 182.216 194.177 175.055 197.445C167.893 200.712 175.893 205.17 175.055 209.376C174.053 214.384 165.652 216.538 170.397 222.385C175.142 228.231 210.874 231.224 214.768 223.95C218.662 216.675 209.76 216.726 211.926 210.541C214.092 204.356 215.206 200.374 209.209 196.506C203.212 192.637 204.827 185.726 198.041 188.581Z" fill="#263238"/>
<path d="M223.069 241.44C223.419 243.468 223.858 245.772 224.321 247.925C224.784 250.079 225.322 252.307 225.936 254.461C227.123 258.764 228.582 262.988 230.305 267.106C230.719 268.145 231.207 269.122 231.658 270.123L231.783 270.399V270.486C231.783 270.486 231.783 270.486 231.72 270.486C231.495 270.323 231.222 270.239 230.944 270.249C230.731 270.249 230.794 270.349 231.007 270.249C231.316 270.153 231.615 270.023 231.895 269.86C232.713 269.383 233.485 268.83 234.199 268.208C237.499 265.22 240.543 261.961 243.301 258.467L247.057 260.758C244.962 265.228 242.27 269.393 239.057 273.141C238.129 274.186 237.097 275.134 235.977 275.97C235.292 276.462 234.558 276.882 233.786 277.222C232.732 277.694 231.584 277.917 230.431 277.873C228.983 277.796 227.604 277.236 226.512 276.283C226.047 275.884 225.627 275.434 225.26 274.944C225.097 274.718 224.959 274.505 224.834 274.292C224.709 274.08 224.621 273.917 224.546 273.779C223.97 272.69 223.294 271.613 222.831 270.511C220.679 266.122 218.895 261.562 217.497 256.877C216.784 254.561 216.133 252.22 215.607 249.853C215.081 247.487 214.593 245.171 214.255 242.592L223.069 241.44Z" fill="#FFB573"/>
<path d="M219.651 231.674C223.269 232.35 226.675 246.824 226.675 246.824L217.297 254.098C217.297 254.098 206.981 239.938 209.472 235.856C211.964 231.775 214.38 230.685 219.651 231.674Z" fill="#263238"/>
<path opacity="0.2" d="M219.538 234.955L223.194 249.528L217.923 253.609L219.538 234.955Z" fill="black"/>
<path d="M246.857 256.326L253.906 255.137L249.787 262.887C249.787 262.887 244.24 262.974 242.5 259.832L242.913 259.093C243.326 258.37 243.893 257.746 244.575 257.268C245.257 256.79 246.036 256.468 246.857 256.326Z" fill="#FFB573"/>
<path d="M259.99 257.215L257.549 264.176L249.786 262.887L253.906 255.137L259.99 257.215Z" fill="#FFB573"/>
<path d="M236.891 477.93L245.229 475.639L240.497 456.196L232.158 458.487L236.891 477.93Z" fill="#FFB573"/>
<path d="M245.229 474.174L235.914 476.879C235.752 476.923 235.611 477.025 235.519 477.165C235.427 477.306 235.389 477.476 235.414 477.642L236.49 485.317C236.524 485.51 236.599 485.693 236.709 485.855C236.819 486.017 236.962 486.154 237.129 486.257C237.296 486.36 237.482 486.427 237.676 486.452C237.87 486.478 238.068 486.462 238.256 486.406C241.486 485.405 243.001 484.766 247.095 483.577C249.599 482.838 256.935 480.998 260.416 479.984C263.897 478.969 263.083 475.476 261.543 475.589C254.632 476.077 249.486 475.489 246.769 474.337C246.291 474.103 245.746 474.045 245.229 474.174Z" fill="#263238"/>
<g opacity="0.2">
<path opacity="0.2" d="M240.497 456.208L242.926 466.224L234.6 468.515L232.158 458.487L240.497 456.208Z" fill="black"/>
</g>
<path d="M219.651 231.674C219.651 231.674 223.858 232.926 218.812 283.97L183.756 286.174C183.456 271.889 182.917 263.1 174.266 234.279C179.119 232.97 184.061 232.016 189.052 231.424C194.322 230.712 199.635 230.377 204.952 230.422C211.813 230.573 219.651 231.674 219.651 231.674Z" fill="#0489C7"/>
<g opacity="0.4">
<path opacity="0.4" d="M219.651 231.674C219.651 231.674 223.858 232.926 218.812 283.97L183.756 286.174C183.456 271.889 182.917 263.1 174.266 234.279C179.119 232.97 184.061 232.016 189.052 231.424C194.322 230.712 199.635 230.377 204.952 230.422C211.813 230.573 219.651 231.674 219.651 231.674Z" fill="#263238"/>
</g>
<path d="M189.49 213.383C190.817 218.391 192.407 227.743 189.039 231.386C189.039 231.386 190.767 236.482 200.307 235.894C210.762 235.23 204.977 230.385 204.977 230.385C199.193 229.383 199.068 225.139 199.807 221.108L189.49 213.383Z" fill="#FFB573"/>
<path d="M189.052 231.424C194.317 230.712 199.627 230.377 204.94 230.422H205.992C207.406 232.751 207.97 236.432 205.265 242.041C205.265 242.041 190.968 237.308 186.961 231.662L189.052 231.424Z" fill="#FFB573"/>
<path opacity="0.2" d="M193.684 216.538L199.769 221.095C199.587 222.036 199.482 222.991 199.456 223.95C197.265 223.774 193.797 221.696 193.422 219.43C193.207 218.462 193.299 217.451 193.684 216.538Z" fill="black"/>
<path d="M183.418 204.869C185.922 213.07 186.761 216.6 191.982 219.893C199.819 224.838 209.359 220.006 209.384 211.217C209.384 203.317 205.353 191.185 196.426 189.833C194.459 189.514 192.443 189.705 190.571 190.385C188.698 191.066 187.03 192.214 185.727 193.721C184.423 195.228 183.526 197.044 183.122 198.995C182.718 200.946 182.82 202.968 183.418 204.869Z" fill="#FFB573"/>
<path d="M198.016 189.344C199.055 193.313 189.59 207.285 184.307 211.117C179.299 205.62 179.574 198.521 181.74 194.903C183.906 191.285 189.052 187.391 198.016 189.344Z" fill="#263238"/>
<path d="M198.692 189.469C202.887 190.659 207.281 195.629 204.952 195.429C202.624 195.229 192.508 190.747 198.692 189.469Z" fill="#263238"/>
<path d="M218.812 284.008C218.812 284.008 228.653 346.921 231.996 373.05C235.464 400.244 244.002 463.445 244.002 463.445L232.734 466.7C232.734 466.7 215.995 404.763 210.987 378.296C205.541 349.5 193.121 285.648 193.121 285.648L218.812 284.008Z" fill="#0489C7"/>
<g opacity="0.2">
<path opacity="0.2" d="M218.812 284.008C218.812 284.008 228.653 346.921 231.996 373.05C235.464 400.244 244.002 463.445 244.002 463.445L232.734 466.7C232.734 466.7 215.995 404.763 210.987 378.296C205.541 349.5 193.121 285.648 193.121 285.648L218.812 284.008Z" fill="black"/>
</g>
<path d="M231.92 467.351L245.079 463.52L244.829 459.05L229.942 462.819L231.92 467.351Z" fill="#263238"/>
<path d="M211.4 474.212L219.714 476.528L221.942 458.374H213.303L211.4 474.212Z" fill="#FFB573"/>
<path opacity="0.2" d="M212.214 467.401L220.615 469.229L221.942 458.374H213.303L212.214 467.401Z" fill="black"/>
<path d="M220.089 475.689L210.574 473.073C210.408 473.028 210.232 473.039 210.074 473.105C209.915 473.17 209.783 473.287 209.698 473.436L206.768 480.384C206.679 480.555 206.63 480.745 206.627 480.938C206.623 481.131 206.664 481.322 206.746 481.497C206.829 481.671 206.95 481.825 207.102 481.944C207.253 482.064 207.43 482.147 207.619 482.187C210.962 483.038 211.901 483.176 216.095 484.328C218.662 485.029 224.784 488.009 231.42 488.009C234.963 488.009 234.587 484.253 233.097 483.94C226.424 482.488 222.931 478.932 221.329 476.566C221.031 476.137 220.593 475.826 220.089 475.689Z" fill="#263238"/>
<path d="M210.849 284.446C210.849 284.446 244.553 356.436 241.586 379.01C237.968 406.491 222.505 464.384 222.505 464.384L210.724 462.055C210.724 462.055 216.984 403.937 219.413 377.019C222.092 347.685 185.784 324.923 183.493 286.199L210.849 284.446Z" fill="#0489C7"/>
<path d="M209.597 464.772L223.357 467.802L224.671 463.107L209.823 459.801L209.597 464.772Z" fill="#263238"/>
<path d="M222.919 477.955C223.634 478.221 224.416 478.248 225.147 478.03C225.328 477.96 225.49 477.849 225.62 477.706C225.75 477.562 225.846 477.391 225.898 477.204C225.939 477.103 225.95 476.992 225.927 476.885C225.905 476.778 225.851 476.68 225.773 476.603C224.984 475.777 220.978 476.49 220.527 476.603C220.484 476.614 220.443 476.636 220.411 476.666C220.378 476.697 220.353 476.736 220.339 476.778C220.329 476.817 220.332 476.858 220.348 476.894C220.364 476.93 220.392 476.96 220.427 476.979C221.223 477.387 222.058 477.714 222.919 477.955ZM225.11 476.703C225.234 476.729 225.35 476.785 225.448 476.866C225.47 476.904 225.481 476.947 225.481 476.991C225.481 477.035 225.47 477.078 225.448 477.116C225.412 477.237 225.349 477.348 225.265 477.441C225.18 477.534 225.076 477.607 224.959 477.655C224.271 477.955 222.869 477.655 221.141 476.841C222.448 476.583 223.789 476.54 225.11 476.716V476.703Z" fill="#0489C7"/>
<path d="M220.465 476.954H220.552C221.729 476.791 224.421 475.614 224.659 474.663C224.659 474.437 224.659 474.124 224.146 473.911C223.743 473.752 223.296 473.752 222.894 473.911C221.815 474.569 220.947 475.52 220.39 476.653C220.371 476.683 220.361 476.718 220.361 476.753C220.361 476.789 220.371 476.824 220.39 476.854L220.465 476.954ZM223.82 474.262H223.945C224.283 474.4 224.246 474.537 224.233 474.587C224.095 475.163 222.192 476.152 220.928 476.453C221.414 475.542 222.147 474.787 223.044 474.274C223.3 474.204 223.572 474.217 223.82 474.312V474.262Z" fill="#0489C7"/>
<path d="M197.215 203.943C197.378 204.631 197.866 205.094 198.304 204.982C198.742 204.869 198.98 204.243 198.818 203.567C198.655 202.891 198.179 202.428 197.728 202.528C197.278 202.628 197.052 203.267 197.215 203.943Z" fill="#263238"/>
<path d="M204.877 202.14C205.04 202.816 205.528 203.279 205.979 203.179C206.43 203.079 206.643 202.44 206.492 201.764C206.342 201.088 205.841 200.612 205.391 200.725C204.94 200.838 204.727 201.464 204.877 202.14Z" fill="#263238"/>
<path d="M205.215 200.813L206.73 199.949C206.73 199.949 206.192 201.376 205.215 200.813Z" fill="#263238"/>
<path d="M202.824 203.88C203.79 205.284 204.944 206.547 206.255 207.636C205.969 207.966 205.615 208.229 205.217 208.406C204.819 208.584 204.387 208.671 203.951 208.663L202.824 203.88Z" fill="#ED893E"/>
<path d="M200.858 212.231C201.204 212.204 201.548 212.15 201.885 212.068C201.937 212.053 201.982 212.019 202.01 211.973C202.038 211.926 202.047 211.871 202.035 211.818C202.021 211.765 201.986 211.721 201.94 211.693C201.893 211.665 201.838 211.656 201.785 211.667C200.947 211.885 200.069 211.903 199.222 211.718C198.376 211.533 197.586 211.151 196.915 210.603C196.875 210.567 196.824 210.547 196.771 210.547C196.717 210.547 196.666 210.567 196.627 210.603C196.587 210.643 196.565 210.697 196.565 210.753C196.565 210.81 196.587 210.864 196.627 210.904C197.806 211.888 199.328 212.365 200.858 212.231Z" fill="#263238"/>
<path d="M182.955 213.032C183.878 214.409 185.31 215.364 186.936 215.686C189.102 216.1 189.991 214.134 189.24 212.193C188.564 210.44 186.623 208.124 184.532 208.588C184.077 208.698 183.657 208.92 183.309 209.233C182.962 209.547 182.698 209.942 182.541 210.383C182.384 210.824 182.34 211.297 182.413 211.76C182.485 212.222 182.671 212.66 182.955 213.032Z" fill="#FFB573"/>
<path d="M193.772 203.116C193.858 203.11 193.94 203.076 194.006 203.02C194.071 202.964 194.116 202.888 194.135 202.803C194.376 202.179 194.742 201.612 195.212 201.136C195.681 200.66 196.244 200.285 196.865 200.036C196.966 199.995 197.046 199.915 197.089 199.814C197.131 199.713 197.131 199.599 197.09 199.498C197.071 199.448 197.042 199.403 197.005 199.365C196.968 199.326 196.923 199.296 196.874 199.275C196.825 199.254 196.773 199.243 196.719 199.243C196.666 199.242 196.613 199.252 196.564 199.273C195.82 199.565 195.148 200.013 194.593 200.588C194.038 201.162 193.613 201.85 193.346 202.603C193.331 202.656 193.327 202.711 193.335 202.765C193.342 202.819 193.36 202.871 193.388 202.918C193.416 202.965 193.454 203.006 193.498 203.038C193.543 203.07 193.593 203.092 193.647 203.104L193.772 203.116Z" fill="#263238"/>
<path d="M206.355 198.058C206.425 198.05 206.492 198.025 206.55 197.986C206.609 197.947 206.658 197.894 206.693 197.833C206.737 197.734 206.743 197.623 206.708 197.52C206.673 197.418 206.6 197.333 206.505 197.282C205.925 196.978 205.281 196.819 204.627 196.819C203.973 196.819 203.328 196.978 202.749 197.282C202.704 197.309 202.664 197.345 202.633 197.387C202.601 197.429 202.578 197.478 202.566 197.529C202.553 197.58 202.55 197.633 202.558 197.685C202.566 197.738 202.584 197.788 202.611 197.833C202.666 197.927 202.756 197.996 202.862 198.024C202.967 198.052 203.08 198.038 203.175 197.983C203.632 197.75 204.138 197.629 204.652 197.629C205.165 197.629 205.672 197.75 206.129 197.983C206.199 198.023 206.275 198.049 206.355 198.058Z" fill="#263238"/>
<path d="M179.624 245.96C178.861 250.542 178.11 255.237 177.408 259.882C176.707 264.527 176.081 269.184 175.718 273.792L175.593 275.444C175.558 275.807 175.558 276.171 175.593 276.534C175.726 277.546 175.918 278.549 176.169 279.538C176.72 281.654 177.421 283.858 178.185 286.049C179.675 290.456 181.44 294.875 183.193 299.282L179.336 301.336C176.634 297.264 174.188 293.028 172.012 288.653C170.891 286.404 169.9 284.092 169.045 281.729C168.575 280.44 168.203 279.118 167.931 277.773C167.766 276.948 167.682 276.11 167.68 275.269V273.353C167.806 268.412 168.16 263.534 168.745 258.718C169.295 253.885 169.997 249.127 170.936 244.307L179.624 245.96Z" fill="#FFB573"/>
<path d="M174.303 234.279C170.86 235.531 167.405 247.913 167.405 247.913L181.628 256.79C181.628 256.79 185.96 246.385 184.194 241.953C182.366 237.321 178.222 232.814 174.303 234.279Z" fill="#263238"/>
<path d="M248.772 474.713C249.495 474.569 250.148 474.185 250.625 473.623C250.723 473.465 250.782 473.287 250.797 473.102C250.812 472.917 250.783 472.731 250.713 472.559C250.673 472.454 250.607 472.36 250.522 472.285C250.437 472.211 250.335 472.159 250.225 472.134C249.048 471.871 246.231 474.525 245.905 474.825C245.882 474.86 245.869 474.902 245.869 474.944C245.869 474.987 245.882 475.028 245.905 475.063C245.922 475.101 245.95 475.133 245.986 475.154C246.023 475.174 246.065 475.182 246.106 475.176C247.008 475.109 247.901 474.954 248.772 474.713ZM249.749 472.572C249.877 472.542 250.009 472.542 250.137 472.572C250.181 472.582 250.221 472.604 250.254 472.635C250.287 472.666 250.311 472.704 250.325 472.747C250.381 472.855 250.41 472.976 250.41 473.098C250.41 473.22 250.381 473.34 250.325 473.448C249.949 474.049 248.61 474.525 246.682 474.7C247.575 473.821 248.613 473.101 249.749 472.572Z" fill="#0489C7"/>
<path d="M246.106 475.176C246.106 475.176 246.168 475.176 246.181 475.176C247.045 474.45 248.484 472.096 248.059 471.194C247.959 470.982 247.721 470.756 247.157 470.856C246.957 470.892 246.765 470.968 246.595 471.079C246.425 471.191 246.28 471.337 246.168 471.507C245.688 472.629 245.579 473.875 245.855 475.063C245.861 475.099 245.875 475.132 245.897 475.161C245.919 475.189 245.948 475.212 245.98 475.226L246.106 475.176ZM247.107 471.232H247.232C247.596 471.232 247.658 471.307 247.683 471.345C247.946 471.883 247.02 473.673 246.193 474.575C245.991 473.61 246.1 472.606 246.506 471.708C246.641 471.481 246.855 471.312 247.107 471.232Z" fill="#0489C7"/>
<path d="M197.541 202.628L199.068 201.777C199.068 201.777 198.53 203.229 197.541 202.628Z" fill="#263238"/>
<path d="M183.143 284.146L182.454 287.338C182.341 287.589 182.642 287.827 183.055 287.802L219.1 285.523C219.413 285.523 219.663 285.335 219.676 285.135L219.789 281.98C219.789 281.767 219.513 281.592 219.163 281.617L183.706 283.858C183.595 283.855 183.486 283.88 183.388 283.93C183.289 283.981 183.205 284.055 183.143 284.146Z" fill="#263238"/>
<path d="M188.163 287.764H187.212C187.024 287.764 186.874 287.689 186.874 287.564L187.061 283.47C187.061 283.344 187.224 283.244 187.412 283.232L188.363 283.169C188.551 283.169 188.701 283.244 188.701 283.37L188.514 287.464C188.501 287.764 188.351 287.764 188.163 287.764Z" fill="#0489C7"/>
<path d="M216.433 286.036H215.494C215.294 286.036 215.144 285.949 215.156 285.836L215.344 281.729C215.344 281.617 215.507 281.504 215.695 281.492H216.646C216.834 281.492 216.984 281.567 216.984 281.679L216.796 285.786C216.784 285.911 216.596 286.024 216.433 286.036Z" fill="#0489C7"/>
<path d="M202.298 286.925L201.347 286.988C201.159 286.988 201.009 286.913 201.009 286.787L201.209 282.693C201.209 282.568 201.372 282.456 201.559 282.443H202.511C202.699 282.443 202.849 282.518 202.837 282.631L202.649 286.737C202.649 286.8 202.486 286.913 202.298 286.925Z" fill="#0489C7"/>
<path d="M182.967 298.444L190.066 304.503L181.39 305.931C181.39 305.931 177.972 301.574 179.412 298.281L182.967 298.444Z" fill="#FFB573"/>
<path d="M191.506 311.627L184.182 312.428L181.39 305.931L190.066 304.503L191.506 311.627Z" fill="#FFB573"/>
<path d="M381.096 173.544C415.531 173.544 443.446 145.629 443.446 111.194C443.446 76.7597 415.531 48.8448 381.096 48.8448C346.662 48.8448 318.747 76.7597 318.747 111.194C318.747 145.629 346.662 173.544 381.096 173.544Z" fill="#0489C7"/>
<path d="M255.02 86.4174L254.194 85.4784C259.236 80.9822 265.755 78.4959 272.51 78.4922V79.7442C266.059 79.7474 259.834 82.1225 255.02 86.4174Z" fill="#0489C7"/>
<path d="M247.896 96.8215L246.719 96.3833C247.457 94.4181 248.419 92.5445 249.586 90.7994L250.625 91.5005C249.519 93.1663 248.604 94.9512 247.896 96.8215Z" fill="#0489C7"/>
<path d="M288.91 122.451C297.965 113.396 297.965 98.7146 288.91 89.6595C279.855 80.6044 265.173 80.6044 256.118 89.6595C247.063 98.7146 247.063 113.396 256.118 122.451C265.173 131.506 279.855 131.506 288.91 122.451Z" fill="#0489C7"/>
<path d="M225.886 166.733C233.741 166.733 240.109 160.365 240.109 152.51C240.109 144.655 233.741 138.288 225.886 138.288C218.031 138.288 211.663 144.655 211.663 152.51C211.663 160.365 218.031 166.733 225.886 166.733Z" fill="#0489C7"/>
<path d="M476.561 122.788C482.791 122.788 487.842 117.737 487.842 111.507C487.842 105.277 482.791 100.227 476.561 100.227C470.331 100.227 465.281 105.277 465.281 111.507C465.281 117.737 470.331 122.788 476.561 122.788Z" fill="#0489C7"/>
<path d="M414.274 100.377C414.279 94.4114 412.674 88.5548 409.63 83.424C406.586 78.2933 402.215 74.0783 396.977 71.2228C391.739 68.3673 385.828 66.9769 379.866 67.1982C373.904 67.4194 368.112 69.244 363.1 72.4799C358.088 75.7158 354.042 80.2432 351.386 85.5854C348.731 90.9277 347.565 96.8871 348.011 102.836C348.458 108.785 350.5 114.504 353.923 119.39C357.346 124.276 362.023 128.149 367.462 130.6V136.472H394.731V130.6C400.553 127.98 405.494 123.733 408.961 118.372C412.428 113.01 414.273 106.762 414.274 100.377Z" fill="white"/>
<path opacity="0.2" d="M392.377 152.51H369.816L367.462 136.472H394.731L392.377 152.51Z" fill="black"/>
<path opacity="0.4" d="M386.668 155.177H375.525L374.373 152.51H387.82L386.668 155.177Z" fill="black"/>
<path d="M377.553 107.939C376.785 105.715 375.497 103.706 373.797 102.08C369.878 98.1736 365.033 96.859 362.842 99.0876C361.715 100.214 361.452 102.03 362.116 104.183C362.884 106.404 364.172 108.408 365.872 110.03C368.489 112.659 371.518 114.112 373.91 114.112C374.464 114.118 375.016 114.025 375.537 113.836L377.753 136.547C377.772 136.753 377.867 136.945 378.02 137.084C378.173 137.223 378.373 137.299 378.58 137.299H378.655C378.765 137.289 378.872 137.258 378.969 137.207C379.067 137.155 379.153 137.085 379.223 137C379.293 136.915 379.345 136.816 379.377 136.711C379.408 136.605 379.418 136.494 379.406 136.385L377.09 112.709C377.55 112.012 377.833 111.213 377.914 110.382C377.995 109.55 377.871 108.712 377.553 107.939ZM367.049 108.853C365.555 107.417 364.418 105.65 363.731 103.695C363.479 103.143 363.377 102.534 363.434 101.93C363.491 101.326 363.706 100.747 364.057 100.252C364.297 100.04 364.576 99.8784 364.879 99.7753C365.182 99.6722 365.503 99.6299 365.822 99.651C367.612 99.651 370.216 100.815 372.658 103.257C374.158 104.688 375.295 106.457 375.976 108.415C376.23 108.967 376.334 109.576 376.276 110.18C376.219 110.785 376.003 111.364 375.65 111.858C374.348 113.21 370.592 112.321 367.049 108.853Z" fill="#0489C7"/>
<path d="M399.313 99.0876C398.174 97.9483 396.371 97.6854 394.217 98.3489C392.018 99.1521 390.021 100.427 388.366 102.083C386.712 103.74 385.44 105.739 384.639 107.939C384.322 108.711 384.197 109.549 384.276 110.38C384.354 111.211 384.634 112.01 385.09 112.709L382.774 136.385C382.753 136.605 382.82 136.825 382.961 136.997C383.102 137.168 383.305 137.276 383.525 137.299H383.6C383.807 137.299 384.007 137.223 384.16 137.084C384.313 136.945 384.408 136.753 384.427 136.547L386.643 113.836C387.168 114.026 387.724 114.119 388.283 114.112C390.662 114.112 393.691 112.659 396.308 110.03C398.008 108.408 399.296 106.404 400.064 104.183C400.703 102.03 400.44 100.214 399.313 99.0876ZM398.462 103.695C397.779 105.653 396.642 107.42 395.144 108.853C391.676 112.321 387.895 113.21 386.543 111.858C386.189 111.364 385.973 110.785 385.916 110.18C385.859 109.576 385.963 108.967 386.217 108.415C386.902 106.459 388.039 104.692 389.535 103.257C390.971 101.756 392.743 100.619 394.706 99.939C395.252 99.7603 395.821 99.6632 396.396 99.651C397.031 99.623 397.653 99.8379 398.136 100.252C398.494 100.749 398.713 101.332 398.77 101.942C398.827 102.551 398.721 103.165 398.462 103.72V103.695Z" fill="#0489C7"/>
</svg>
