<svg width="122" height="112" viewBox="0 0 122 112" fill="none" xmlns="http://www.w3.org/2000/svg">
<path d="M14.345 97.184H16.667V110H14.345V97.184ZM24.4826 100.676C26.6546 100.676 27.7406 101.924 27.7406 104.42V110H25.4906V104.528C25.4906 103.808 25.3526 103.286 25.0766 102.962C24.8006 102.626 24.3746 102.458 23.7986 102.458C23.1146 102.458 22.5626 102.68 22.1426 103.124C21.7226 103.556 21.5126 104.132 21.5126 104.852V110H19.2806V103.484C19.2806 102.524 19.2326 101.666 19.1366 100.91H21.2426L21.4046 102.404C21.7166 101.852 22.1366 101.426 22.6646 101.126C23.2046 100.826 23.8106 100.676 24.4826 100.676ZM38.7303 100.928L34.7523 110H32.7903L28.8663 100.928H31.2243L33.8343 107.444L36.4983 100.928H38.7303ZM47.6976 105.572H41.4336C41.4816 106.544 41.7216 107.264 42.1536 107.732C42.5976 108.188 43.2516 108.416 44.1156 108.416C45.1116 108.416 46.0356 108.092 46.8876 107.444L47.5356 108.992C47.1036 109.34 46.5696 109.622 45.9336 109.838C45.3096 110.042 44.6736 110.144 44.0256 110.144C42.5376 110.144 41.3676 109.724 40.5156 108.884C39.6636 108.044 39.2376 106.892 39.2376 105.428C39.2376 104.504 39.4236 103.682 39.7956 102.962C40.1676 102.242 40.6896 101.684 41.3616 101.288C42.0336 100.88 42.7956 100.676 43.6476 100.676C44.8956 100.676 45.8796 101.084 46.5996 101.9C47.3316 102.704 47.6976 103.814 47.6976 105.23V105.572ZM43.7016 102.296C43.1016 102.296 42.6096 102.476 42.2256 102.836C41.8536 103.184 41.6136 103.694 41.5056 104.366H45.7356C45.6636 103.682 45.4536 103.166 45.1056 102.818C44.7696 102.47 44.3016 102.296 43.7016 102.296ZM52.9329 110.144C51.2889 110.144 49.9809 109.76 49.0089 108.992L49.6389 107.408C50.6109 108.128 51.7209 108.488 52.9689 108.488C53.5089 108.488 53.9229 108.398 54.2109 108.218C54.5109 108.038 54.6609 107.786 54.6609 107.462C54.6609 107.186 54.5589 106.97 54.3549 106.814C54.1509 106.646 53.8029 106.502 53.3109 106.382L51.7989 106.04C50.1429 105.68 49.3149 104.834 49.3149 103.502C49.3149 102.95 49.4709 102.464 49.7829 102.044C50.0949 101.612 50.5329 101.276 51.0969 101.036C51.6609 100.796 52.3149 100.676 53.0589 100.676C53.7069 100.676 54.3309 100.778 54.9309 100.982C55.5309 101.174 56.0589 101.456 56.5149 101.828L55.8489 103.358C54.9369 102.686 54.0009 102.35 53.0409 102.35C52.5249 102.35 52.1229 102.446 51.8349 102.638C51.5469 102.83 51.4029 103.094 51.4029 103.43C51.4029 103.694 51.4869 103.904 51.6549 104.06C51.8349 104.216 52.1349 104.348 52.5549 104.456L54.1029 104.798C55.0029 105.002 55.6569 105.32 56.0649 105.752C56.4849 106.172 56.6949 106.724 56.6949 107.408C56.6949 108.248 56.3589 108.914 55.6869 109.406C55.0149 109.898 54.0969 110.144 52.9329 110.144ZM61.3946 102.602V106.67C61.3946 107.738 61.8926 108.272 62.8886 108.272C63.1646 108.272 63.4646 108.224 63.7886 108.128V109.91C63.3926 110.054 62.9126 110.126 62.3486 110.126C61.3166 110.126 60.5246 109.838 59.9726 109.262C59.4206 108.686 59.1446 107.858 59.1446 106.778V102.602H57.3986V100.91H59.1446V98.696L61.3946 97.94V100.91H63.8066V102.602H61.3946ZM81.2544 97.184V110H79.5264L72.6144 101.018V110H70.4544V97.184H72.1824L79.0764 106.148V97.184H81.2544ZM88.0023 110.144C87.0783 110.144 86.2623 109.952 85.5543 109.568C84.8583 109.184 84.3183 108.638 83.9343 107.93C83.5623 107.21 83.3763 106.37 83.3763 105.41C83.3763 104.45 83.5623 103.616 83.9343 102.908C84.3183 102.188 84.8583 101.636 85.5543 101.252C86.2623 100.868 87.0783 100.676 88.0023 100.676C88.9143 100.676 89.7183 100.868 90.4143 101.252C91.1103 101.636 91.6443 102.188 92.0163 102.908C92.4003 103.616 92.5923 104.45 92.5923 105.41C92.5923 106.37 92.4003 107.21 92.0163 107.93C91.6443 108.638 91.1103 109.184 90.4143 109.568C89.7183 109.952 88.9143 110.144 88.0023 110.144ZM87.9843 108.38C88.7523 108.38 89.3343 108.134 89.7303 107.642C90.1383 107.138 90.3423 106.394 90.3423 105.41C90.3423 104.438 90.1383 103.7 89.7303 103.196C89.3223 102.68 88.7463 102.422 88.0023 102.422C87.2463 102.422 86.6643 102.68 86.2563 103.196C85.8483 103.7 85.6443 104.438 85.6443 105.41C85.6443 106.394 85.8423 107.138 86.2383 107.642C86.6463 108.134 87.2283 108.38 87.9843 108.38ZM108.846 100.91L105.282 110H103.32L101.07 104.042L98.8744 110H96.8944L93.3304 100.91H95.6344L97.9744 107.318L100.332 100.91H101.952L104.31 107.372L106.65 100.91H108.846Z" fill="#9D9F9F"/>
<g filter="url(#filter0_d)">
<circle cx="61.1744" cy="43.7076" r="42.2462" fill="#0489C7"/>
</g>
<path d="M77.7589 48.384H64.8309V61.312H59.1989V48.384H46.2709V42.688H59.1989V29.76H64.8309V42.688H77.7589V48.384Z" fill="white"/>
<defs>
<filter id="filter0_d" x="8.92822" y="1.46143" width="104.492" height="104.492" filterUnits="userSpaceOnUse" color-interpolation-filters="sRGB">
<feFlood flood-opacity="0" result="BackgroundImageFix"/>
<feColorMatrix in="SourceAlpha" type="matrix" values="0 0 0 0 0 0 0 0 0 0 0 0 0 0 0 0 0 0 127 0"/>
<feOffset dy="10"/>
<feGaussianBlur stdDeviation="5"/>
<feColorMatrix type="matrix" values="0 0 0 0 0.0752431 0 0 0 0 0.583774 0 0 0 0 0.820833 0 0 0 0.08 0"/>
<feBlend mode="normal" in2="BackgroundImageFix" result="effect1_dropShadow"/>
<feBlend mode="normal" in="SourceGraphic" in2="effect1_dropShadow" result="shape"/>
</filter>
</defs>
</svg>
