<svg width="750" height="500" viewBox="0 0 750 500" fill="none" xmlns="http://www.w3.org/2000/svg">
<path d="M232.66 165.23H79.34V268.55H232.66V165.23Z" fill="white"/>
<path d="M233.15 269.05H78.84V164.73H233.15V269.05ZM79.84 268.05H232.15V165.73H79.84V268.05Z" fill="#EBEBEB"/>
<path d="M94.15 173.05C94.15 173.748 93.9429 174.431 93.5551 175.011C93.1672 175.592 92.6159 176.044 91.9708 176.311C91.3258 176.578 90.616 176.648 89.9313 176.512C89.2465 176.376 88.6176 176.04 88.1239 175.546C87.6302 175.052 87.294 174.423 87.1578 173.739C87.0216 173.054 87.0915 172.344 87.3587 171.699C87.6258 171.054 88.0783 170.503 88.6588 170.115C89.2393 169.727 89.9218 169.52 90.62 169.52C91.5562 169.52 92.4541 169.892 93.1161 170.554C93.7781 171.216 94.15 172.114 94.15 173.05Z" fill="#37474F"/>
<path d="M108.57 173.05C108.57 173.748 108.363 174.431 107.975 175.011C107.587 175.592 107.036 176.044 106.391 176.311C105.746 176.578 105.036 176.648 104.351 176.512C103.667 176.376 103.038 176.04 102.544 175.546C102.05 175.052 101.714 174.423 101.578 173.739C101.442 173.054 101.511 172.344 101.779 171.699C102.046 171.054 102.498 170.503 103.079 170.115C103.659 169.727 104.342 169.52 105.04 169.52C105.976 169.52 106.874 169.892 107.536 170.554C108.198 171.216 108.57 172.114 108.57 173.05Z" fill="#EBEBEB"/>
<path d="M123 173.05C123.002 173.751 122.796 174.437 122.408 175.02C122.019 175.604 121.467 176.059 120.819 176.329C120.172 176.598 119.459 176.669 118.772 176.532C118.084 176.396 117.453 176.059 116.957 175.563C116.461 175.067 116.124 174.436 115.988 173.748C115.851 173.06 115.922 172.348 116.191 171.701C116.461 171.053 116.916 170.501 117.499 170.112C118.083 169.724 118.769 169.518 119.47 169.52C120.406 169.52 121.304 169.892 121.966 170.554C122.628 171.216 123 172.114 123 173.05Z" fill="#0489C7"/>
<path d="M232.66 180.3H79.34V181.3H232.66V180.3Z" fill="#EBEBEB"/>
<path d="M694.65 237.31H541.33V340.63H694.65V237.31Z" fill="white"/>
<path d="M695.15 341.13H540.83V236.81H695.15V341.13ZM541.83 340.13H694.15V237.81H541.83V340.13Z" fill="#EBEBEB"/>
<path d="M556.14 245.13C556.14 245.828 555.933 246.511 555.545 247.091C555.157 247.672 554.606 248.124 553.961 248.391C553.316 248.658 552.606 248.728 551.921 248.592C551.237 248.456 550.608 248.12 550.114 247.626C549.62 247.132 549.284 246.503 549.148 245.819C549.012 245.134 549.082 244.424 549.349 243.779C549.616 243.134 550.068 242.583 550.649 242.195C551.229 241.807 551.912 241.6 552.61 241.6C553.546 241.6 554.444 241.972 555.106 242.634C555.768 243.296 556.14 244.194 556.14 245.13Z" fill="#37474F"/>
<path d="M570.56 245.13C570.56 245.827 570.354 246.508 569.967 247.088C569.58 247.668 569.031 248.12 568.388 248.388C567.744 248.656 567.036 248.728 566.352 248.594C565.668 248.46 565.039 248.127 564.544 247.636C564.05 247.146 563.711 246.52 563.571 245.837C563.432 245.154 563.498 244.445 563.76 243.8C564.023 243.154 564.47 242.601 565.047 242.209C565.624 241.818 566.303 241.606 567 241.6C567.466 241.596 567.928 241.684 568.36 241.86C568.792 242.036 569.184 242.295 569.515 242.623C569.846 242.951 570.109 243.342 570.288 243.772C570.468 244.202 570.56 244.664 570.56 245.13Z" fill="#EBEBEB"/>
<path d="M585 245.13C585 245.828 584.793 246.511 584.405 247.091C584.017 247.672 583.466 248.124 582.821 248.391C582.176 248.658 581.466 248.728 580.781 248.592C580.097 248.456 579.468 248.12 578.974 247.626C578.48 247.132 578.144 246.503 578.008 245.819C577.872 245.134 577.941 244.424 578.209 243.779C578.476 243.134 578.928 242.583 579.509 242.195C580.089 241.807 580.772 241.6 581.47 241.6C582.406 241.6 583.304 241.972 583.966 242.634C584.628 243.296 585 244.194 585 245.13Z" fill="#0489C7"/>
<path d="M694.65 252.38H541.33V253.38H694.65V252.38Z" fill="#EBEBEB"/>
<path d="M187.08 266.63C187.081 268.762 186.662 270.873 185.847 272.842C185.032 274.812 183.837 276.602 182.329 278.109C180.822 279.617 179.032 280.812 177.062 281.627C175.093 282.442 172.982 282.861 170.85 282.86C170.56 282.86 170.29 282.86 170.02 282.86L141.14 282.92C136.904 282.815 132.877 281.058 129.918 278.025C126.959 274.992 125.303 270.922 125.303 266.685C125.303 262.448 126.959 258.378 129.918 255.345C132.877 252.312 136.904 250.555 141.14 250.45H169.75C170.12 250.45 170.48 250.45 170.85 250.45C175.145 250.453 179.264 252.156 182.306 255.189C185.347 258.221 187.064 262.335 187.08 266.63Z" fill="#A6A6A6"/>
<path d="M141.32 267.16C141.349 266.555 141.547 265.969 141.89 265.47C142.03 265.24 142.19 265.02 142.34 264.8L143.34 263.8C143.71 263.53 144.09 263.24 144.47 262.99C146.038 261.99 147.788 261.311 149.62 260.99C153.839 260.15 158.181 260.15 162.4 260.99C164.204 261.321 165.926 262 167.47 262.99C167.88 263.26 168.26 263.56 168.65 263.84L169.65 264.78C169.9 265.144 170.131 265.521 170.34 265.91C170.503 266.307 170.64 266.715 170.75 267.13H170.46H162.39C162.32 267.154 162.243 267.154 162.173 267.131C162.103 267.107 162.042 267.061 162 267C161.774 266.557 161.435 266.182 161.017 265.914C160.598 265.645 160.117 265.492 159.62 265.47C157.189 265.315 154.751 265.315 152.32 265.47C151.823 265.49 151.34 265.642 150.922 265.911C150.503 266.18 150.164 266.556 149.94 267C149.87 267.11 149.82 267.19 149.66 267.19H141.33L141.32 267.16Z" fill="white"/>
<path d="M141.31 271.88V269C141.31 268.93 141.31 268.86 141.31 268.81H149.58C149.58 268.99 149.58 269.2 149.58 269.41C149.58 270.22 149.58 271.03 149.58 271.84C149.602 271.983 149.59 272.129 149.545 272.267C149.5 272.404 149.424 272.529 149.321 272.631C149.219 272.734 149.094 272.81 148.957 272.855C148.819 272.9 148.673 272.912 148.53 272.89H142.37C142.23 272.912 142.087 272.902 141.951 272.86C141.816 272.818 141.692 272.745 141.59 272.648C141.487 272.55 141.408 272.43 141.36 272.297C141.311 272.163 141.294 272.021 141.31 271.88Z" fill="white"/>
<path d="M162.37 271.92C162.37 270.92 162.37 269.85 162.45 268.82H170.6C170.6 268.87 170.6 268.94 170.6 269C170.6 270 170.6 270.93 170.6 271.9C170.616 272.035 170.601 272.172 170.557 272.301C170.512 272.43 170.439 272.546 170.343 272.643C170.246 272.739 170.13 272.812 170.001 272.857C169.872 272.901 169.735 272.916 169.6 272.9H163.36C163.227 272.916 163.092 272.901 162.966 272.858C162.839 272.814 162.724 272.743 162.629 272.649C162.533 272.554 162.461 272.44 162.416 272.314C162.371 272.188 162.355 272.053 162.37 271.92Z" fill="white"/>
<path d="M685.89 240.53C685.456 239.819 685.227 239.003 685.227 238.17C685.227 237.337 685.456 236.521 685.89 235.81C686.13 235.42 686.36 235.01 686.58 234.6C686.8 234.19 687.01 233.77 687.21 233.35C687.552 232.595 688.097 231.95 688.784 231.486C689.47 231.022 690.272 230.757 691.1 230.72L696.9 230.54L696.31 211.66L690.48 211.83C689.658 211.842 688.849 211.626 688.143 211.206C687.437 210.786 686.861 210.178 686.48 209.45C686.038 208.645 685.554 207.864 685.03 207.11C684.547 206.428 684.26 205.625 684.202 204.791C684.144 203.957 684.316 203.123 684.7 202.38L687.44 197.28L670.78 188.34L668.05 193.44C667.645 194.174 667.045 194.782 666.316 195.197C665.587 195.612 664.758 195.817 663.92 195.79C663.002 195.77 662.084 195.8 661.17 195.88C660.351 195.967 659.523 195.826 658.779 195.473C658.034 195.12 657.401 194.569 656.95 193.88L653.87 188.88L637.81 198.88L640.88 203.88C641.309 204.574 641.537 205.374 641.537 206.19C641.537 207.006 641.309 207.806 640.88 208.5C640.63 208.92 640.39 209.34 640.16 209.78C639.93 210.22 639.7 210.65 639.5 211.09C639.155 211.835 638.609 212.469 637.924 212.921C637.238 213.373 636.441 213.626 635.62 213.65L629.82 213.83L630.4 232.72L636.19 232.53C637.002 232.51 637.804 232.713 638.51 233.117C639.215 233.52 639.796 234.109 640.19 234.82C640.67 235.701 641.198 236.556 641.77 237.38C642.237 238.051 642.507 238.838 642.551 239.654C642.595 240.47 642.411 241.283 642.02 242L639.29 247.1L656 255.94L658.73 250.84C659.135 250.106 659.735 249.499 660.464 249.086C661.193 248.673 662.022 248.47 662.86 248.5C663.781 248.52 664.702 248.49 665.62 248.41C666.444 248.328 667.275 248.477 668.02 248.838C668.765 249.2 669.395 249.762 669.84 250.46L672.91 255.41L688.97 245.41L685.89 240.53ZM657.89 236.63C654.872 235.477 652.29 233.409 650.506 230.715C648.722 228.021 647.826 224.836 647.943 221.608C648.06 218.379 649.185 215.268 651.159 212.71C653.133 210.152 655.858 208.277 658.952 207.345C662.046 206.414 665.354 206.475 668.412 207.518C671.469 208.561 674.124 210.535 676.004 213.163C677.884 215.791 678.894 218.941 678.893 222.172C678.892 225.403 677.881 228.553 676 231.18C674.008 233.957 671.154 235.997 667.882 236.982C664.61 237.968 661.104 237.844 657.91 236.63H657.89Z" fill="#EBEBEB"/>
<path d="M619.1 184.67C618.599 184.372 618.19 183.942 617.918 183.427C617.647 182.912 617.523 182.331 617.56 181.75C617.56 181.42 617.56 181.1 617.56 180.75C617.56 180.4 617.56 180.09 617.56 179.75C617.52 179.171 617.642 178.592 617.912 178.078C618.182 177.564 618.59 177.135 619.09 176.84L622.61 174.84L616 163.38L612.48 165.38C611.972 165.666 611.395 165.806 610.813 165.785C610.231 165.764 609.665 165.582 609.18 165.26C608.629 164.896 608.058 164.562 607.47 164.26C606.95 164.002 606.511 163.605 606.204 163.112C605.897 162.619 605.733 162.051 605.73 161.47V157.41H592.49V161.47C592.487 162.051 592.323 162.619 592.016 163.112C591.709 163.605 591.27 164.002 590.75 164.26C590.164 164.56 589.597 164.894 589.05 165.26C588.563 165.584 587.996 165.767 587.412 165.788C586.828 165.81 586.249 165.668 585.74 165.38L582.23 163.38L575.61 174.85L579.14 176.85C579.641 177.145 580.05 177.573 580.322 178.087C580.594 178.601 580.718 179.18 580.68 179.76C580.68 180.08 580.68 180.4 580.68 180.76C580.68 181.12 580.68 181.41 580.68 181.76C580.718 182.342 580.593 182.924 580.319 183.44C580.045 183.955 579.634 184.385 579.13 184.68L575.61 186.68L582.23 198.14L585.73 196.14C586.236 195.85 586.813 195.707 587.396 195.726C587.978 195.746 588.544 195.927 589.03 196.25C589.586 196.612 590.16 196.946 590.75 197.25C591.27 197.51 591.708 197.91 592.015 198.404C592.323 198.898 592.487 199.468 592.49 200.05V204.1H605.73V200C605.733 199.418 605.897 198.848 606.204 198.354C606.512 197.86 606.95 197.46 607.47 197.2C608.061 196.898 608.635 196.564 609.19 196.2C609.676 195.877 610.242 195.696 610.824 195.676C611.407 195.657 611.984 195.8 612.49 196.09L616 198.09L622.61 186.63L619.1 184.67ZM599.1 191.67C596.958 191.66 594.868 191.017 593.091 189.821C591.314 188.625 589.931 186.929 589.116 184.949C588.301 182.968 588.091 180.791 588.511 178.691C588.931 176.591 589.964 174.662 591.478 173.148C592.992 171.634 594.921 170.601 597.021 170.181C599.121 169.761 601.299 169.971 603.279 170.786C605.26 171.601 606.955 172.984 608.151 174.761C609.347 176.537 609.99 178.628 610 180.77C610 182.197 609.718 183.611 609.171 184.929C608.624 186.247 607.822 187.445 606.811 188.453C605.801 189.461 604.601 190.259 603.281 190.803C601.961 191.346 600.547 191.624 599.12 191.62L599.1 191.67Z" fill="#EBEBEB"/>
<path d="M138.87 154L145.48 165.46L148.99 163.46C149.498 163.174 150.075 163.033 150.657 163.055C151.239 163.076 151.804 163.258 152.29 163.58C152.845 163.944 153.419 164.278 154.01 164.58C154.53 164.839 154.967 165.236 155.274 165.729C155.582 166.221 155.746 166.789 155.75 167.37V171.43H169V167.37C169.004 166.789 169.168 166.221 169.476 165.729C169.783 165.236 170.22 164.839 170.74 164.58C171.33 164.276 171.904 163.942 172.46 163.58C172.945 163.258 173.511 163.076 174.093 163.055C174.675 163.033 175.252 163.174 175.76 163.46L179.27 165.46L185.87 154L182.35 152C181.834 151.699 181.413 151.256 181.139 150.725C180.865 150.194 180.747 149.596 180.8 149C180.8 148.67 180.8 148.35 180.8 148C180.8 147.65 180.8 147.35 180.8 147C180.762 146.42 180.886 145.841 181.158 145.327C181.43 144.813 181.839 144.385 182.34 144.09L185.87 142.09L179.26 130.62L175.74 132.62C175.232 132.906 174.655 133.046 174.073 133.025C173.491 133.004 172.925 132.822 172.44 132.5C171.889 132.136 171.318 131.802 170.73 131.5C170.21 131.241 169.773 130.843 169.466 130.351C169.158 129.858 168.994 129.29 168.99 128.71V124.65H155.75V128.71C155.746 129.29 155.582 129.858 155.274 130.351C154.967 130.843 154.53 131.241 154.01 131.5C153.422 131.802 152.851 132.136 152.3 132.5C151.814 132.822 151.249 133.004 150.667 133.025C150.084 133.046 149.508 132.906 149 132.62L145.48 130.62L138.87 142.09L142.39 144.09C142.89 144.385 143.298 144.814 143.568 145.328C143.838 145.842 143.96 146.421 143.92 147C143.92 147.32 143.92 147.65 143.92 148C143.92 148.35 143.92 148.65 143.92 149C143.957 149.581 143.833 150.162 143.562 150.677C143.29 151.192 142.881 151.622 142.38 151.92L138.87 154ZM151.52 148C151.52 145.854 152.157 143.755 153.349 141.971C154.542 140.186 156.237 138.796 158.22 137.975C160.203 137.154 162.385 136.94 164.49 137.359C166.595 137.779 168.529 138.813 170.046 140.331C171.563 141.85 172.595 143.784 173.013 145.889C173.43 147.995 173.214 150.177 172.391 152.159C171.568 154.141 170.176 155.835 168.391 157.026C166.605 158.217 164.506 158.852 162.36 158.85C160.936 158.85 159.525 158.569 158.209 158.024C156.894 157.478 155.698 156.679 154.691 155.671C153.685 154.664 152.886 153.468 152.342 152.151C151.798 150.835 151.519 149.424 151.52 148Z" fill="#EBEBEB"/>
<path d="M403.007 164.444C410.854 132.926 391.664 101.015 360.146 93.1687C328.629 85.3221 296.717 104.511 288.871 136.029C281.024 167.547 300.214 199.458 331.731 207.305C363.249 215.151 395.16 195.962 403.007 164.444Z" fill="#EBEBEB"/>
<path d="M389.442 161.103C395.465 137.053 380.852 112.675 356.802 106.652C332.753 100.629 308.374 115.242 302.352 139.292C296.329 163.341 310.942 187.719 334.991 193.742C359.041 199.765 383.419 185.152 389.442 161.103Z" fill="white"/>
<path d="M377.043 158.071C381.374 140.891 370.958 123.453 353.779 119.122C336.599 114.791 319.161 125.206 314.83 142.386C310.498 159.566 320.914 177.004 338.094 181.335C355.274 185.666 372.712 175.25 377.043 158.071Z" fill="#EBEBEB"/>
<path d="M363.1 154.572C365.509 145.081 359.768 135.434 350.276 133.025C340.785 130.617 331.139 136.358 328.73 145.849C326.321 155.34 332.063 164.987 341.554 167.396C351.045 169.804 360.692 164.063 363.1 154.572Z" fill="white"/>
<path d="M353.711 152.215C354.805 147.923 352.214 143.556 347.922 142.461C343.63 141.367 339.263 143.958 338.168 148.25C337.073 152.542 339.665 156.909 343.957 158.004C348.249 159.098 352.616 156.507 353.711 152.215Z" fill="#EBEBEB"/>
<path d="M417.11 77.4038L349.744 144.77L351.363 146.389L418.73 79.0231L417.11 77.4038Z" fill="#C7C7C7"/>
<path d="M354.72 147.86L345.92 150.22L348.27 141.41L354.72 147.86Z" fill="#A6A6A6"/>
<path d="M429.19 73.8299L416.56 86.4599L406.65 89.4799L409.67 79.5799L422.31 66.9399L419.28 76.8499L429.19 73.8299Z" fill="#A6A6A6"/>
<path d="M45.3 391.02L127.73 390.78L210.15 390.69L375 390.52L539.85 390.69L622.27 390.78L704.7 391.02L622.27 391.27L539.85 391.35L375 391.52L210.15 391.35L127.73 391.26L45.3 391.02Z" fill="#263238"/>
<path d="M253.88 396.92H116.07L105.4 303.32H243.21L253.88 396.92Z" fill="#37474F"/>
<path d="M246.37 390.64H122.15L112.91 309.6H237.13L246.37 390.64Z" fill="white"/>
<path d="M331.78 390.64H190.33V396.92H331.78V390.64Z" fill="#37474F"/>
<path d="M331.77 390.64H260.58V396.92H331.77V390.64Z" fill="#263238"/>
<path d="M202.49 309.6L122.08 390.01L119.68 368.98L179.05 309.6H202.49Z" fill="#EBEBEB"/>
<path d="M244.27 372.18L225.81 390.64H202.37L241.87 351.14L244.27 372.18Z" fill="#EBEBEB"/>
<path d="M128.3 309.6L114.49 323.41L113.67 316.24L120.31 309.6H128.3Z" fill="#EBEBEB"/>
<path d="M240.33 337.62L187.31 390.64H179.31L239.51 330.44L240.33 337.62Z" fill="#EBEBEB"/>
<path d="M138.72 309.6L115.55 332.77L115.35 330.97L136.72 309.6H138.72Z" fill="#EBEBEB"/>
<path d="M213.98 309.6L132.94 390.64H130.94L211.98 309.6H213.98Z" fill="#EBEBEB"/>
<path d="M238.98 325.77L174.11 390.64H172.11L238.78 323.97L238.98 325.77Z" fill="#EBEBEB"/>
<path d="M495.3 396.92H633.12L643.78 303.32H505.97L495.3 396.92Z" fill="#37474F"/>
<path d="M502.81 390.64H627.04L636.27 309.6H512.05L502.81 390.64Z" fill="white"/>
<path d="M558.86 390.64H417.41V396.92H558.86V390.64Z" fill="#37474F"/>
<path d="M488.6 390.64H417.41V396.92H488.6V390.64Z" fill="#263238"/>
<path d="M632.7 340.99L629.68 367.45L606.49 390.64H583.05L632.7 340.99Z" fill="#EBEBEB"/>
<path d="M588.65 309.6L507.62 390.64H502.81L505.21 369.61L565.22 309.6H588.65Z" fill="#EBEBEB"/>
<path d="M535.86 309.6L508.99 336.47L510.02 327.44L527.86 309.6H535.86Z" fill="#EBEBEB"/>
<path d="M624.25 309.6L543.21 390.64H535.21L616.25 309.6H624.25Z" fill="#EBEBEB"/>
<path d="M633.85 330.89L633.6 333.15L576.11 390.64H574.11L633.85 330.89Z" fill="#EBEBEB"/>
<path d="M632.64 309.6L551.61 390.64H549.61L630.65 309.6H632.64Z" fill="#EBEBEB"/>
<path d="M557.16 309.6L506.24 360.52L506.5 358.26L555.16 309.6H557.16Z" fill="#EBEBEB"/>
<path d="M244.12 256C261.21 290.51 286.52 325 293.3 331.46C311.52 348.94 360.16 361.51 374.5 361.91C380.69 362.08 389.25 320.96 384.68 316.17C380.11 311.38 320.06 298.31 316.84 295.85C314.61 294.1 286 266.87 267 250.7C243.37 230.61 239.63 246.9 244.12 256Z" fill="#F7A9A0"/>
<path d="M371.42 310.42L355.91 359.37C355.91 359.37 305.09 346 291.49 332.92C277.89 319.84 249.72 273.02 244.22 257.58C238.72 242.14 242.3 229.95 267.22 249.98C292.14 270.01 313.27 290.5 317.68 293.8C322.09 297.1 371.42 310.42 371.42 310.42Z" fill="#455A64"/>
<path d="M355.68 312.38C355.755 312.869 355.973 313.324 356.307 313.689C356.641 314.054 357.076 314.311 357.556 314.429C358.037 314.547 358.541 314.519 359.006 314.35C359.47 314.181 359.875 313.878 360.167 313.479C360.46 313.08 360.627 312.604 360.649 312.11C360.67 311.616 360.545 311.126 360.288 310.704C360.032 310.281 359.655 309.944 359.207 309.735C358.759 309.526 358.259 309.455 357.77 309.53C357.115 309.631 356.527 309.988 356.135 310.522C355.743 311.057 355.579 311.725 355.68 312.38Z" fill="#263238"/>
<path d="M343.23 308.79C343.303 309.28 343.52 309.736 343.853 310.103C344.186 310.469 344.62 310.728 345.101 310.847C345.581 310.966 346.086 310.94 346.552 310.772C347.018 310.604 347.423 310.301 347.716 309.902C348.009 309.504 348.178 309.027 348.2 308.532C348.222 308.038 348.097 307.548 347.84 307.124C347.584 306.701 347.207 306.364 346.759 306.155C346.31 305.945 345.809 305.874 345.32 305.95C344.996 305.999 344.685 306.111 344.405 306.28C344.124 306.45 343.88 306.672 343.686 306.936C343.492 307.2 343.351 307.5 343.273 307.818C343.195 308.136 343.18 308.466 343.23 308.79Z" fill="#263238"/>
<path d="M318.42 347.24C307.29 342.92 296.68 337.89 291.49 332.92C277.89 319.92 249.72 273.02 244.22 257.58C240.7 247.71 240.89 239.17 247.99 239.52L318.42 347.24Z" fill="#263238"/>
<path d="M163.06 390.62H291.36C291.88 385.93 265.48 255.2 252.91 238.81C250.22 235.3 241.35 234.33 233.82 235.27C231.853 235.494 229.909 235.889 228.01 236.45C227.949 236.477 227.886 236.497 227.82 236.51C226.285 236.95 224.84 237.658 223.55 238.6C202.58 255.37 162.05 389.47 163.06 390.62Z" fill="#455A64"/>
<path d="M242.47 268.39L247.93 257.77L254.97 265.45L253.25 273.1L246.29 273.99L242.47 268.39Z" fill="#263238"/>
<path d="M246.29 273.99L242.97 352.12L257.61 377.96L265.21 348.88L253.25 273.1L246.29 273.99Z" fill="#263238"/>
<path d="M246.09 256.35C244.09 256.27 230.67 245.79 226.55 237.62C226.27 237.06 227.31 231.3 228.24 224.23C228.78 219.94 229.24 215.15 229.44 210.75C229.44 209.84 232.49 211.61 232.49 211.61L238.14 213.17L256.84 218.38C256.84 218.38 253.84 227.52 253.6 235.2C253.591 235.809 253.635 236.418 253.73 237.02C253.737 237.12 253.737 237.22 253.73 237.32C254.21 240.77 249.4 256.48 246.09 256.35Z" fill="#F7A9A0"/>
<path d="M253.73 237C253.737 237.1 253.737 237.2 253.73 237.3C252.786 237.393 251.836 237.41 250.89 237.35C232.3 236.35 230.77 212.59 230.77 212.59L238.11 213.15L256.81 218.36C256.81 218.36 253.81 227.5 253.57 235.18C253.571 235.79 253.625 236.399 253.73 237Z" fill="#263238"/>
<path d="M225.1 178.39C222.29 188.24 228.01 216.45 235.1 222.63C245.37 231.63 261.93 232.15 269.47 219.85C276.78 207.94 268.69 171.31 260.79 165.72C249.17 157.49 229.24 163.83 225.1 178.39Z" fill="#F7A9A0"/>
<path d="M253 194.81C253 194.74 252.87 194.93 252.89 195C253.32 196.89 253.51 199.13 251.89 200.1C251.84 200.1 251.89 200.23 251.89 200.21C254 199.49 253.75 196.53 253 194.81Z" fill="#263238"/>
<path d="M250.94 193.16C247.84 193.53 248.81 199.71 251.68 199.37C254.55 199.03 253.54 192.84 250.94 193.16Z" fill="#263238"/>
<path d="M264.17 193.38C264.17 193.3 264.33 193.44 264.34 193.52C264.58 195.45 265.18 197.61 267.01 197.97C267.07 197.97 267.08 198.08 267.01 198.08C264.85 198.12 264.09 195.24 264.17 193.38Z" fill="#263238"/>
<path d="M265.56 191.11C268.56 190.39 269.82 196.53 267 197.19C264.18 197.85 263 191.71 265.56 191.11Z" fill="#263238"/>
<path d="M248.06 190.71C248.836 190.347 249.591 189.94 250.32 189.49C251.176 189.174 251.904 188.583 252.39 187.81C252.494 187.537 252.506 187.237 252.423 186.957C252.339 186.677 252.166 186.432 251.93 186.26C251.411 185.991 250.829 185.866 250.246 185.898C249.662 185.93 249.097 186.117 248.61 186.44C247.524 186.944 246.663 187.83 246.19 188.93C246.097 189.187 246.081 189.466 246.144 189.733C246.207 189.999 246.346 190.242 246.544 190.43C246.742 190.619 246.991 190.746 247.26 190.796C247.53 190.845 247.807 190.816 248.06 190.71Z" fill="#263238"/>
<path d="M267.46 187.62C266.58 187.62 265.77 187.46 264.91 187.37C263.996 187.409 263.095 187.141 262.35 186.61C262.145 186.402 262.015 186.131 261.983 185.841C261.95 185.551 262.016 185.258 262.17 185.01C262.545 184.562 263.033 184.222 263.583 184.026C264.133 183.829 264.726 183.782 265.3 183.89C266.498 183.934 267.637 184.418 268.5 185.25C268.683 185.453 268.803 185.705 268.847 185.974C268.89 186.244 268.855 186.521 268.745 186.771C268.635 187.021 268.456 187.234 268.228 187.385C268 187.535 267.733 187.617 267.46 187.62Z" fill="#263238"/>
<path d="M254.05 212.86C254.58 213.23 255.14 213.78 255.84 213.73C256.557 213.606 257.239 213.33 257.84 212.92C257.853 212.915 257.866 212.914 257.879 212.917C257.892 212.92 257.904 212.927 257.914 212.936C257.923 212.946 257.93 212.958 257.933 212.971C257.936 212.984 257.935 212.997 257.93 213.01C257.717 213.429 257.394 213.782 256.996 214.032C256.598 214.282 256.14 214.42 255.67 214.43C255.263 214.389 254.876 214.228 254.56 213.969C254.243 213.709 254.01 213.362 253.89 212.97C253.84 212.87 254 212.8 254.05 212.86Z" fill="#263238"/>
<path d="M261.35 208.15C260.706 209.33 259.769 210.326 258.63 211.04C257.999 211.41 257.268 211.571 256.54 211.5C254.94 211.34 254.69 209.95 254.78 208.7C254.833 208.04 254.964 207.389 255.17 206.76C257.03 207.869 259.195 208.356 261.35 208.15Z" fill="white"/>
<path d="M255.17 206.81C255.781 207.488 256.525 208.032 257.357 208.409C258.188 208.786 259.088 208.987 260 209C260.799 209.025 261.597 208.934 262.37 208.73C262.52 208.705 262.668 208.665 262.81 208.61C262.94 208.61 263.07 208.54 263.22 208.48C263.318 208.443 263.401 208.376 263.457 208.287C263.513 208.199 263.539 208.094 263.53 207.99C263.524 207.924 263.507 207.86 263.48 207.8V207.63C263.29 206.15 262.79 203.93 262.79 203.93C263.37 204.12 266.31 204.93 266.15 204.16C264.77 197.84 263.23 190.82 260.52 184.82C260.502 184.78 260.469 184.748 260.429 184.731C260.389 184.713 260.343 184.711 260.301 184.724C260.259 184.738 260.224 184.766 260.202 184.804C260.179 184.842 260.172 184.887 260.18 184.93C261.26 191.05 263.42 196.93 264.62 203.08C263.57 202.777 262.483 202.622 261.39 202.62C261.19 202.72 262.39 206.9 262.46 207.57V207.64C260.03 208.35 258.04 207.89 255.38 206.64C255.16 206.52 255 206.67 255.17 206.81Z" fill="#263238"/>
<path d="M228.42 200.39C235.15 199.39 234.67 186.96 234.67 186.96C234.67 186.96 245.96 183.37 246.37 174.42C246.37 174.42 258.37 179.83 266.55 175.42C274.73 171.01 271.49 161.53 270.23 159.58C268.97 157.63 264.75 162.21 264.75 162.21C264.75 162.21 263.39 156.76 261.84 156.41C260.29 156.06 259.16 159.64 259.16 159.64C259.16 159.64 247.49 157.54 237.44 159.3C227.39 161.06 223.88 172 223.88 172C223.88 172 218.65 173.93 217.46 178C216.27 182.07 224.12 201 228.42 200.39Z" fill="#263238"/>
<path d="M232 187.44C241.12 187.32 246.19 180.51 246.24 171.75C246.246 171.732 246.258 171.717 246.273 171.706C246.288 171.695 246.306 171.69 246.325 171.69C246.344 171.69 246.362 171.695 246.377 171.706C246.392 171.717 246.404 171.732 246.41 171.75C247.31 179.75 241.16 189.75 231.97 187.86C231.71 187.8 231.72 187.44 232 187.44Z" fill="#263238"/>
<path d="M224.1 171.78C224.121 171.775 224.143 171.778 224.163 171.787C224.183 171.796 224.199 171.812 224.209 171.831C224.219 171.85 224.223 171.872 224.22 171.894C224.216 171.915 224.206 171.935 224.19 171.95C221.85 173.48 219.11 174.76 217.68 177.3C215.96 180.37 216.94 183.92 218.2 186.94C220.13 191.61 223.56 197.55 228.31 199.77C228.59 199.9 228.38 200.3 228.11 200.19C222.45 197.88 218.23 190.14 216.68 184.53C214.94 178.25 218.39 174 224.1 171.78Z" fill="#263238"/>
<path d="M256.54 175.49C260.83 177.29 266.69 176.49 270.16 173.27C274.38 169.27 272.59 164.02 269.89 159.79C269.76 159.59 270.05 159.3 270.23 159.49C273.6 163.06 274.71 169.07 271.36 173.05C268.01 177.03 260.97 178.05 256.24 176.05C255.85 175.92 256.14 175.32 256.54 175.49Z" fill="#263238"/>
<path d="M251.44 206C249.887 206.06 248.348 205.683 246.999 204.912C245.65 204.141 244.545 203.006 243.809 201.637C243.072 200.269 242.735 198.721 242.836 197.17C242.936 195.619 243.47 194.128 244.377 192.865C245.283 191.603 246.526 190.62 247.963 190.029C249.4 189.439 250.975 189.263 252.507 189.523C254.039 189.783 255.468 190.468 256.63 191.5C257.792 192.532 258.641 193.869 259.08 195.36C259.7 197.47 259.458 199.739 258.406 201.671C257.354 203.602 255.579 205.037 253.47 205.66C252.81 205.856 252.128 205.97 251.44 206ZM250.85 190.52C250.254 190.549 249.664 190.646 249.09 190.81C247.338 191.329 245.85 192.496 244.929 194.073C244.007 195.65 243.722 197.52 244.13 199.301C244.539 201.081 245.611 202.639 247.128 203.657C248.645 204.675 250.493 205.076 252.296 204.779C254.098 204.482 255.72 203.509 256.83 202.058C257.94 200.607 258.456 198.788 258.272 196.97C258.087 195.153 257.217 193.474 255.838 192.275C254.459 191.077 252.676 190.449 250.85 190.52Z" fill="#455A64"/>
<path d="M270.23 203C267.06 203.12 264.06 200 263.39 195.71C263.038 193.671 263.332 191.574 264.23 189.71C264.594 188.901 265.147 188.193 265.844 187.644C266.54 187.096 267.359 186.724 268.23 186.56C269.107 186.448 269.998 186.552 270.825 186.862C271.653 187.173 272.392 187.68 272.98 188.34C274.4 189.844 275.319 191.752 275.61 193.8C276.31 198.32 274.15 202.43 270.79 202.95C270.605 202.982 270.418 202.999 270.23 203ZM268.81 187.61H268.39C267.696 187.754 267.047 188.062 266.496 188.507C265.944 188.952 265.507 189.522 265.22 190.17C264.428 191.827 264.173 193.691 264.49 195.5C265.1 199.41 267.83 202.25 270.6 201.82C273.37 201.39 275.11 197.82 274.5 193.93C274.252 192.113 273.444 190.418 272.19 189.08C271.758 188.615 271.235 188.243 270.654 187.989C270.072 187.734 269.445 187.602 268.81 187.6V187.61Z" fill="#455A64"/>
<path d="M259 196.38L258.17 195.65C259.25 194.41 261.9 192.56 264.24 194.39L263.56 195.26C261.42 193.62 259.05 196.27 259 196.38Z" fill="#455A64"/>
<path d="M222.76 204.18L221.76 203.83C221.92 203.34 223.43 199.02 225.76 198.24C228.09 197.46 242.9 196.6 243.53 196.56L243.6 197.67C239.32 197.93 227.83 198.73 226.11 199.29C224.39 199.85 223.16 203 222.76 204.18Z" fill="#455A64"/>
<path d="M232.7 201.64C232.7 201.64 225.95 192.74 221.88 195.19C217.81 197.64 223.15 210.7 228.1 212.33C228.72 212.575 229.383 212.693 230.05 212.678C230.717 212.662 231.374 212.514 231.982 212.241C232.591 211.968 233.139 211.576 233.593 211.088C234.048 210.6 234.4 210.026 234.63 209.4L232.7 201.64Z" fill="#F7A9A0"/>
<path d="M223.51 198.9C223.43 198.9 223.42 199 223.51 199.03C226.99 200.28 228.91 203.38 230.3 206.61C229.23 205.39 227.82 204.75 226.17 206.02C226.156 206.037 226.147 206.058 226.144 206.08C226.142 206.103 226.147 206.125 226.158 206.145C226.169 206.164 226.185 206.18 226.205 206.19C226.225 206.2 226.248 206.203 226.27 206.2C226.864 205.987 227.51 205.963 228.119 206.131C228.728 206.299 229.27 206.652 229.67 207.14C230.337 207.957 230.911 208.846 231.38 209.79C231.56 210.09 232.1 209.9 231.97 209.55V209.48C231.82 205.12 228.2 199.15 223.51 198.9Z" fill="#263238"/>
<path d="M253.83 237.68L247.15 254.07L226.91 233.37L221.14 240C221.14 240 240.92 272.86 241.04 271.38L247.8 257.32L257.49 267.13L256.76 242.55L253.83 237.68Z" fill="#455A64"/>
<path d="M257.82 255C257.56 250.94 257.41 246.85 256.97 242.82C256.97 242.67 256.73 242.61 256.69 242.82C255.87 246.73 256.94 262.23 256.91 265.94C256.51 265.52 247.91 257.31 247.84 257.44C246.38 259.67 241.42 269.91 241.08 270.84C237.95 265.62 225.97 246.64 222.26 241.7C222.239 241.673 222.209 241.654 222.176 241.648C222.142 241.641 222.108 241.647 222.078 241.664C222.049 241.681 222.027 241.709 222.016 241.741C222.005 241.773 222.007 241.809 222.02 241.84C224.78 247.36 240.64 272.91 240.89 272.84C243.495 268.01 245.851 263.05 247.95 257.98C249.4 259.76 258.06 268.98 258.09 268.42C258.238 263.945 258.148 259.465 257.82 255Z" fill="#263238"/>
<path d="M295.77 408.66L195.86 418.55L195.54 341.1L295.45 331.2L295.77 408.66Z" fill="#0489C7"/>
<path d="M228.15 329.3L195.45 332.54L195.54 341.1L230.53 337.63L228.15 329.3Z" fill="#0489C7"/>
<g opacity="0.1">
<path opacity="0.1" d="M295.77 408.66L195.86 418.55L195.54 341.1L295.45 331.2L295.77 408.66Z" fill="black"/>
<path opacity="0.1" d="M228.15 329.3L195.45 332.54L195.54 341.1L230.53 337.63L228.15 329.3Z" fill="black"/>
</g>
<path d="M295.7 408.67L199.34 418.21L185.56 340.54L288.27 331.92L295.7 408.67Z" fill="#EBEBEB"/>
<path d="M295.7 408.67L196.89 418.45L182.12 343.8L285.99 333.52L295.7 408.67Z" fill="white"/>
<path d="M295.52 408.69L195.4 418.6L180.78 345.56L280.91 335.65L295.52 408.69Z" fill="#0489C7"/>
<path d="M210.12 250.3C175.97 281.3 151.32 334.7 152.12 349.09C153.12 368.09 187.56 400.61 209.99 410.02C215.66 412.4 237.6 365.96 229.3 363.54C220.54 360.99 200.3 342.63 199.3 341.79C197.2 340.01 213.52 299.38 220.35 274.72C228 246.87 224.49 237.26 210.12 250.3Z" fill="#F7A9A0"/>
<path d="M197.27 402.92C219 418.6 248.52 422 253.61 421.48C257.96 421.05 260.19 420.79 260.19 420.79C268 420.18 270.8 416.48 270.8 416.48C270.8 416.48 280.04 418.42 282.14 413.04C284.52 407.04 271.08 405.45 264.22 400.04C248.49 387.73 229.57 365.83 225.39 361.83L197.27 402.92Z" fill="#F7A9A0"/>
<path d="M238.67 398.76C243.37 402.29 247.9 405.88 253.05 408.76C258.71 411.91 264.68 414 270.71 416.28C270.742 416.298 270.768 416.326 270.782 416.36C270.796 416.394 270.797 416.431 270.787 416.467C270.776 416.502 270.754 416.532 270.724 416.553C270.693 416.574 270.657 416.583 270.62 416.58C258.474 413.829 247.314 407.805 238.35 399.16C238.14 399 238.43 398.59 238.67 398.76Z" fill="#263238"/>
<path d="M229.86 407.18C234.62 410.36 243.03 415.9 260.24 420.61C260.3 420.61 260.29 420.72 260.24 420.71C249.006 419.304 238.384 414.803 229.56 407.71C229.27 407.45 229.54 407 229.86 407.18Z" fill="#263238"/>
<path d="M246.2 384.05C244.79 381.63 246.05 380.87 250.67 382.69C255.29 384.51 272.08 395.69 275.47 389.47C278.86 383.25 255 367.92 247 365.48C239 363.04 225.37 361.87 225.37 361.87C229.44 365.8 238.35 376.25 246.2 384.05Z" fill="#F7A9A0"/>
<path d="M198.05 406.41L225.26 360.74C225.26 360.74 199.8 342.88 199.68 341.1C199.56 339.32 217.57 290.1 223.01 265.88C228.45 241.66 225.76 230.11 201.92 257.11C178.08 284.11 147.51 329.54 149.13 349.01C150.75 368.48 198.05 406.41 198.05 406.41Z" fill="#455A64"/>
<path d="M218.49 289C217.49 290.73 216.44 292.43 215.55 294.21C215.25 294.79 214.96 295.37 214.67 295.95C214.89 295.25 215.12 294.56 215.35 293.86C216.74 289.47 218.09 285.06 219.27 280.6C219.279 280.575 219.278 280.547 219.267 280.523C219.256 280.498 219.235 280.479 219.21 280.47C219.185 280.461 219.157 280.462 219.133 280.473C219.108 280.484 219.089 280.505 219.08 280.53C215.94 288.09 213.34 295.88 210.76 303.65C208.18 311.42 205.76 319.35 203.4 327.25C202.1 331.67 200.76 336.11 199.74 340.6C199.746 340.615 199.756 340.629 199.769 340.638C199.783 340.647 199.799 340.652 199.815 340.652C199.831 340.652 199.847 340.647 199.861 340.638C199.874 340.629 199.884 340.615 199.89 340.6C201.39 336.75 202.66 332.8 203.96 328.88C205.26 324.96 206.58 321.05 207.85 317.13C209.85 310.87 211.85 304.607 213.85 298.34C214.705 297.166 215.436 295.906 216.03 294.58C216.96 292.76 217.7 290.86 218.52 289H218.49Z" fill="#263238"/>
<path d="M193.22 394.94C193.066 395.41 193.055 395.915 193.189 396.391C193.322 396.868 193.594 397.294 193.969 397.616C194.345 397.937 194.808 398.141 195.299 398.199C195.79 398.258 196.287 398.17 196.728 397.946C197.169 397.722 197.534 397.372 197.776 396.941C198.018 396.51 198.127 396.016 198.089 395.523C198.05 395.03 197.866 394.56 197.561 394.171C197.255 393.782 196.84 393.493 196.37 393.34C195.74 393.138 195.056 393.192 194.466 393.492C193.876 393.791 193.428 394.312 193.22 394.94Z" fill="#263238"/>
<path d="M183.71 386.15C183.558 386.62 183.549 387.125 183.684 387.601C183.819 388.076 184.092 388.501 184.468 388.822C184.845 389.142 185.308 389.344 185.799 389.401C186.29 389.459 186.787 389.369 187.227 389.144C187.667 388.919 188.031 388.569 188.272 388.137C188.513 387.706 188.62 387.212 188.581 386.72C188.542 386.227 188.357 385.757 188.051 385.369C187.745 384.981 187.33 384.692 186.86 384.54C186.547 384.439 186.218 384.4 185.891 384.426C185.563 384.452 185.244 384.542 184.951 384.692C184.659 384.842 184.399 385.047 184.186 385.297C183.973 385.548 183.811 385.837 183.71 386.15Z" fill="#263238"/>
<path d="M166.61 377.14C169.76 379.82 172.72 382.7 175.61 385.6C177.07 387.06 178.52 388.52 179.95 390C181.38 391.48 182.79 393 184.2 394.51C180.944 391.993 177.87 389.25 175 386.3C172.038 383.403 169.237 380.345 166.61 377.14Z" fill="#263238"/>
<path d="M515 171C517.14 164.12 526.5 149 541.61 153.55C563.12 160.05 562.3 202.71 572 217C589.56 242.8 588 266.54 571.36 268.79C552.75 271.3 536.88 250.09 541.55 207.87C544.47 181.47 538.12 169.05 532.78 169.34C527.44 169.63 523.9 176 523.9 176L515 171Z" fill="#263238"/>
<path d="M515.93 168.41C517.326 165.243 519.102 162.257 521.22 159.52C523.348 156.7 526.043 154.357 529.13 152.64C532.311 150.895 535.96 150.195 539.56 150.64C543.152 151.08 546.583 152.384 549.56 154.44C552.431 156.555 554.817 159.259 556.56 162.37C558.278 165.424 559.641 168.665 560.62 172.03C562.449 178.692 563.522 185.538 563.82 192.44C562.778 185.666 561.227 178.981 559.18 172.44C558.099 169.249 556.695 166.176 554.99 163.27C553.328 160.402 551.083 157.915 548.4 155.97C545.7 154.084 542.592 152.864 539.33 152.41C536.08 151.931 532.762 152.458 529.82 153.92C526.825 155.439 524.152 157.524 521.95 160.06C520.803 161.329 519.731 162.665 518.74 164.06C517.753 165.493 516.817 166.943 515.93 168.41Z" fill="#263238"/>
<path d="M542.78 193.24C542.61 197.46 541.97 201.64 541.5 205.82C541.03 210 540.44 214.16 540.04 218.33C539.64 222.5 539.38 226.68 539.41 230.85C539.365 234.999 539.73 239.143 540.5 243.22C541.205 247.262 542.671 251.134 544.82 254.63C547.098 258.048 549.958 261.04 553.27 263.47C556.585 265.938 560.436 267.586 564.51 268.28C566.556 268.637 568.641 268.724 570.71 268.54C571.747 268.443 572.776 268.276 573.79 268.04C574.834 267.831 575.844 267.478 576.79 266.99C574.951 268.078 572.909 268.778 570.79 269.05C568.677 269.385 566.529 269.446 564.4 269.23C562.26 268.982 560.158 268.475 558.14 267.72C556.126 266.939 554.207 265.933 552.42 264.72C550.626 263.51 548.951 262.13 547.42 260.6L546.31 259.43L545.24 258.22C544.515 257.403 543.847 256.538 543.24 255.63C540.924 251.966 539.332 247.893 538.55 243.63C536.95 235.16 537.44 226.56 538.5 218.2C539.03 214 539.76 209.84 540.5 205.7C541.24 201.56 542.18 197.41 542.78 193.24Z" fill="#263238"/>
<path d="M513.68 171C513.62 169 515.05 166.47 516.33 166.12C517.61 165.77 527.09 169.84 527.91 172.28C528.73 174.72 524.5 176.86 524.5 176.86L513.68 171Z" fill="#455A64"/>
<path d="M521 258.3C515.36 270.56 473.44 328.19 452.63 329.76C430.85 331.41 378.63 295.82 373.63 292.85C359.9 284.73 398.19 247.25 404.81 253.85C415.87 264.98 442.32 285.94 448.81 284.53C462.41 281.53 490.72 257.77 510.81 245.39C522.85 238 527.23 244.73 521 258.3Z" fill="#AD6359"/>
<path d="M376.88 294.76C374.52 293.19 355.46 282.6 348.31 272.4C344.53 267 335.8 251 338.8 248.24C341.54 245.76 345.01 249.57 345.01 249.57C345.01 249.57 341.22 242.36 345.07 238.96C348.92 235.56 354.45 242.29 354.45 242.29C354.45 242.29 351.1 234.6 355.18 231.49C359.26 228.38 363.68 236.06 363.68 236.06C363.68 236.06 360.29 229.18 364.73 228.06C370.08 226.67 374.9 240.06 380.08 245.22C381.25 246.39 405.61 267.22 405.61 267.22L376.88 294.76Z" fill="#AD6359"/>
<path d="M364 236.06C367.57 245.9 370.83 249.59 379 255.91C379.16 256.03 379 256.3 378.83 256.18C370.3 250.72 365.54 246.68 363.54 236.18C363.4 235.69 363.81 235.59 364 236.06Z" fill="#263238"/>
<path d="M354.75 242.24C359.34 252.14 362.85 256.17 370.89 263.42C371 263.52 370.84 263.72 370.72 263.63C362.23 257.18 357.58 253.05 354.28 242.55C354.13 242.08 354.54 241.79 354.75 242.24Z" fill="#263238"/>
<path d="M345.41 249.91C350.55 259.17 354.2 263.76 362.91 269.79C362.954 269.817 362.985 269.859 362.997 269.909C363.01 269.959 363.002 270.011 362.975 270.055C362.948 270.099 362.906 270.13 362.856 270.142C362.806 270.155 362.754 270.147 362.71 270.12C353.23 264.83 348.63 259.12 345.14 250.12C344.91 249.48 345.09 249.32 345.41 249.91Z" fill="#263238"/>
<path d="M413.86 264.19C413.86 264.19 408.46 252.24 404.92 247.51C401.38 242.78 381.74 230.02 378.74 234.11C374.87 239.38 384.74 248.99 390.22 253.06C390.22 253.06 381.22 265.26 386.86 273.69C392.5 282.12 413.86 264.19 413.86 264.19Z" fill="#AD6359"/>
<path d="M378.15 235.9C378.09 243.26 385.6 248.15 390.6 252.49C390.679 252.549 390.743 252.628 390.785 252.718C390.826 252.808 390.845 252.907 390.839 253.006C390.833 253.105 390.803 253.201 390.751 253.286C390.698 253.37 390.626 253.44 390.54 253.49C387.13 258.86 383.87 267.42 386.45 273.62C386.469 273.656 386.472 273.697 386.46 273.736C386.448 273.774 386.421 273.806 386.385 273.825C386.349 273.844 386.307 273.847 386.269 273.835C386.231 273.823 386.199 273.796 386.18 273.76C382.51 267.49 385.02 258.82 389.18 253.18C383.98 248.81 376.66 243.58 378.12 235.91C378.09 235.86 378.15 235.86 378.15 235.9Z" fill="#263238"/>
<path d="M520.43 261.78C513.9 274.78 475.84 330.29 455.28 331.17C434.72 332.05 391.66 314.51 391.66 314.51L423.56 265.92C423.56 265.92 445.65 281.86 449.12 281.98C452.59 282.1 499 251.47 509.8 244.73C520.6 237.99 531 240.62 520.43 261.78Z" fill="#0489C7"/>
<path d="M420.79 314.87C420.636 313.391 420.673 311.899 420.9 310.43C421.084 308.956 421.454 307.511 422 306.13C422.154 307.609 422.117 309.101 421.89 310.57C421.703 312.043 421.334 313.488 420.79 314.87Z" fill="white"/>
<path d="M484.3 305.14C484.151 303.661 484.188 302.17 484.41 300.7C484.593 299.225 484.966 297.78 485.52 296.4C485.772 299.368 485.355 302.355 484.3 305.14Z" fill="white"/>
<path d="M487.82 268.17C486.341 268.321 484.849 268.28 483.38 268.05C481.905 267.873 480.459 267.503 479.08 266.95C480.559 266.801 482.05 266.838 483.52 267.06C484.995 267.244 486.44 267.617 487.82 268.17Z" fill="white"/>
<path d="M436.63 284.94C435.154 285.086 433.666 285.046 432.2 284.82C430.724 284.645 429.278 284.275 427.9 283.72C429.375 283.571 430.864 283.608 432.33 283.83C433.805 284.013 435.251 284.386 436.63 284.94Z" fill="white"/>
<path d="M444.1 330.08C444.042 330.161 443.979 330.238 443.91 330.31H443.65L444.1 330.08Z" fill="white"/>
<path d="M408 297.42C409.91 295.149 412.301 293.332 415 292.1C414.061 293.252 412.979 294.28 411.78 295.16C410.622 296.072 409.352 296.832 408 297.42Z" fill="white"/>
<path d="M461.23 286.38C462.172 285.23 463.254 284.202 464.45 283.32C465.623 282.408 466.906 281.649 468.27 281.06C467.333 282.214 466.251 283.243 465.05 284.12C463.877 285.032 462.594 285.791 461.23 286.38Z" fill="white"/>
<path d="M443.57 301.62C445.853 303.518 447.673 305.912 448.89 308.62C446.612 306.717 444.794 304.324 443.57 301.62Z" fill="white"/>
<path d="M494.11 278.83C496.385 280.734 498.2 283.126 499.42 285.83C498.269 284.896 497.244 283.817 496.37 282.62C495.459 281.458 494.699 280.184 494.11 278.83Z" fill="white"/>
<path d="M430.47 273.81C426.47 281.08 422.58 288.42 418.24 295.5C414.045 302.57 409.479 309.413 404.56 316C404.538 316.021 404.509 316.033 404.479 316.036C404.449 316.039 404.418 316.033 404.392 316.017C404.366 316.001 404.346 315.977 404.335 315.949C404.324 315.92 404.322 315.889 404.33 315.86C408.17 308.61 412.56 301.61 416.83 294.61C421.1 287.61 425.72 280.67 430.01 273.61C430.18 273.33 430.62 273.53 430.47 273.81Z" fill="#263238"/>
<path d="M520.43 261.78C513.9 274.78 475.84 330.29 455.28 331.17C450.28 331.38 443.97 330.51 437.28 329.06C453.28 311.97 497.95 263.77 518.64 241.46C524.91 241.08 528 246.76 520.43 261.78Z" fill="#263238"/>
<path d="M482.5 390.62H603.17C603.17 390.62 556.25 271.83 531.26 247.93C524.47 241.44 507.69 241.93 499.47 252.88C492.73 261.88 474.02 297.62 473.17 310.49C472.32 323.36 482.41 336.05 482.41 336.05L482.5 390.62Z" fill="#0489C7"/>
<path d="M497.92 346.11C497.771 344.635 497.808 343.146 498.03 341.68C498.213 340.205 498.586 338.759 499.14 337.38C499.291 338.856 499.251 340.345 499.02 341.81C498.836 343.284 498.466 344.729 497.92 346.11Z" fill="white"/>
<path d="M580.84 368.47C580.704 366.979 580.758 365.477 581 364C581.183 362.525 581.556 361.079 582.11 359.7C582.261 361.179 582.22 362.671 581.99 364.14C581.792 365.626 581.405 367.081 580.84 368.47Z" fill="white"/>
<path d="M528.78 388C528.631 386.525 528.668 385.036 528.89 383.57C529.073 382.095 529.446 380.65 530 379.27C530.151 380.746 530.111 382.235 529.88 383.7C529.696 385.174 529.326 386.619 528.78 388Z" fill="white"/>
<path d="M516.78 298.34C516.634 296.864 516.675 295.376 516.9 293.91C517.075 292.434 517.445 290.988 518 289.61C518.264 292.575 517.847 295.561 516.78 298.34Z" fill="white"/>
<path d="M548.85 334.45C548.713 332.966 548.764 331.471 549 330C549.18 328.525 549.549 327.08 550.1 325.7C550.365 328.668 549.948 331.658 548.88 334.44L548.85 334.45Z" fill="white"/>
<path d="M484.3 305.14C484.151 303.661 484.188 302.17 484.41 300.7C484.593 299.225 484.966 297.78 485.52 296.4C485.772 299.368 485.355 302.355 484.3 305.14Z" fill="white"/>
<path d="M526.74 340.64C523.773 340.902 520.785 340.488 518 339.43C519.479 339.276 520.971 339.313 522.44 339.54C523.914 339.726 525.358 340.095 526.74 340.64Z" fill="white"/>
<path d="M563.14 306.13C561.661 306.279 560.17 306.242 558.7 306.02C557.225 305.837 555.78 305.464 554.4 304.91C557.368 304.658 560.355 305.075 563.14 306.13Z" fill="white"/>
<path d="M498.19 381.23C496.714 381.376 495.226 381.336 493.76 381.11C492.284 380.935 490.838 380.565 489.46 380.01C490.935 379.861 492.424 379.898 493.89 380.12C495.365 380.303 496.811 380.676 498.19 381.23Z" fill="white"/>
<path d="M565.9 351.33C564.421 351.484 562.929 351.447 561.46 351.22C559.986 351.034 558.542 350.665 557.16 350.12C558.639 349.966 560.131 350.003 561.6 350.23C563.074 350.416 564.518 350.785 565.9 351.33Z" fill="white"/>
<path d="M508.77 367.73C509.712 366.583 510.794 365.559 511.99 364.68C513.16 363.765 514.444 363.005 515.81 362.42C513.903 364.691 511.511 366.505 508.81 367.73H508.77Z" fill="white"/>
<path d="M554.4 376.45C555.337 375.295 556.419 374.267 557.62 373.39C558.793 372.478 560.076 371.719 561.44 371.13C559.537 373.408 557.144 375.226 554.44 376.45H554.4Z" fill="white"/>
<path d="M566.48 333.76C567.422 332.613 568.504 331.589 569.7 330.71C570.87 329.795 572.154 329.035 573.52 328.45C572.586 329.604 571.503 330.629 570.3 331.5C569.13 332.415 567.846 333.175 566.48 333.76Z" fill="white"/>
<path d="M494.43 318.42C495.372 317.27 496.454 316.242 497.65 315.36C498.823 314.448 500.106 313.689 501.47 313.1C500.533 314.254 499.451 315.283 498.25 316.16C497.077 317.072 495.794 317.831 494.43 318.42Z" fill="white"/>
<path d="M541.09 289C542.032 287.85 543.114 286.822 544.31 285.94C545.483 285.028 546.766 284.269 548.13 283.68C547.193 284.834 546.111 285.863 544.91 286.74C543.737 287.652 542.454 288.411 541.09 289Z" fill="white"/>
<path d="M485.61 353.56C484.683 354.689 483.618 355.697 482.44 356.56V355.34C483.424 354.625 484.488 354.028 485.61 353.56Z" fill="white"/>
<path d="M517.32 270.22C518.262 269.07 519.344 268.042 520.54 267.16C521.713 266.248 522.996 265.489 524.36 264.9C522.457 267.178 520.064 268.996 517.36 270.22H517.32Z" fill="white"/>
<path d="M477.53 324.51C478.68 325.452 479.708 326.534 480.59 327.73C481.502 328.903 482.261 330.186 482.85 331.55C480.573 329.647 478.754 327.254 477.53 324.55V324.51Z" fill="white"/>
<path d="M494.11 278.83C496.385 280.734 498.2 283.126 499.42 285.83C498.269 284.896 497.244 283.817 496.37 282.62C495.459 281.458 494.699 280.184 494.11 278.83Z" fill="white"/>
<path d="M536 352.7C538.271 354.607 540.085 356.999 541.31 359.7C540.178 358.757 539.17 357.675 538.31 356.48C537.38 355.325 536.604 354.054 536 352.7Z" fill="white"/>
<path d="M579.4 381.71C580.55 382.652 581.578 383.734 582.46 384.93C583.372 386.103 584.131 387.386 584.72 388.75C583.563 387.816 582.534 386.733 581.66 385.53C580.746 384.359 579.987 383.075 579.4 381.71Z" fill="white"/>
<path d="M535.15 257.26C537.425 259.164 539.24 261.557 540.46 264.26C538.185 262.356 536.37 259.964 535.15 257.26Z" fill="white"/>
<path d="M527.36 313.56C528.514 314.497 529.543 315.579 530.42 316.78C531.337 317.949 532.097 319.233 532.68 320.6C530.402 318.697 528.584 316.304 527.36 313.6V313.56Z" fill="white"/>
<path d="M523.24 249.08C522.58 250.87 512.24 261.66 503.91 260.17C501.19 259.68 503.19 244.73 503.19 244.73L503.09 243.59L501.64 227.67L521.33 218.36L524.16 217.16C524.16 217.16 524.27 221.54 524.35 227C524.35 227.26 524.35 227.51 524.35 227.78C524.35 228.05 524.35 228.38 524.35 228.67C524.35 229.48 524.35 230.32 524.35 231.15C524.35 231.78 524.35 232.39 524.35 233.06V235.06C524.308 239.754 523.937 244.438 523.24 249.08Z" fill="#AD6359"/>
<path d="M524.35 227C522.224 231.143 519.221 234.774 515.549 237.639C511.878 240.504 507.626 242.535 503.09 243.59L501.64 227.67L521.33 218.36L524.16 217.16C524.16 217.16 524.27 221.54 524.35 227Z" fill="#263238"/>
<path d="M481.38 204.21C479.16 232.21 495.66 236.68 501.7 237.15C507.17 237.58 525.88 238.35 530.98 210.75C536.08 183.15 523.78 173.28 511.31 171.63C498.84 169.98 483.61 176.23 481.38 204.21Z" fill="#AD6359"/>
<path d="M486.1 198.26C486.74 198.169 487.374 198.042 488 197.88C488.688 197.842 489.343 197.575 489.86 197.12C489.995 196.945 490.068 196.731 490.068 196.51C490.068 196.289 489.995 196.075 489.86 195.9C489.545 195.593 489.154 195.375 488.727 195.269C488.299 195.164 487.852 195.174 487.43 195.3C486.533 195.427 485.715 195.879 485.13 196.57C485.005 196.736 484.932 196.935 484.919 197.142C484.906 197.349 484.955 197.555 485.058 197.735C485.161 197.915 485.315 198.06 485.5 198.154C485.685 198.247 485.894 198.284 486.1 198.26Z" fill="#263238"/>
<path d="M504.72 198.66C504.07 198.58 503.47 198.39 502.83 198.25C502.142 198.194 501.492 197.913 500.98 197.45C500.845 197.275 500.772 197.061 500.772 196.84C500.772 196.619 500.845 196.405 500.98 196.23C501.302 195.928 501.699 195.717 502.13 195.62C502.561 195.524 503.01 195.544 503.43 195.68C504.323 195.814 505.132 196.278 505.7 196.98C505.818 197.148 505.885 197.345 505.894 197.55C505.902 197.755 505.852 197.957 505.749 198.134C505.646 198.311 505.494 198.455 505.311 198.548C505.129 198.641 504.924 198.68 504.72 198.66Z" fill="#263238"/>
<path d="M500.34 205.72C500.34 205.64 500.49 205.81 500.48 205.89C500.36 207.8 500.54 210 502.25 210.69C502.3 210.69 502.25 210.81 502.25 210.8C500.13 210.43 499.92 207.5 500.34 205.72Z" fill="#263238"/>
<path d="M502.11 203.78C505.19 203.64 505.23 209.78 502.38 209.94C499.53 210.1 499.53 203.89 502.11 203.78Z" fill="#263238"/>
<path d="M503.32 204.1C503.87 204.44 504.4 205.1 505.05 205.1C505.7 205.1 506.36 204.52 506.85 203.9C506.85 203.84 506.95 203.9 506.96 203.97C506.96 205.15 506.53 206.37 505.27 206.55C504.01 206.73 503.27 205.68 502.97 204.49C502.92 204.28 503.11 204 503.32 204.1Z" fill="#263238"/>
<path d="M489.73 205.29C489.73 205.22 489.59 205.39 489.59 205.47C489.68 207.38 489.46 209.58 487.74 210.24C487.68 210.24 487.69 210.35 487.74 210.34C489.86 210 490.12 207.09 489.73 205.29Z" fill="#263238"/>
<path d="M488 203.32C484.92 203.13 484.77 209.32 487.62 209.48C490.47 209.64 490.58 203.48 488 203.32Z" fill="#263238"/>
<path d="M486.7 203.7C486.21 204.01 485.7 204.59 485.13 204.62C484.56 204.65 483.97 203.96 483.56 203.31C483.51 203.25 483.46 203.31 483.46 203.38C483.4 204.56 483.76 205.79 484.88 206.05C486 206.31 486.69 205.29 487 204.12C487.06 203.91 486.9 203.57 486.7 203.7Z" fill="#263238"/>
<path d="M500.48 220.84C500.05 221.31 499.62 221.95 498.93 222.04C498.222 222.062 497.517 221.936 496.86 221.67C496.847 221.667 496.833 221.667 496.82 221.671C496.807 221.675 496.796 221.683 496.787 221.694C496.779 221.705 496.774 221.717 496.772 221.731C496.771 221.744 496.774 221.758 496.78 221.77C497.072 222.129 497.456 222.404 497.89 222.564C498.325 222.724 498.795 222.764 499.25 222.68C499.638 222.564 499.982 222.332 500.235 222.016C500.489 221.7 500.64 221.314 500.67 220.91C500.69 220.8 500.54 220.77 500.48 220.84Z" fill="#263238"/>
<path d="M492.53 213.88C492.53 213.88 492.12 216.74 492.11 218.08C492.11 218.21 492.44 218.27 492.89 218.3C492.89 218.3 492.89 218.3 492.95 218.3C494.103 218.519 495.293 218.416 496.391 218.001C497.489 217.586 498.45 216.877 499.17 215.95C499.185 215.923 499.19 215.893 499.186 215.863C499.181 215.833 499.168 215.805 499.146 215.784C499.125 215.762 499.097 215.749 499.067 215.744C499.037 215.74 499.007 215.745 498.98 215.76C497.254 216.923 495.199 217.498 493.12 217.4C493.03 217.03 493.99 212.54 493.77 212.52C492.725 212.614 491.696 212.842 490.71 213.2C491.4 207.2 493.03 201.43 493.62 195.48C493.632 195.434 493.625 195.384 493.601 195.343C493.576 195.302 493.536 195.272 493.49 195.26C493.444 195.248 493.394 195.255 493.353 195.279C493.312 195.304 493.282 195.344 493.27 195.39C491.13 201.39 490.19 208.2 489.33 214.39C489.21 215.11 492 214.11 492.53 213.88Z" fill="#263238"/>
<path d="M493.18 218C493.987 219.077 495.059 219.927 496.29 220.47C496.966 220.744 497.711 220.8 498.42 220.63C499.98 220.24 500.03 218.82 499.76 217.63C499.609 216.983 499.384 216.356 499.09 215.76C497.41 217.119 495.339 217.904 493.18 218Z" fill="#263238"/>
<path d="M496.29 220.49C496.966 220.764 497.711 220.82 498.42 220.65C499.98 220.26 500.03 218.84 499.76 217.65C498.1 217.77 496.45 218.88 496.29 220.49Z" fill="#EB9481"/>
<path d="M529.74 213.54C527.95 212.662 526.419 211.334 525.297 209.686C524.175 208.038 523.501 206.127 523.34 204.14C518.466 201.983 514.257 198.561 511.15 194.23C511.33 194.81 512.66 198.97 513.41 201.07C495.71 197.68 490.29 184.07 490.29 184.07C484.52 189.78 483.36 193.44 482.52 195.26C482.52 195.26 482.44 184.4 488.06 177.15C494.94 168.27 518.06 165.97 528.67 177.64C540.12 190.25 529.74 213.54 529.74 213.54Z" fill="#263238"/>
<path d="M500 198.08C502.839 199.649 505.896 200.785 509.07 201.45C504.081 200.077 499.578 197.334 496.07 193.53C494.581 191.912 493.304 190.111 492.27 188.17C491.059 186.092 490.27 183.794 489.95 181.41C489.95 181.373 489.935 181.337 489.909 181.311C489.883 181.285 489.847 181.27 489.81 181.27C489.773 181.27 489.737 181.285 489.711 181.311C489.685 181.337 489.67 181.373 489.67 181.41C489.735 183.804 490.202 186.17 491.05 188.41C491.978 190.595 493.304 192.589 494.96 194.29C496.439 195.792 498.122 197.077 499.96 198.11" fill="#263238"/>
<path d="M526.37 212.55C526.37 212.55 532.43 203.74 536.37 205.9C540.31 208.06 535.84 220.79 531.19 222.56C530.608 222.828 529.978 222.975 529.338 222.993C528.698 223.011 528.061 222.9 527.465 222.665C526.869 222.431 526.326 222.078 525.87 221.629C525.414 221.18 525.053 220.642 524.81 220.05L526.37 212.55Z" fill="#AD6359"/>
<path d="M535 209.52C535.08 209.52 535.09 209.61 535 209.64C531.74 210.99 530 214.04 528.85 217.19C529.85 215.97 531.14 215.3 532.77 216.45C532.85 216.51 532.77 216.64 532.68 216.62C532.107 216.436 531.491 216.433 530.917 216.612C530.342 216.791 529.837 217.143 529.47 217.62C528.877 218.437 528.368 219.311 527.95 220.23C527.8 220.53 527.27 220.37 527.38 220.04V219.96C527.36 215.83 530.56 210 535 209.52Z" fill="#263238"/>
<path d="M527.34 221.92C527.34 222.315 527.457 222.702 527.677 223.031C527.897 223.36 528.209 223.616 528.575 223.768C528.94 223.919 529.342 223.959 529.73 223.882C530.118 223.804 530.475 223.614 530.754 223.334C531.034 223.054 531.224 222.698 531.302 222.31C531.379 221.922 531.339 221.52 531.188 221.155C531.036 220.789 530.78 220.477 530.451 220.257C530.122 220.037 529.736 219.92 529.34 219.92C528.814 219.933 528.312 220.147 527.94 220.52C527.567 220.892 527.353 221.393 527.34 221.92Z" fill="white"/>
<path d="M494.09 254.79C494.09 254.79 488.37 271.05 498.72 272.2C509.07 273.35 536.1 253.36 536.1 253.36C536.1 253.36 528.6 241.22 516.62 242.52C506.67 243.59 494.09 254.79 494.09 254.79Z" fill="#AD6359"/>
<path d="M543 273.83C543 293.91 531.46 354.12 520.38 362.23C498.21 378.46 446.22 377.34 431.88 377.59C425.69 377.69 417.56 336.48 422.17 331.74C426.78 327 490.17 325.24 493.37 322.81C495.62 321.12 513.5 291.81 523.85 272.97C537.81 247.5 543 263.71 543 273.83Z" fill="#AD6359"/>
<path d="M433.17 329.54C433.17 329.54 414.46 327.47 402.17 326.7C395.3 326.26 383.47 326.57 378.28 328.55C370.52 331.55 339.97 348.92 344.02 356.42C347.69 363.2 357.02 355.7 357.02 355.7C357.02 355.7 346.02 362.94 351.76 368.56C357.5 374.18 368.76 363.26 368.76 363.26C368.76 363.26 356.57 370.14 363.24 375.56C369.03 380.25 383.31 369.03 383.31 369.03C383.31 369.03 369.73 374.86 375.19 380.25C381.19 386.25 404.74 372.07 404.74 372.07C420.05 377.17 429.93 378.16 441.65 377.42C443.77 377.29 433.17 329.54 433.17 329.54Z" fill="#AD6359"/>
<path d="M365.32 365.73L368.09 363.29C369.854 361.664 371.71 360.141 373.65 358.73C375.57 357.38 377.54 356.13 379.55 354.94C381.56 353.75 383.94 352.62 386.03 351.3C386.046 351.288 386.064 351.279 386.083 351.275C386.103 351.27 386.123 351.27 386.142 351.274C386.162 351.278 386.18 351.286 386.196 351.297C386.212 351.309 386.226 351.324 386.236 351.341C386.246 351.358 386.252 351.377 386.254 351.397C386.256 351.416 386.254 351.436 386.248 351.455C386.242 351.474 386.231 351.491 386.218 351.506C386.205 351.521 386.188 351.532 386.17 351.54C384.093 352.82 382.09 354.215 380.17 355.72C378.24 357.13 376.32 358.57 374.4 360C372.48 361.43 370.58 362.67 368.67 364C367.67 364.67 366.79 365.39 365.87 366.1C365.035 366.841 364.138 367.51 363.19 368.1C363.1 368.15 363.01 368.02 363.07 367.94C363.741 367.127 364.495 366.387 365.32 365.73Z" fill="#263238"/>
<path d="M354.76 357.25C356.03 355.6 363.02 349.9 364.89 348.55C368.505 345.922 372.374 343.664 376.44 341.81C376.469 341.802 376.501 341.804 376.529 341.815C376.557 341.826 376.581 341.846 376.597 341.872C376.613 341.898 376.62 341.929 376.616 341.959C376.613 341.989 376.601 342.018 376.58 342.04C372.97 344.68 369.32 347.26 365.67 349.85C363.88 351.11 355.96 357.1 355.05 357.62C354.83 357.75 354.63 357.43 354.76 357.25Z" fill="#263238"/>
<path d="M375 374C378.042 371.122 381.273 368.449 384.67 366C388.359 363.815 392.206 361.909 396.18 360.3C396.33 360.25 396.45 360.45 396.32 360.53C392.64 362.72 388.94 364.83 385.32 367.19C383.58 368.34 376.92 373.33 375.16 374.28C375.08 374.33 374.92 374.1 375 374Z" fill="#263238"/>
<path d="M445.79 380.62L428.69 326.28C428.69 326.28 490.91 322.28 492.93 321.28C494.95 320.28 517.13 281.05 525.93 265.81C534.73 250.57 548.29 256.81 543.22 291.24C538.13 325.83 532.53 352.71 524.78 360.71C515.34 370.39 480.94 380.39 445.79 380.62Z" fill="#0489C7"/>
<path d="M497.92 346.11C497.771 344.635 497.808 343.146 498.03 341.68C498.213 340.205 498.586 338.759 499.14 337.38C499.291 338.856 499.251 340.345 499.02 341.81C498.836 343.284 498.466 344.729 497.92 346.11Z" fill="white"/>
<path d="M463.54 377.21C463.386 375.731 463.423 374.239 463.65 372.77C463.837 371.297 464.206 369.852 464.75 368.47C464.904 369.949 464.867 371.441 464.64 372.91C464.456 374.384 464.086 375.829 463.54 377.21Z" fill="white"/>
<path d="M516.78 298.34C516.634 296.864 516.675 295.376 516.9 293.91C517.075 292.434 517.445 290.988 518 289.61C518.264 292.575 517.847 295.561 516.78 298.34Z" fill="white"/>
<path d="M526.74 340.64C523.773 340.902 520.785 340.488 518 339.43C519.479 339.276 520.971 339.313 522.44 339.54C523.914 339.726 525.358 340.095 526.74 340.64Z" fill="white"/>
<path d="M467 342.35C465.521 342.504 464.029 342.467 462.56 342.24C461.086 342.056 459.641 341.686 458.26 341.14C459.739 340.986 461.231 341.023 462.7 341.25C464.173 341.437 465.618 341.806 467 342.35Z" fill="white"/>
<path d="M508.77 367.73C509.712 366.583 510.794 365.559 511.99 364.68C513.16 363.765 514.444 363.005 515.81 362.42C513.903 364.691 511.511 366.505 508.81 367.73H508.77Z" fill="white"/>
<path d="M437.06 335.39C438.002 334.243 439.084 333.219 440.28 332.34C441.45 331.425 442.734 330.665 444.1 330.08C443.165 331.234 442.083 332.259 440.88 333.13C439.71 334.045 438.426 334.805 437.06 335.39Z" fill="white"/>
<path d="M501.47 313.1C500.533 314.254 499.451 315.283 498.25 316.16C497.343 316.849 496.38 317.462 495.37 317.99C495.68 317.51 496.02 316.99 496.37 316.41C496.78 316.05 497.21 315.7 497.64 315.41C498.813 314.48 500.1 313.704 501.47 313.1Z" fill="white"/>
<path d="M543.79 286.39C543.79 286.81 543.71 287.23 543.66 287.66C542.852 288.206 541.991 288.668 541.09 289.04C541.888 288.058 542.794 287.17 543.79 286.39Z" fill="white"/>
<path d="M478.57 358.88C479.512 357.73 480.594 356.702 481.79 355.82C482.963 354.908 484.246 354.149 485.61 353.56C484.673 354.714 483.591 355.743 482.39 356.62C481.217 357.532 479.934 358.291 478.57 358.88Z" fill="white"/>
<path d="M477.53 324.51C478.68 325.452 479.708 326.534 480.59 327.73C481.502 328.903 482.261 330.186 482.85 331.55C480.573 329.647 478.754 327.254 477.53 324.55V324.51Z" fill="white"/>
<path d="M540.46 264.29C539.311 263.354 538.286 262.275 537.41 261.08C536.662 260.11 536.012 259.069 535.47 257.97C535.653 257.96 535.837 257.96 536.02 257.97C536.812 258.733 537.541 259.559 538.2 260.44C539.116 261.621 539.875 262.915 540.46 264.29Z" fill="white"/>
<path d="M527.36 313.56C528.514 314.497 529.543 315.579 530.42 316.78C531.337 317.949 532.097 319.233 532.68 320.6C530.402 318.697 528.584 316.304 527.36 313.6V313.56Z" fill="white"/>
<path d="M512.41 288.78C510.41 291.78 508.5 294.96 506.63 298.09L506.47 298.35C506.56 298.11 506.66 297.87 506.75 297.64C507.36 296.08 507.9 294.49 508.56 292.96C508.56 292.87 508.47 292.79 508.43 292.88C507.75 294.39 507 295.88 506.36 297.39C505.93 298.39 505.54 299.46 505.17 300.51C503.78 302.83 502.39 305.15 501.02 307.51C499.18 310.65 497.35 313.81 495.5 316.95C495.04 317.72 494.6 318.49 494.13 319.26C493.801 319.942 493.226 320.474 492.52 320.75C491.684 320.949 490.829 321.062 489.97 321.09C489.06 321.18 488.15 321.29 487.24 321.4C483.1 321.91 478.99 322.59 474.85 323.13C474.75 323.13 474.75 323.3 474.85 323.29C478.65 323 482.46 322.86 486.26 322.55C488.14 322.4 490.02 322.27 491.88 322.03C492.6 321.992 493.294 321.749 493.88 321.33C494.395 320.862 494.819 320.303 495.13 319.68C498.897 313.16 502.663 306.637 506.43 300.11C508.56 296.41 510.72 292.73 512.68 288.94C512.701 288.904 512.707 288.861 512.697 288.821C512.687 288.781 512.661 288.746 512.625 288.725C512.589 288.704 512.546 288.698 512.506 288.708C512.466 288.718 512.431 288.744 512.41 288.78Z" fill="#263238"/>
<path d="M543.31 303.29C543.118 304.536 542.82 305.764 542.42 306.96C542.12 308.03 541.83 309.1 541.51 310.16C541.19 311.22 540.72 312.55 540.31 313.74C541.15 308.447 541.817 303.113 542.31 297.74C542.31 297.58 542.05 297.55 542.02 297.74C541.02 305.21 539.65 312.65 538.08 320.01C536.51 327.37 534.61 334.72 532.46 341.95C531.4 345.51 530.28 349.06 529.04 352.56C528.071 355.626 526.597 358.509 524.68 361.09C522.412 363.667 519.573 365.677 516.39 366.96C513.075 368.485 509.676 369.821 506.21 370.96C498.33 373.54 490.21 375.18 482.15 377.11C482.06 377.11 482.08 377.28 482.15 377.27C489.547 376.236 496.874 374.754 504.09 372.83C507.745 371.856 511.336 370.654 514.84 369.23C518.05 367.89 521.36 366.44 523.95 364.06C526.32 361.725 528.15 358.899 529.31 355.78C530.66 352.51 531.72 349.11 532.77 345.78C535.07 338.4 536.99 330.96 538.56 323.39C539.007 321.197 539.423 319 539.81 316.8C540.709 314.709 541.438 312.548 541.99 310.34C542.29 309.19 542.58 308.04 542.81 306.87C543.04 305.7 543.11 304.48 543.44 303.35C543.49 303.2 543.32 303.17 543.31 303.29Z" fill="#263238"/>
<path d="M456.61 376.24C453.79 368.43 450.81 360.68 448.34 352.76C445.779 344.945 443.633 337.001 441.91 328.96C441.91 328.929 441.921 328.9 441.94 328.876C441.958 328.852 441.984 328.835 442.014 328.827C442.043 328.819 442.074 328.821 442.102 328.832C442.131 328.844 442.154 328.864 442.17 328.89C445.1 336.55 447.48 344.46 449.94 352.28C452.4 360.1 454.58 368.15 457.07 376.03C457.16 376.33 456.73 376.54 456.61 376.24Z" fill="#263238"/>
<path d="M446.13 325C444.641 324.92 443.149 324.92 441.66 325C440.17 325 438.66 325.1 437.19 325.16C434.19 325.29 431.24 325.51 428.27 325.76C428.212 325.762 428.155 325.777 428.104 325.805C428.053 325.833 428.008 325.871 427.974 325.919C427.941 325.966 427.918 326.021 427.909 326.078C427.899 326.135 427.903 326.194 427.92 326.25C428.282 327.351 428.793 328.398 429.44 329.36C429.49 329.41 429.59 329.36 429.59 329.31C429.459 328.336 429.197 327.384 428.81 326.48C431.65 326.29 434.49 326.12 437.33 325.9L441.79 325.58C443.24 325.46 444.72 325.42 446.16 325.19C446.28 325.19 446.23 325 446.13 325Z" fill="#263238"/>
<path d="M379 313.36C382.71 315.2 399.66 315.9 404.6 321.98C407.89 325.98 407.6 330.11 409.48 342.18C411.15 352.66 402.48 350.18 399.97 344.8C396.05 336.37 392.68 327.13 392.68 327.13C389.787 326.987 386.888 327.03 384 327.26L379 313.36Z" fill="#F7A9A0"/>
<path d="M391.18 353C397.05 349.28 415.82 373 406.44 379.25C397.06 385.5 384.53 357.2 391.18 353Z" fill="#F7A9A0"/>
<path d="M381.67 358C387.53 354.28 406.31 378 396.93 384.25C387.55 390.5 375 362.25 381.67 358Z" fill="#F7A9A0"/>
<path d="M374.93 359C380.78 356.43 394.55 380.58 385.15 385C375.75 389.42 368.31 361.87 374.93 359Z" fill="#F7A9A0"/>
<path d="M368 358.3C374.15 357.57 380.13 383.87 370.16 385.3C360.19 386.73 361.07 359.13 368 358.3Z" fill="#F7A9A0"/>
<path d="M389.84 361.19C390.916 362.377 391.893 363.652 392.76 365C393.76 366.41 394.69 367.84 395.53 369.34C396.349 370.769 397.083 372.245 397.73 373.76C398.39 375.37 398.85 377.09 399.56 378.68C399.569 378.697 399.574 378.717 399.575 378.736C399.576 378.756 399.573 378.775 399.566 378.793C399.559 378.812 399.548 378.828 399.534 378.842C399.52 378.856 399.504 378.867 399.485 378.874C399.467 378.881 399.448 378.884 399.428 378.883C399.408 378.882 399.389 378.877 399.372 378.868C399.354 378.859 399.339 378.847 399.327 378.832C399.314 378.816 399.305 378.799 399.3 378.78C398.616 377.231 397.821 375.734 396.92 374.3C396.09 372.85 395.34 371.36 394.53 369.9C393.72 368.44 392.99 367.04 392.18 365.63C391.37 364.22 390.4 362.82 389.65 361.33C389.638 361.305 389.635 361.276 389.641 361.249C389.648 361.222 389.664 361.198 389.687 361.181C389.709 361.164 389.737 361.156 389.765 361.158C389.793 361.159 389.82 361.171 389.84 361.19Z" fill="#263238"/>
<path d="M380.07 361.06C380.67 362.84 382.69 369.64 383.37 371.4C384.05 373.16 384.8 374.92 385.57 376.66C386.34 378.4 387 380.29 388 382C388.009 382.031 388.006 382.063 387.994 382.092C387.982 382.121 387.96 382.146 387.932 382.161C387.904 382.176 387.872 382.181 387.841 382.175C387.809 382.17 387.781 382.154 387.76 382.13C386.82 380.43 385.76 378.85 384.86 377.13C383.96 375.41 383.25 373.64 382.56 371.84C381.425 368.333 380.506 364.76 379.81 361.14C379.76 360.92 380 360.91 380.07 361.06Z" fill="#263238"/>
<path d="M372.7 362.75C373.17 365.29 373.48 367.86 373.96 370.4C374.19 371.65 374.44 372.9 374.67 374.16C374.78 374.76 374.88 375.37 374.99 375.98C375.048 376.685 375.179 377.382 375.38 378.06C375.45 378.23 375.13 378.31 375.11 378.06C374.926 377.3 374.685 376.554 374.39 375.83C374.22 375.24 374.05 374.66 373.9 374.06C373.59 372.82 373.34 371.58 373.14 370.31C372.69 367.82 372.43 365.299 372.36 362.77C372.36 362.61 372.67 362.56 372.7 362.75Z" fill="#263238"/>
<path d="M464.21 194.59C466.687 190.911 468.026 186.585 468.06 182.15C468.06 166.39 450.75 153.62 429.42 153.62C408.09 153.62 390.81 166.39 390.81 182.15C390.81 197.91 408.09 210.68 429.42 210.68C439.77 210.68 449.14 207.68 456.07 202.79L469.38 206.17L464.21 194.59Z" fill="#0489C7"/>
<path d="M415.53 182.15C415.53 182.941 415.295 183.715 414.856 184.372C414.416 185.03 413.792 185.543 413.061 185.846C412.33 186.148 411.526 186.228 410.75 186.073C409.974 185.919 409.261 185.538 408.702 184.978C408.142 184.419 407.761 183.706 407.607 182.93C407.453 182.154 407.532 181.35 407.834 180.619C408.137 179.888 408.65 179.264 409.308 178.824C409.965 178.385 410.739 178.15 411.53 178.15C412.591 178.15 413.608 178.571 414.358 179.322C415.109 180.072 415.53 181.089 415.53 182.15Z" fill="#263238"/>
<path d="M429.43 186.16C431.645 186.16 433.44 184.365 433.44 182.15C433.44 179.935 431.645 178.14 429.43 178.14C427.215 178.14 425.42 179.935 425.42 182.15C425.42 184.365 427.215 186.16 429.43 186.16Z" fill="#263238"/>
<path d="M451.33 182.15C451.33 182.941 451.095 183.715 450.656 184.372C450.216 185.03 449.592 185.543 448.861 185.846C448.13 186.148 447.326 186.228 446.55 186.073C445.774 185.919 445.061 185.538 444.502 184.978C443.942 184.419 443.561 183.706 443.407 182.93C443.253 182.154 443.332 181.35 443.634 180.619C443.937 179.888 444.45 179.264 445.108 178.824C445.766 178.385 446.539 178.15 447.33 178.15C448.391 178.15 449.408 178.571 450.158 179.322C450.909 180.072 451.33 181.089 451.33 182.15Z" fill="#263238"/>
<path d="M324.77 109C322.54 127.65 310.55 131 308.53 136C307.511 139.13 306.669 142.315 306.01 145.54H286.51C285.863 142.313 285.025 139.127 284 136C282 131 270 127.56 267.9 108.89C266.49 96.6299 275.76 77.2899 296.39 77.3399C317.02 77.3899 326.22 96.7499 324.77 109Z" fill="#0489C7"/>
<path d="M286.246 115.693L285.263 115.874L290.974 146.902L291.958 146.721L286.246 115.693Z" fill="white"/>
<path d="M306.403 115.728L300.551 146.73L301.534 146.916L307.386 115.913L306.403 115.728Z" fill="white"/>
<path d="M296.32 126.12C294.79 126.12 293.25 124.9 291.99 122.69C291.93 122.59 291.87 122.49 291.82 122.39C291.619 122.648 291.367 122.862 291.08 123.019C290.792 123.176 290.476 123.271 290.15 123.3C287.23 123.3 286.07 117.3 286.03 117.01L286.52 116.92C286.52 116.98 287.64 122.79 290.15 122.8C290.436 122.76 290.71 122.66 290.955 122.507C291.2 122.353 291.409 122.15 291.57 121.91C290.34 119.37 289.65 116.05 290.57 114.54C290.701 114.298 290.897 114.096 291.135 113.957C291.373 113.817 291.644 113.746 291.92 113.75C292.247 113.739 292.571 113.82 292.855 113.982C293.139 114.145 293.373 114.383 293.53 114.67C294.41 116.2 293.76 119.36 292.6 121.35C292.477 121.563 292.344 121.77 292.2 121.97C292.28 122.13 292.37 122.29 292.46 122.44C293.14 123.63 294.55 125.62 296.36 125.62C297.57 125.62 298.78 124.62 299.78 122.95C299.868 122.808 299.948 122.661 300.02 122.51C299.76 122.2 299.532 121.865 299.34 121.51C298.13 119.41 297.89 116.3 298.81 114.72C298.956 114.425 299.181 114.175 299.46 113.999C299.739 113.822 300.06 113.726 300.39 113.72C300.645 113.721 300.895 113.792 301.112 113.926C301.33 114.06 301.505 114.252 301.62 114.48C302.48 115.98 302 119.55 300.62 122.36C300.882 122.622 301.194 122.83 301.538 122.971C301.881 123.112 302.249 123.183 302.62 123.18C304.4 123.18 305.99 118.93 306.45 117.29L306.93 117.42C306.86 117.68 305.14 123.68 302.62 123.68C301.813 123.678 301.035 123.375 300.44 122.83L300.26 123.15C299.4 124.53 298.1 126.12 296.32 126.12ZM300.32 114.27C300.078 114.274 299.843 114.346 299.64 114.477C299.437 114.607 299.274 114.792 299.17 115.01C298.35 116.43 298.6 119.37 299.7 121.3C299.844 121.555 300.011 121.796 300.2 122.02C301.42 119.4 301.88 116.11 301.12 114.78C301.048 114.628 300.935 114.5 300.794 114.409C300.652 114.319 300.488 114.271 300.32 114.27ZM291.84 114.27C291.651 114.264 291.465 114.311 291.302 114.407C291.139 114.503 291.007 114.642 290.92 114.81C290.23 116.01 290.68 118.93 291.87 121.47L292.09 121.12C293.15 119.29 293.79 116.3 293.02 114.94C292.907 114.728 292.736 114.553 292.527 114.434C292.318 114.316 292.08 114.259 291.84 114.27Z" fill="white"/>
<path d="M308.285 144.763L284.236 144.704L284.224 149.404L308.274 149.463L308.285 144.763Z" fill="#455A64"/>
<path d="M308.262 150.223L284.212 150.164L284.201 154.864L308.251 154.923L308.262 150.223Z" fill="#455A64"/>
<path d="M308.276 155.639L284.226 155.584L284.215 160.284L308.265 160.339L308.276 155.639Z" fill="#455A64"/>
<path d="M297.32 62C297.948 64.5574 297.906 67.2332 297.2 69.77C296.573 67.2126 296.614 64.5368 297.32 62Z" fill="#263238"/>
<path d="M275.51 67.34C276.436 68.2713 277.22 69.3324 277.84 70.49C278.497 71.6276 278.989 72.8533 279.3 74.13C278.387 73.2028 277.612 72.1486 277 71C276.329 69.8586 275.827 68.6257 275.51 67.34Z" fill="#263238"/>
<path d="M259.3 82.86C261.832 83.5936 264.13 84.9719 265.97 86.86C264.701 86.5104 263.489 85.9818 262.37 85.29C261.235 84.6317 260.201 83.8133 259.3 82.86Z" fill="#263238"/>
<path d="M253 104.4C255.557 103.773 258.233 103.814 260.77 104.52C258.213 105.147 255.537 105.106 253 104.4Z" fill="#263238"/>
<path d="M258.34 126.21C259.271 125.285 260.332 124.5 261.49 123.88C262.625 123.22 263.852 122.731 265.13 122.43C263.224 124.246 260.888 125.547 258.34 126.21Z" fill="#263238"/>
<path d="M333.42 127.87C330.893 127.126 328.597 125.749 326.75 123.87C329.282 124.604 331.58 125.982 333.42 127.87Z" fill="#263238"/>
<path d="M339.71 106.32C338.437 106.649 337.124 106.797 335.81 106.76C334.499 106.765 333.195 106.577 331.94 106.2C333.209 105.867 334.519 105.718 335.83 105.76C337.143 105.765 338.449 105.953 339.71 106.32Z" fill="#263238"/>
<path d="M334.38 84.52C333.446 85.4393 332.385 86.2205 331.23 86.84C330.094 87.5017 328.868 87.9935 327.59 88.3C328.523 87.3851 329.584 86.6104 330.74 86C331.876 85.3353 333.102 84.8369 334.38 84.52Z" fill="#263238"/>
<path d="M318.86 68.3C318.126 70.8321 316.748 73.1304 314.86 74.97C315.21 73.7047 315.738 72.4958 316.43 71.38C317.091 70.2439 317.909 69.2069 318.86 68.3Z" fill="#263238"/>
</svg>
