<svg width="768" height="622" viewBox="0 0 768 622" fill="none" xmlns="http://www.w3.org/2000/svg">
<path d="M193.101 180.518C193.101 180.518 267.216 99.2056 384.555 103.095C501.894 106.985 601.984 185.772 684.732 247.415C767.481 309.058 789.664 404.804 741.561 479.554C693.458 554.303 616.803 522.837 519.217 571.355C421.63 619.873 403.093 647.432 294.387 635.634C185.682 623.836 102.933 503.168 115.267 374.628C127.601 246.088 193.101 180.518 193.101 180.518Z" fill="#0489C7" fill-opacity="0.23"/>
<path opacity="0.7" d="M193.101 180.518C193.101 180.518 267.216 99.2056 384.555 103.095C501.894 106.985 601.984 185.772 684.732 247.415C767.481 309.058 789.664 404.804 741.561 479.554C693.458 554.303 616.803 522.837 519.217 571.355C421.63 619.873 403.093 647.432 294.387 635.634C185.682 623.836 102.933 503.168 115.267 374.628C127.601 246.088 193.101 180.518 193.101 180.518Z" fill="white" fill-opacity="0.8"/>
<path d="M383.93 638.78C210.26 638.78 69.4738 631.099 69.4738 621.625C69.4738 612.151 210.26 604.47 383.93 604.47C557.599 604.47 698.385 612.151 698.385 621.625C698.385 631.099 557.599 638.78 383.93 638.78Z" fill="#0489C7"/>
<path opacity="0.3" d="M383.93 638.78C210.26 638.78 69.4738 631.099 69.4738 621.625C69.4738 612.151 210.26 604.47 383.93 604.47C557.599 604.47 698.385 612.151 698.385 621.625C698.385 631.099 557.599 638.78 383.93 638.78Z" fill="white"/>
<path d="M198.095 363.053C198.19 363.053 197.002 357.144 196.876 356.717C195.513 352.503 190.381 345.154 185.423 345.169C184.599 345.193 183.789 345.39 183.045 345.747C182.302 346.104 181.642 346.614 181.109 347.243C180.575 347.872 180.18 348.606 179.95 349.398C179.719 350.19 179.657 351.021 179.768 351.838C180.133 355.339 183.269 358.301 186.104 360.027C189.431 362.102 198.095 363.053 198.095 363.053Z" fill="#0489C7"/>
<path d="M207.71 323.278C203.037 324.958 200.709 333.606 200.867 338.041C200.867 338.422 201.754 344.377 201.833 344.377H201.929C201.564 345.74 201.168 347.213 200.772 348.813C200.075 351.79 199.315 355.149 198.729 358.887C198.049 362.897 197.605 366.943 197.398 371.004C197.146 375.55 197.3 380.109 197.858 384.627C197.866 384.679 197.866 384.733 197.858 384.785C197.24 383.47 195.418 379.827 195.244 379.558C192.805 375.851 185.93 370.054 181.131 371.448C180.344 371.69 179.617 372.095 178.997 372.637C178.377 373.178 177.878 373.844 177.531 374.59C177.185 375.337 176.999 376.148 176.986 376.971C176.973 377.794 177.133 378.611 177.456 379.368C178.723 382.631 182.524 384.674 185.708 385.577C189.304 386.607 197.319 385.387 197.953 385.292C198.628 389.873 199.613 394.403 200.899 398.851C201.638 401.449 202.441 404.047 203.307 406.644C202.752 405.52 202.229 404.522 202.15 404.379C199.711 400.673 192.836 394.875 188.037 396.253C187.249 396.494 186.52 396.898 185.899 397.438C185.277 397.979 184.777 398.645 184.43 399.392C184.083 400.14 183.898 400.952 183.886 401.776C183.875 402.599 184.037 403.416 184.362 404.173C185.629 407.452 189.431 409.48 192.615 410.399C195.798 411.317 202.705 410.399 204.51 410.161C204.843 411.143 205.176 412.141 205.524 413.123C207.108 417.875 208.819 422.627 210.276 427.284C210.799 428.868 211.258 430.579 211.718 432.226C211.211 431.228 210.783 430.389 210.704 430.278C208.28 426.571 201.39 420.774 196.606 422.152C195.82 422.395 195.093 422.8 194.472 423.341C193.852 423.882 193.352 424.547 193.004 425.293C192.656 426.039 192.469 426.85 192.453 427.673C192.438 428.496 192.596 429.313 192.916 430.072C194.183 433.335 198 435.378 201.184 436.281C204.368 437.184 210.593 436.392 212.747 436.091C213.175 437.802 213.587 439.497 213.919 441.16C214.125 442.3 214.395 443.393 214.537 444.55C214.68 445.706 214.854 446.831 215.012 447.939C215.234 450.109 215.488 452.359 215.646 454.481C215.773 455.954 215.868 457.364 215.963 458.774C215.472 457.19 214.379 453.927 214.3 453.658C212.541 450.176 209.924 447.199 206.696 445.009C206.521 444.612 206.303 444.235 206.047 443.884C205.598 443.193 205.009 442.604 204.318 442.155C203.626 441.706 202.848 441.408 202.034 441.28C201.22 441.151 200.388 441.195 199.592 441.409C198.796 441.623 198.054 442.003 197.414 442.522C193.644 445.69 194.595 454.687 196.321 458.774C196.416 459.011 197.826 461.498 198.729 463.051C198.048 462.227 197.414 461.467 196.701 460.548C195.323 458.869 193.898 457.222 192.377 455.447L190.049 452.929C189.288 452.058 188.369 451.25 187.53 450.41C185.55 448.494 183.443 446.64 181.273 444.819C182.762 443.615 187.942 439.227 189.431 436.249C190.92 433.271 191.981 429.106 190.429 425.969C190.089 425.216 189.595 424.542 188.977 423.993C188.36 423.444 187.634 423.031 186.846 422.781C186.058 422.532 185.227 422.451 184.406 422.544C183.585 422.638 182.792 422.904 182.081 423.324C177.883 425.953 177.456 434.903 178.549 439.164C178.549 439.433 179.753 442.427 180.402 444.059C179.087 442.981 177.788 441.888 176.426 440.891C172.498 437.849 168.427 434.903 164.388 431.941L160.697 429.201C161.22 428.773 167.492 423.704 169.171 420.378C170.644 417.416 171.722 413.234 170.169 410.082C169.828 409.33 169.332 408.658 168.715 408.11C168.097 407.563 167.371 407.151 166.584 406.901C165.797 406.652 164.967 406.57 164.146 406.663C163.326 406.755 162.534 407.019 161.822 407.436C157.624 410.082 157.196 419.031 158.289 423.276C158.368 423.609 160 427.918 160.475 428.995C157.767 426.967 155.09 424.94 152.555 422.833C149.085 419.999 145.804 416.941 142.734 413.677C142.972 413.487 149.546 408.228 151.256 404.807C152.745 401.845 153.807 397.663 152.254 394.527C151.917 393.774 151.424 393.101 150.808 392.552C150.192 392.002 149.467 391.589 148.68 391.34C147.894 391.09 147.063 391.009 146.243 391.102C145.424 391.196 144.633 391.461 143.922 391.882C139.709 394.511 139.281 403.461 140.374 407.722C140.453 407.991 141.689 411.286 142.323 412.838L142.069 412.98C139.065 409.616 136.367 405.99 134.007 402.146C132.692 400.055 131.536 397.98 130.458 395.921C131.789 395.065 137.792 391.169 139.677 388.191C141.562 385.213 142.988 381.38 141.8 378.085C141.544 377.31 141.129 376.596 140.582 375.99C140.035 375.384 139.367 374.898 138.622 374.564C137.877 374.231 137.07 374.056 136.254 374.051C135.437 374.046 134.629 374.212 133.88 374.537C129.397 376.691 128.003 385.546 128.621 389.933C128.621 390.171 129.255 392.563 129.714 394.305C129.255 393.37 128.748 392.42 128.32 391.517C126.736 388.127 125.39 384.928 124.281 382.013C123.647 380.429 123.124 378.845 122.697 377.53C123.568 375.946 126.958 369.848 127.29 366.442C127.623 363.037 127.085 358.855 124.503 356.479C123.914 355.901 123.21 355.454 122.437 355.167C121.663 354.879 120.838 354.757 120.015 354.81C119.192 354.862 118.389 355.087 117.658 355.47C116.928 355.853 116.286 356.386 115.775 357.034C112.797 361.009 115.632 369.5 118.198 373.127C118.42 373.428 122.459 377.879 122.507 377.879V377.784C122.95 379.13 123.425 380.572 123.996 382.124C125.041 384.991 126.277 388.238 127.829 391.628C129.483 395.344 131.35 398.962 133.421 402.463C135.727 406.386 138.378 410.096 141.341 413.551L141.451 413.677C140.216 412.901 136.699 410.89 136.398 410.763C132.312 409.02 123.41 408.022 120.147 411.777C119.624 412.414 119.24 413.154 119.021 413.948C118.802 414.743 118.752 415.574 118.875 416.389C118.997 417.205 119.289 417.985 119.732 418.68C120.175 419.375 120.759 419.97 121.445 420.425C124.313 422.453 128.621 422.009 131.773 421.043C135.337 419.918 141.277 414.485 141.832 414.058C144.92 417.504 148.238 420.737 151.763 423.736C153.822 425.51 155.929 427.221 158.099 428.9C157.006 428.282 156.024 427.727 155.882 427.664C151.811 425.922 142.909 424.924 139.646 428.678C139.12 429.314 138.735 430.054 138.515 430.849C138.294 431.644 138.243 432.476 138.366 433.292C138.489 434.108 138.781 434.889 139.226 435.584C139.67 436.279 140.256 436.873 140.945 437.327C143.796 439.354 148.104 438.911 151.256 437.944C154.408 436.978 159.683 432.416 161.045 431.196L163.532 433.113C167.524 436.17 171.452 439.196 175.333 442.284C176.68 443.377 177.963 444.502 179.261 445.611C178.279 445.056 177.472 444.597 177.329 444.55C173.258 442.791 164.356 441.809 161.093 445.547C160.565 446.183 160.178 446.922 159.956 447.717C159.734 448.513 159.683 449.346 159.806 450.163C159.928 450.979 160.222 451.761 160.668 452.456C161.113 453.151 161.701 453.744 162.392 454.196C165.259 456.224 169.552 455.78 172.704 454.83C175.856 453.879 180.624 449.729 182.208 448.288C183.491 449.476 184.79 450.648 185.978 451.868C186.785 452.707 187.562 453.452 188.354 454.355C189.146 455.257 189.938 456.065 190.635 456.921C192.013 458.6 193.454 460.342 194.769 462.021C195.688 463.177 196.543 464.302 197.398 465.427C196.084 464.334 193.422 462.259 193.185 462.084C189.431 459.74 180.782 457.412 176.981 460.611C176.367 461.164 175.876 461.839 175.54 462.594C175.204 463.348 175.03 464.165 175.03 464.991C175.03 465.817 175.204 466.634 175.54 467.388C175.876 468.143 176.367 468.818 176.981 469.371C179.499 471.794 183.808 472.064 187.071 471.557C190.682 470.987 197.208 466.805 198.016 466.203C199.442 468.072 200.804 469.909 202.071 471.668C206.459 477.734 209.88 482.946 212.225 486.636L212.462 487.001L215.503 485.528C215.345 485.29 215.187 485.068 215.028 484.815C212.573 481.14 208.993 475.944 204.431 469.909C202.99 468.009 201.422 465.997 199.79 463.938C201.488 462.091 203.075 460.144 204.542 458.109C208.043 459.471 215.313 459.534 216.248 459.534C216.39 461.878 216.517 464.16 216.612 466.314C216.929 473.806 216.897 480.047 216.818 484.403V484.926L220.16 483.342C220.16 479.017 219.986 473.141 219.543 466.219C219.4 463.827 219.194 461.277 218.957 458.679C219.891 458.441 227.447 456.493 230.298 454.212C232.88 452.153 235.604 448.795 235.509 445.294C235.518 444.468 235.352 443.65 235.023 442.893C234.693 442.136 234.208 441.457 233.598 440.9C232.987 440.344 232.267 439.923 231.482 439.665C230.698 439.406 229.868 439.317 229.047 439.402C224.12 440.035 220.002 447.987 219.178 452.343C219.178 452.596 218.925 455.511 218.83 457.253C218.719 456.176 218.64 455.147 218.529 454.085C218.307 451.915 218.022 449.745 217.721 447.417C217.547 446.308 217.357 445.183 217.182 444.043C217.008 442.902 216.707 441.73 216.47 440.558C215.868 437.865 215.139 435.156 214.331 432.448C216.232 432.242 222.964 431.45 225.863 429.803C228.761 428.155 231.929 425.241 232.357 421.772C232.492 420.956 232.453 420.121 232.243 419.322C232.032 418.523 231.655 417.777 231.136 417.134C230.617 416.49 229.968 415.964 229.231 415.59C228.494 415.215 227.686 415.001 226.861 414.96C221.903 414.834 216.612 422.073 215.155 426.254C215.06 426.524 214.347 429.644 213.999 431.371C213.492 429.787 213.017 428.108 212.415 426.492C210.831 421.74 209.041 417.083 207.298 412.379C206.76 410.937 206.253 409.496 205.714 408.07C206.395 408.07 214.426 407.231 217.658 405.377C220.525 403.793 223.724 400.815 224.168 397.346C224.298 396.532 224.255 395.699 224.043 394.901C223.83 394.104 223.453 393.36 222.934 392.718C222.416 392.076 221.769 391.55 221.035 391.174C220.3 390.798 219.495 390.58 218.671 390.535C213.698 390.408 208.407 397.647 206.95 401.829C206.839 402.146 205.825 406.581 205.619 407.801C204.479 404.633 203.354 401.465 202.451 398.297C201.112 394.02 200.053 389.66 199.283 385.245C199.6 385.245 207.995 384.453 211.29 382.552C214.173 380.968 217.373 377.99 217.8 374.521C217.93 373.706 217.887 372.873 217.675 372.076C217.462 371.279 217.085 370.535 216.567 369.893C216.049 369.251 215.401 368.725 214.667 368.349C213.933 367.973 213.128 367.755 212.304 367.71C207.346 367.599 202.055 374.822 200.598 379.004C200.503 379.289 199.727 382.71 199.394 384.342H199.109C198.455 379.88 198.201 375.369 198.349 370.862C198.349 368.375 198.586 366.015 198.824 363.702C200.408 363.702 207.599 363.702 210.767 362.34C213.935 360.978 217.309 358.475 218.133 355.069C218.353 354.272 218.401 353.436 218.276 352.619C218.151 351.801 217.854 351.018 217.405 350.323C216.957 349.628 216.366 349.035 215.673 348.584C214.979 348.132 214.198 347.832 213.381 347.704C208.455 347.038 202.404 353.644 200.487 357.651C200.392 357.873 199.568 360.202 199.014 361.896C199.125 360.867 199.236 359.79 199.378 358.808C199.869 355.085 200.566 351.695 201.2 348.718C201.58 347.023 201.944 345.55 202.309 344.076C203.893 343.284 210.102 340.021 212.24 337.376C214.379 334.731 216.248 330.945 215.408 327.539C215.227 326.728 214.876 325.964 214.378 325.298C213.88 324.632 213.246 324.079 212.518 323.676C211.791 323.273 210.986 323.03 210.157 322.961C209.328 322.893 208.494 323.001 207.71 323.278Z" fill="#0489C7"/>
<path d="M117.928 399.833C121.809 399.675 129.571 395.699 129.571 395.683C129.571 395.667 125.405 391.375 125.104 391.137C121.635 388.365 113.303 385.07 109.169 387.811C108.495 388.287 107.928 388.9 107.506 389.61C107.084 390.319 106.816 391.11 106.719 391.93C106.622 392.75 106.698 393.581 106.943 394.369C107.187 395.158 107.595 395.886 108.139 396.507C110.357 399.168 114.618 399.96 117.928 399.833Z" fill="#0489C7"/>
<g opacity="0.5">
<path opacity="0.5" d="M198.095 363.053C198.19 363.053 197.002 357.144 196.876 356.717C195.513 352.503 190.381 345.154 185.423 345.169C184.599 345.193 183.789 345.39 183.045 345.747C182.302 346.104 181.642 346.614 181.109 347.243C180.575 347.872 180.18 348.606 179.95 349.398C179.719 350.19 179.657 351.021 179.768 351.838C180.133 355.339 183.269 358.301 186.104 360.027C189.431 362.102 198.095 363.053 198.095 363.053Z" fill="white"/>
<path opacity="0.5" d="M207.71 323.278C203.037 324.958 200.709 333.606 200.867 338.041C200.867 338.422 201.754 344.377 201.833 344.377H201.929C201.564 345.74 201.168 347.213 200.772 348.813C200.075 351.79 199.315 355.149 198.729 358.887C198.049 362.897 197.605 366.943 197.398 371.004C197.146 375.55 197.3 380.109 197.858 384.627C197.866 384.679 197.866 384.733 197.858 384.785C197.24 383.47 195.418 379.827 195.244 379.558C192.805 375.851 185.93 370.054 181.131 371.448C180.344 371.69 179.617 372.095 178.997 372.637C178.377 373.178 177.878 373.844 177.531 374.59C177.185 375.337 176.999 376.148 176.986 376.971C176.973 377.794 177.133 378.611 177.456 379.368C178.723 382.631 182.524 384.674 185.708 385.577C189.304 386.607 197.319 385.387 197.953 385.292C198.628 389.873 199.613 394.403 200.899 398.851C201.638 401.449 202.441 404.047 203.307 406.644C202.752 405.52 202.229 404.522 202.15 404.379C199.711 400.673 192.836 394.875 188.037 396.253C187.249 396.494 186.52 396.898 185.899 397.438C185.277 397.979 184.777 398.645 184.43 399.392C184.083 400.14 183.898 400.952 183.886 401.776C183.875 402.599 184.037 403.416 184.362 404.173C185.629 407.452 189.431 409.48 192.615 410.399C195.798 411.317 202.705 410.399 204.51 410.161C204.843 411.143 205.176 412.141 205.524 413.123C207.108 417.875 208.819 422.627 210.276 427.284C210.799 428.868 211.258 430.579 211.718 432.226C211.211 431.228 210.783 430.389 210.704 430.278C208.28 426.571 201.39 420.774 196.606 422.152C195.82 422.395 195.093 422.8 194.472 423.341C193.852 423.882 193.352 424.547 193.004 425.293C192.656 426.039 192.469 426.85 192.453 427.673C192.438 428.496 192.596 429.313 192.916 430.072C194.183 433.335 198 435.378 201.184 436.281C204.368 437.184 210.593 436.392 212.747 436.091C213.175 437.802 213.587 439.497 213.919 441.16C214.125 442.3 214.395 443.393 214.537 444.55C214.68 445.706 214.854 446.831 215.012 447.939C215.234 450.109 215.488 452.359 215.646 454.481C215.773 455.954 215.868 457.364 215.963 458.774C215.472 457.19 214.379 453.927 214.3 453.658C212.541 450.176 209.924 447.199 206.696 445.009C206.521 444.612 206.303 444.235 206.047 443.884C205.598 443.193 205.009 442.604 204.318 442.155C203.626 441.706 202.848 441.408 202.034 441.28C201.22 441.151 200.388 441.195 199.592 441.409C198.796 441.623 198.054 442.003 197.414 442.522C193.644 445.69 194.595 454.687 196.321 458.774C196.416 459.011 197.826 461.498 198.729 463.051C198.048 462.227 197.414 461.467 196.701 460.548C195.323 458.869 193.898 457.222 192.377 455.447L190.049 452.929C189.288 452.058 188.369 451.25 187.53 450.41C185.55 448.494 183.443 446.64 181.273 444.819C182.762 443.615 187.942 439.227 189.431 436.249C190.92 433.271 191.981 429.106 190.429 425.969C190.089 425.216 189.595 424.542 188.977 423.993C188.36 423.444 187.634 423.031 186.846 422.781C186.058 422.532 185.227 422.451 184.406 422.544C183.585 422.638 182.792 422.904 182.081 423.324C177.883 425.953 177.456 434.903 178.549 439.164C178.549 439.433 179.753 442.427 180.402 444.059C179.087 442.981 177.788 441.888 176.426 440.891C172.498 437.849 168.427 434.903 164.388 431.941L160.697 429.201C161.22 428.773 167.492 423.704 169.171 420.378C170.644 417.416 171.722 413.234 170.169 410.082C169.828 409.33 169.332 408.658 168.715 408.11C168.097 407.563 167.371 407.151 166.584 406.901C165.797 406.652 164.967 406.57 164.146 406.663C163.326 406.755 162.534 407.019 161.822 407.436C157.624 410.082 157.196 419.031 158.289 423.276C158.368 423.609 160 427.918 160.475 428.995C157.767 426.967 155.09 424.94 152.555 422.833C149.085 419.999 145.804 416.941 142.734 413.677C142.972 413.487 149.546 408.228 151.256 404.807C152.745 401.845 153.807 397.663 152.254 394.527C151.917 393.774 151.424 393.101 150.808 392.552C150.192 392.002 149.467 391.589 148.68 391.34C147.894 391.09 147.063 391.009 146.243 391.102C145.424 391.196 144.633 391.461 143.922 391.882C139.709 394.511 139.281 403.461 140.374 407.722C140.453 407.991 141.689 411.286 142.323 412.838L142.069 412.98C139.065 409.616 136.367 405.99 134.007 402.146C132.692 400.055 131.536 397.98 130.458 395.921C131.789 395.065 137.792 391.169 139.677 388.191C141.562 385.213 142.988 381.38 141.8 378.085C141.544 377.31 141.129 376.596 140.582 375.99C140.035 375.384 139.367 374.898 138.622 374.564C137.877 374.231 137.07 374.056 136.254 374.051C135.437 374.046 134.629 374.212 133.88 374.537C129.397 376.691 128.003 385.546 128.621 389.933C128.621 390.171 129.255 392.563 129.714 394.305C129.255 393.37 128.748 392.42 128.32 391.517C126.736 388.127 125.39 384.928 124.281 382.013C123.647 380.429 123.124 378.845 122.697 377.53C123.568 375.946 126.958 369.848 127.29 366.442C127.623 363.037 127.085 358.855 124.503 356.479C123.914 355.901 123.21 355.454 122.437 355.167C121.663 354.879 120.838 354.757 120.015 354.81C119.192 354.862 118.389 355.087 117.658 355.47C116.928 355.853 116.286 356.386 115.775 357.034C112.797 361.009 115.632 369.5 118.198 373.127C118.42 373.428 122.459 377.879 122.507 377.879V377.784C122.95 379.13 123.425 380.572 123.996 382.124C125.041 384.991 126.277 388.238 127.829 391.628C129.483 395.344 131.35 398.962 133.421 402.463C135.727 406.386 138.378 410.096 141.341 413.551L141.451 413.677C140.216 412.901 136.699 410.89 136.398 410.763C132.312 409.02 123.41 408.022 120.147 411.777C119.624 412.414 119.24 413.154 119.021 413.948C118.802 414.743 118.752 415.574 118.875 416.389C118.997 417.205 119.289 417.985 119.732 418.68C120.175 419.375 120.759 419.97 121.445 420.425C124.313 422.453 128.621 422.009 131.773 421.043C135.337 419.918 141.277 414.485 141.832 414.058C144.92 417.504 148.238 420.737 151.763 423.736C153.822 425.51 155.929 427.221 158.099 428.9C157.006 428.282 156.024 427.727 155.882 427.664C151.811 425.922 142.909 424.924 139.646 428.678C139.12 429.314 138.735 430.054 138.515 430.849C138.294 431.644 138.243 432.476 138.366 433.292C138.489 434.108 138.781 434.889 139.226 435.584C139.67 436.279 140.256 436.873 140.945 437.327C143.796 439.354 148.104 438.911 151.256 437.944C154.408 436.978 159.683 432.416 161.045 431.196L163.532 433.113C167.524 436.17 171.452 439.196 175.333 442.284C176.68 443.377 177.963 444.502 179.261 445.611C178.279 445.056 177.472 444.597 177.329 444.55C173.258 442.791 164.356 441.809 161.093 445.547C160.565 446.183 160.178 446.922 159.956 447.717C159.734 448.513 159.683 449.346 159.806 450.163C159.928 450.979 160.222 451.761 160.668 452.456C161.113 453.151 161.701 453.744 162.392 454.196C165.259 456.224 169.552 455.78 172.704 454.83C175.856 453.879 180.624 449.729 182.208 448.288C183.491 449.476 184.79 450.648 185.978 451.868C186.785 452.707 187.562 453.452 188.354 454.355C189.146 455.257 189.938 456.065 190.635 456.921C192.013 458.6 193.454 460.342 194.769 462.021C195.688 463.177 196.543 464.302 197.398 465.427C196.084 464.334 193.422 462.259 193.185 462.084C189.431 459.74 180.782 457.412 176.981 460.611C176.367 461.164 175.876 461.839 175.54 462.594C175.204 463.348 175.03 464.165 175.03 464.991C175.03 465.817 175.204 466.634 175.54 467.388C175.876 468.143 176.367 468.818 176.981 469.371C179.499 471.794 183.808 472.064 187.071 471.557C190.682 470.987 197.208 466.805 198.016 466.203C199.442 468.072 200.804 469.909 202.071 471.668C206.459 477.734 209.88 482.946 212.225 486.636L212.462 487.001L215.503 485.528C215.345 485.29 215.187 485.068 215.028 484.815C212.573 481.14 208.993 475.944 204.431 469.909C202.99 468.009 201.422 465.997 199.79 463.938C201.488 462.091 203.075 460.144 204.542 458.109C208.043 459.471 215.313 459.534 216.248 459.534C216.39 461.878 216.517 464.16 216.612 466.314C216.929 473.806 216.897 480.047 216.818 484.403V484.926L220.16 483.342C220.16 479.017 219.986 473.141 219.543 466.219C219.4 463.827 219.194 461.277 218.957 458.679C219.891 458.441 227.447 456.493 230.298 454.212C232.88 452.153 235.604 448.795 235.509 445.294C235.518 444.468 235.352 443.65 235.023 442.893C234.693 442.136 234.208 441.457 233.598 440.9C232.987 440.344 232.267 439.923 231.482 439.665C230.698 439.406 229.868 439.317 229.047 439.402C224.12 440.035 220.002 447.987 219.178 452.343C219.178 452.596 218.925 455.511 218.83 457.253C218.719 456.176 218.64 455.147 218.529 454.085C218.307 451.915 218.022 449.745 217.721 447.417C217.547 446.308 217.357 445.183 217.182 444.043C217.008 442.902 216.707 441.73 216.47 440.558C215.868 437.865 215.139 435.156 214.331 432.448C216.232 432.242 222.964 431.45 225.863 429.803C228.761 428.155 231.929 425.241 232.357 421.772C232.492 420.956 232.453 420.121 232.243 419.322C232.032 418.523 231.655 417.777 231.136 417.134C230.617 416.49 229.968 415.964 229.231 415.59C228.494 415.215 227.686 415.001 226.861 414.96C221.903 414.834 216.612 422.073 215.155 426.254C215.06 426.524 214.347 429.644 213.999 431.371C213.492 429.787 213.017 428.108 212.415 426.492C210.831 421.74 209.041 417.083 207.298 412.379C206.76 410.937 206.253 409.496 205.714 408.07C206.395 408.07 214.426 407.231 217.658 405.377C220.525 403.793 223.724 400.815 224.168 397.346C224.298 396.532 224.255 395.699 224.043 394.901C223.83 394.104 223.453 393.36 222.934 392.718C222.416 392.076 221.769 391.55 221.035 391.174C220.3 390.798 219.495 390.58 218.671 390.535C213.698 390.408 208.407 397.647 206.95 401.829C206.839 402.146 205.825 406.581 205.619 407.801C204.479 404.633 203.354 401.465 202.451 398.297C201.112 394.02 200.053 389.66 199.283 385.245C199.6 385.245 207.995 384.453 211.29 382.552C214.173 380.968 217.373 377.99 217.8 374.521C217.93 373.706 217.887 372.873 217.675 372.076C217.462 371.279 217.085 370.535 216.567 369.893C216.049 369.251 215.401 368.725 214.667 368.349C213.933 367.973 213.128 367.755 212.304 367.71C207.346 367.599 202.055 374.822 200.598 379.004C200.503 379.289 199.727 382.71 199.394 384.342H199.109C198.455 379.88 198.201 375.369 198.349 370.862C198.349 368.375 198.586 366.015 198.824 363.702C200.408 363.702 207.599 363.702 210.767 362.34C213.935 360.978 217.309 358.475 218.133 355.069C218.353 354.272 218.401 353.436 218.276 352.619C218.151 351.801 217.854 351.018 217.405 350.323C216.957 349.628 216.366 349.035 215.673 348.584C214.979 348.132 214.198 347.832 213.381 347.704C208.455 347.038 202.404 353.644 200.487 357.651C200.392 357.873 199.568 360.202 199.014 361.896C199.125 360.867 199.236 359.79 199.378 358.808C199.869 355.085 200.566 351.695 201.2 348.718C201.58 347.023 201.944 345.55 202.309 344.076C203.893 343.284 210.102 340.021 212.24 337.376C214.379 334.731 216.248 330.945 215.408 327.539C215.227 326.728 214.876 325.964 214.378 325.298C213.88 324.632 213.246 324.079 212.518 323.676C211.791 323.273 210.986 323.03 210.157 322.961C209.328 322.893 208.494 323.001 207.71 323.278Z" fill="white"/>
<path opacity="0.5" d="M117.929 399.833C121.81 399.675 129.571 395.699 129.571 395.683C129.571 395.667 125.405 391.375 125.104 391.137C121.636 388.365 113.304 385.07 109.17 387.811C108.495 388.287 107.929 388.9 107.507 389.61C107.085 390.319 106.816 391.11 106.719 391.93C106.622 392.75 106.698 393.581 106.943 394.369C107.188 395.158 107.596 395.886 108.14 396.507C110.358 399.168 114.619 399.96 117.929 399.833Z" fill="white"/>
</g>
<path d="M163.247 497.028C163.247 497.028 186.801 440.241 199.98 442.712C213.159 445.183 177.408 533.222 177.408 533.222C177.408 533.222 218.845 455.052 247.104 455.052C275.363 455.052 236.745 541.459 200.962 570.256C200.962 570.256 257.463 509.367 290.426 522.53C323.389 535.693 224.5 597.406 224.5 597.406C224.5 597.406 281.952 579.3 275.363 593.287C268.773 607.274 250.874 609.745 250.874 609.745L315.818 613.04H89.7811L140.643 608.098C140.643 608.098 87.8962 581.772 102.025 571.08C116.155 560.388 147.233 583.419 147.233 583.419C147.233 583.419 93.5511 524.177 103.91 501.954C114.27 479.73 160.428 542.282 160.428 542.282C160.428 542.282 122.744 462.465 130.332 448.478C137.919 434.491 163.247 497.028 163.247 497.028Z" fill="#0489C7"/>
<path opacity="0.4" d="M163.247 497.028C163.247 497.028 186.801 440.241 199.98 442.712C213.159 445.183 177.408 533.222 177.408 533.222C177.408 533.222 218.845 455.052 247.104 455.052C275.363 455.052 236.745 541.459 200.962 570.256C200.962 570.256 257.463 509.367 290.426 522.53C323.389 535.693 224.5 597.406 224.5 597.406C224.5 597.406 281.952 579.3 275.363 593.287C268.773 607.274 250.874 609.745 250.874 609.745L315.818 613.04H89.7811L140.643 608.098C140.643 608.098 87.8962 581.772 102.025 571.08C116.155 560.388 147.233 583.419 147.233 583.419C147.233 583.419 93.5511 524.177 103.91 501.954C114.27 479.73 160.428 542.282 160.428 542.282C160.428 542.282 122.744 462.465 130.332 448.478C137.919 434.491 163.247 497.028 163.247 497.028Z" fill="white"/>
<path d="M155.707 500.005C176.441 561.227 176.441 604.549 176.441 604.549C176.441 604.549 151.953 605.484 126.514 586.65" stroke="#263238" stroke-linecap="round" stroke-linejoin="round"/>
<path d="M166.067 532.984C170.343 514.678 176.014 496.727 183.031 479.287" stroke="#263238" stroke-linecap="round" stroke-linejoin="round"/>
<path d="M227.288 497.186L174.557 575.356C174.557 575.356 138.758 545.26 126.514 528.264" stroke="#263238" stroke-linecap="round" stroke-linejoin="round"/>
<path d="M175.491 594.206C175.491 594.206 231.058 567.832 253.662 552.816" stroke="#263238" stroke-linecap="round" stroke-linejoin="round"/>
<path d="M225.371 172.656H394.606C401.535 172.656 407.151 178.273 407.151 185.201V600.494C407.151 607.423 401.535 613.04 394.606 613.04H225.371C218.443 613.04 212.826 607.423 212.826 600.494V185.201C212.826 178.273 218.443 172.656 225.371 172.656Z" fill="white" stroke="#263238" stroke-linecap="round" stroke-linejoin="round"/>
<path d="M219.321 249.749C220.006 249.749 220.662 249.477 221.147 248.993C221.631 248.509 221.903 247.852 221.903 247.167V212.557C221.852 211.905 221.557 211.296 221.077 210.852C220.597 210.408 219.967 210.162 219.313 210.162C218.659 210.162 218.029 210.408 217.549 210.852C217.069 211.296 216.774 211.905 216.723 212.557V247.104C216.717 247.449 216.779 247.792 216.907 248.113C217.035 248.433 217.225 248.725 217.467 248.972C217.709 249.218 217.997 249.414 218.316 249.547C218.634 249.681 218.976 249.749 219.321 249.749Z" fill="#263238"/>
<path d="M219.321 281.809C220.006 281.809 220.662 281.537 221.147 281.053C221.631 280.569 221.903 279.912 221.903 279.228V259.887C221.852 259.235 221.557 258.626 221.077 258.182C220.597 257.738 219.967 257.492 219.313 257.492C218.659 257.492 218.029 257.738 217.549 258.182C217.069 258.626 216.774 259.235 216.723 259.887V279.228C216.727 279.914 217.003 280.57 217.49 281.054C217.976 281.538 218.635 281.809 219.321 281.809Z" fill="#263238"/>
<path d="M240.024 172.656H409.258C416.187 172.656 421.804 178.273 421.804 185.201V600.494C421.804 607.423 416.187 613.04 409.258 613.04H240.024C233.095 613.04 227.479 607.423 227.479 600.494V185.201C227.479 178.273 233.095 172.656 240.024 172.656Z" fill="#263238" stroke="#263238" stroke-linecap="round" stroke-linejoin="round"/>
<path d="M240.42 201.976H408.862V579.697H240.42V201.976Z" fill="#0489C7"/>
<path d="M349.653 189.906H304.81" stroke="white" stroke-width="3" stroke-linecap="round" stroke-linejoin="round"/>
<path d="M330.676 593.065C330.676 596.154 332.608 598.657 335 598.657C337.392 598.657 339.309 596.154 339.309 593.065C339.309 589.977 337.376 587.458 335 587.458C332.624 587.458 330.676 589.961 330.676 593.065Z" fill="white"/>
<path d="M324.641 295.97C308.509 295.97 295.432 280.723 295.432 261.914C295.432 243.106 308.509 227.858 324.641 227.858C340.773 227.858 353.85 243.106 353.85 261.914C353.85 280.723 340.773 295.97 324.641 295.97Z" fill="white"/>
<path d="M324.641 261.487C318.517 261.487 313.553 255.693 313.553 248.545C313.553 241.398 318.517 235.604 324.641 235.604C330.765 235.604 335.729 241.398 335.729 248.545C335.729 255.693 330.765 261.487 324.641 261.487Z" fill="#263238" stroke="#263238" stroke-linecap="round" stroke-linejoin="round"/>
<path d="M324.641 264.924C335.729 264.924 344.806 273.43 344.806 283.932C344.797 284.909 344.707 285.884 344.536 286.847C342.077 289.717 339.025 292.021 335.591 293.601C332.157 295.181 328.421 295.999 324.641 295.999C320.861 295.999 317.126 295.181 313.692 293.601C310.257 292.021 307.206 289.717 304.746 286.847C304.589 285.883 304.504 284.908 304.493 283.932C304.493 273.43 313.522 264.924 324.641 264.924Z" fill="#263238" stroke="#263238" stroke-linecap="round" stroke-linejoin="round"/>
<path d="M289.128 410.256H360.155C362.034 410.182 363.808 409.364 365.085 407.983C366.362 406.602 367.039 404.77 366.966 402.89V359.045C366.966 333.78 347.958 313.22 324.641 313.22C301.325 313.22 282.333 333.812 282.333 359.045V402.859C282.292 403.791 282.436 404.722 282.756 405.598C283.076 406.475 283.565 407.279 284.196 407.967C284.828 408.654 285.588 409.209 286.434 409.602C287.281 409.995 288.196 410.217 289.128 410.256ZM353.359 395.525H295.939V359.093C295.939 341.954 308.817 327.999 324.641 327.999C340.466 327.999 353.359 341.954 353.359 359.093V395.525Z" fill="#263238"/>
<path d="M275.331 380.334H373.951V473.632H275.331V380.334Z" fill="white"/>
<path d="M310.274 444.565L317.592 426.967C315.974 425.744 314.665 424.158 313.771 422.336C312.877 420.515 312.423 418.51 312.444 416.481C312.444 409.464 317.687 403.809 324.166 403.809C330.645 403.809 335.872 409.48 335.872 416.481C335.897 418.509 335.445 420.514 334.554 422.335C333.662 424.156 332.356 425.743 330.74 426.967L338.042 444.565H310.274Z" fill="#263238" stroke="#263238" stroke-linecap="round" stroke-linejoin="round"/>
<path d="M354.69 557.473C354.538 557.584 354.355 557.645 354.167 557.647C354.032 557.647 353.9 557.613 353.781 557.55C353.662 557.486 353.561 557.395 353.486 557.283L240.42 403.492V400.578L354.816 556.269C354.887 556.356 354.94 556.457 354.972 556.565C355.004 556.672 355.014 556.785 355.003 556.897C354.991 557.009 354.957 557.117 354.903 557.216C354.85 557.315 354.777 557.402 354.69 557.473Z" fill="white"/>
<path d="M263.167 257.384C263.234 257.475 263.283 257.579 263.309 257.689C263.336 257.799 263.341 257.914 263.324 258.026C263.306 258.138 263.266 258.245 263.206 258.342C263.147 258.438 263.069 258.522 262.976 258.588C262.791 258.72 262.561 258.774 262.336 258.738C262.111 258.703 261.909 258.581 261.773 258.398L240.42 229.363V226.512L263.167 257.384Z" fill="white"/>
<path d="M408.862 458.505L269.28 268.694C269.146 268.509 269.09 268.278 269.126 268.053C269.162 267.827 269.285 267.625 269.47 267.49C269.655 267.356 269.886 267.3 270.112 267.336C270.337 267.371 270.54 267.495 270.674 267.68L408.799 455.59L408.862 458.505Z" fill="white"/>
<path d="M367.805 576.196C367.67 576.193 367.537 576.161 367.417 576.101C367.296 576.04 367.191 575.954 367.108 575.847L359.188 565.139C359.121 565.048 359.072 564.945 359.045 564.834C359.018 564.724 359.013 564.61 359.031 564.498C359.049 564.386 359.088 564.278 359.148 564.182C359.208 564.085 359.286 564.002 359.378 563.936C359.564 563.804 359.794 563.75 360.019 563.785C360.244 563.821 360.446 563.943 360.582 564.126L368.502 574.818C368.57 574.908 368.62 575.011 368.648 575.12C368.676 575.23 368.682 575.344 368.666 575.456C368.65 575.568 368.611 575.676 368.553 575.773C368.495 575.87 368.419 575.954 368.328 576.022C368.179 576.139 367.994 576.201 367.805 576.196Z" fill="white"/>
<path d="M240.42 434.285L333.242 560.546C333.336 560.674 333.393 560.826 333.406 560.984C333.419 561.142 333.387 561.301 333.315 561.443C333.242 561.584 333.132 561.702 332.996 561.785C332.86 561.867 332.704 561.91 332.545 561.908C332.41 561.911 332.275 561.88 332.154 561.82C332.033 561.759 331.928 561.67 331.848 561.56L240.42 437.184V434.285Z" fill="white"/>
<path d="M566.423 256.83C564.852 253.35 564.094 249.558 564.205 245.742C564.205 238.661 572.775 234.559 582.849 233.434C592.923 232.309 597.39 236.412 595.901 239.026C594.354 241.181 592.465 243.07 590.31 244.617C590.31 244.617 600.384 239.026 607.1 243.508C613.816 247.991 604.106 246.122 605.976 250.589C607.845 255.056 618.283 253.202 620.897 265.13C623.51 277.057 616.05 289.001 622.766 294.228C629.482 299.455 649.694 292.359 655.586 305.411C661.479 318.463 653.115 324.261 667.276 332.466C681.437 340.671 691.765 348.686 687.662 368.819C683.56 388.951 670.128 396 643.643 388.888C617.159 381.776 619.028 365.761 610.379 349.288C601.73 332.814 588.361 336.236 584.259 326.906C580.156 317.576 585.384 306.393 585.003 297.808C584.623 289.223 576.054 287.369 572.696 277.216C569.338 267.062 566.423 256.83 566.423 256.83Z" fill="#263238" stroke="#263238" stroke-linecap="round" stroke-linejoin="round"/>
<path d="M684.574 368.438C685.268 369.841 685.621 371.388 685.603 372.953" stroke="white" stroke-width="0.5" stroke-linecap="round" stroke-linejoin="round"/>
<path d="M580.743 249.432C580.743 249.432 585.4 244.047 576.434 246.55C565.14 249.718 578.398 262.786 583.499 265.415C593.731 270.658 607.259 268.979 615.179 278.515C622.37 287.132 612.66 296.113 616.969 302.94C621.277 309.767 638.527 305.807 644.261 314.028C649.995 322.249 633.854 339.895 650.375 349.589C662.319 356.606 675.402 359.299 681.723 364.859" stroke="white" stroke-width="0.5" stroke-linecap="round" stroke-linejoin="round"/>
<path d="M607.528 281.303C608.507 283.593 608.804 286.118 608.383 288.573C606.958 294.671 598.689 306.171 606.229 312.634C613.769 319.097 626.71 318.732 628.849 326.304C630.987 333.875 626.694 354.673 633.87 364.32C641.045 373.967 655.064 373.301 662.604 379.764C670.144 386.227 669.066 389.822 669.066 389.822" stroke="white" stroke-width="0.5" stroke-linecap="round" stroke-linejoin="round"/>
<path d="M603.726 274.206C604.379 275.129 604.982 276.086 605.532 277.073" stroke="white" stroke-width="0.5" stroke-linecap="round" stroke-linejoin="round"/>
<path d="M561.592 367.868L559.77 382.124C559.77 382.124 550.266 391.628 543.281 397.505C536.296 403.381 518.396 415.816 518.396 415.816L527.473 418.398C527.473 418.398 557.141 400.815 563.002 399.39C568.863 397.964 573.25 389.506 575.072 386.94C576.893 384.373 566.36 365.302 561.592 367.868Z" fill="white" stroke="#263238" stroke-linecap="round" stroke-linejoin="round"/>
<path d="M543.471 599.813C543.471 599.813 534.505 607.385 530.799 609.919C527.092 612.454 522.768 613.594 523.449 614.972C524.13 616.35 525.983 617.728 534.711 616.556C543.439 615.384 545.957 612.422 547.573 611.963C549.189 611.503 553.085 612.659 556.063 610.822C559.041 608.985 554.321 598.039 554.321 598.039C553.013 599.568 551.206 600.585 549.22 600.91C547.234 601.235 545.197 600.846 543.471 599.813Z" fill="white" stroke="#263238" stroke-linecap="round" stroke-linejoin="round"/>
<path d="M523.481 614.972C523.474 614.898 523.474 614.824 523.481 614.75C528.52 615.213 533.601 614.735 538.465 613.341C544.104 612.01 545.768 609.016 551.137 609.016C553.245 609.035 555.34 608.693 557.331 608.003C557.389 608.531 557.316 609.066 557.12 609.56C556.924 610.054 556.61 610.493 556.206 610.838C553.228 612.675 549.316 611.519 547.716 611.978C546.116 612.438 543.582 615.432 534.854 616.572C526.126 617.713 524.178 616.35 523.481 614.972Z" fill="white" stroke="#263238" stroke-linecap="round" stroke-linejoin="round"/>
<path d="M590.405 293.674C590.405 293.674 588.678 305.3 590.896 309.989C593.114 314.677 600.051 315.184 605.976 316.182C611.9 317.18 625.506 322.36 624.033 335.713C622.56 349.066 605.485 377.99 605.485 386.147C605.485 394.305 610.68 398.503 616.367 414.327C622.053 430.151 621.309 459.582 619.535 478.621C618.234 491.187 615.752 503.603 612.122 515.703C612.122 515.703 626.378 538.702 632.714 548.587C639.05 558.471 661.226 601.508 661.226 601.508C661.226 601.508 661.226 602.981 657.772 603.979C655.343 604.57 652.83 604.736 650.343 604.47C650.343 604.47 607.829 553.291 599.909 544.642C591.989 535.994 584.576 520.882 583.594 513.976C582.612 507.07 583.831 464.777 583.831 464.777C583.831 464.777 574.945 486.034 567.991 496.917C563.774 503.576 559.904 510.449 556.396 517.509C557.37 526.458 557.37 535.487 556.396 544.437C554.67 556.792 556.127 596.487 554.401 599.702C552.674 602.918 545.974 601.571 544.485 600.098C542.996 598.625 542.299 589.01 542.299 589.01C542.299 589.01 539.337 558.914 537.547 544.753C535.757 530.592 532.795 518.538 533.824 515.323C534.854 512.107 541 477.734 545.704 461.467C550.409 445.199 564.712 414.739 567.88 406.834C571.048 398.93 572.838 391.739 572.331 389.268C571.825 386.797 562.194 371.971 559.659 368.011C558.215 365.326 557.418 362.341 557.332 359.294C557.247 356.246 557.876 353.221 559.168 350.46C562.13 344.029 559.168 335.364 559.659 330.185C560.151 325.005 567.817 322.756 571.777 320.792C575.737 318.828 577.226 314.361 577.226 310.654C576.984 307.532 576.23 304.471 574.993 301.594C574.993 301.594 587.189 293.674 590.405 293.674Z" fill="white" stroke="#263238" stroke-linecap="round" stroke-linejoin="round"/>
<path d="M560.435 346.563C561.738 343.253 562.823 339.862 563.683 336.41" stroke="#263238" stroke-linecap="round" stroke-linejoin="round"/>
<path d="M592.543 374.093C592.543 374.093 588.077 375.075 579.127 370.608" stroke="#263238" stroke-linecap="round" stroke-linejoin="round"/>
<path d="M545.657 461.308C550.14 445.722 563.429 417.257 567.405 407.864C586.413 414.992 604.186 408.91 612.533 404.981C613.737 407.611 615.036 410.652 616.367 414.327C622.053 430.167 621.309 459.582 619.535 478.621C618.234 491.187 615.752 503.603 612.122 515.703C612.122 515.703 626.378 538.702 632.714 548.587C639.05 558.471 661.226 601.508 661.226 601.508C661.226 601.508 661.226 602.981 657.772 603.979C655.343 604.57 652.83 604.736 650.343 604.47C650.343 604.47 607.829 553.291 599.909 544.642C591.989 535.994 584.576 520.882 583.594 513.976C582.612 507.07 583.831 464.777 583.831 464.777C583.831 464.777 574.945 486.034 567.991 496.917C563.774 503.576 559.904 510.449 556.396 517.509C557.37 526.458 557.37 535.487 556.396 544.437C554.67 556.792 556.127 596.487 554.401 599.702C552.674 602.918 545.974 601.571 544.485 600.098C542.996 598.625 542.299 589.01 542.299 589.01C542.299 589.01 539.337 558.914 537.547 544.753C535.757 530.592 532.795 518.538 533.824 515.323C534.854 512.107 540.952 477.623 545.657 461.308Z" fill="#263238" stroke="#263238" stroke-linecap="round" stroke-linejoin="round"/>
<path d="M448.811 445.611V442.38H446.102V417.004H448.811H475.548H478.257V442.38H475.548V445.611H478.273V451.503H467.834V449.523H456.525V451.503H446.086V445.611H448.811Z" fill="#0489C7" stroke="#263238" stroke-linecap="round" stroke-linejoin="round"/>
<path d="M621.625 409.416H435.094C434.346 409.416 433.629 409.714 433.1 410.242C432.571 410.771 432.274 411.488 432.274 412.236V417.907C432.274 418.654 432.571 419.372 433.1 419.9C433.629 420.429 434.346 420.726 435.094 420.726H621.625V409.401V409.416Z" fill="#0489C7" stroke="#263238" stroke-linecap="round" stroke-linejoin="round"/>
<path d="M487.746 407.722H499.103C499.969 407.722 500.671 408.424 500.671 409.29V420.869C500.671 421.735 499.969 422.437 499.103 422.437H487.746C486.88 422.437 486.178 421.735 486.178 420.869V409.29C486.178 408.424 486.88 407.722 487.746 407.722Z" fill="#0489C7" stroke="#263238" stroke-linecap="round" stroke-linejoin="round"/>
<path d="M615.789 419.842C613.161 403.793 624.041 388.652 640.09 386.024C656.139 383.396 671.28 394.276 673.908 410.325C676.536 426.374 665.657 441.515 649.607 444.143C633.558 446.771 618.417 435.891 615.789 419.842Z" fill="#0489C7" stroke="#263238" stroke-linecap="round" stroke-linejoin="round"/>
<path d="M638.796 415.008C637.089 414.19 635.64 412.918 634.609 411.331C633.578 409.744 633.004 407.903 632.951 406.011C632.951 400.229 638.273 395.541 644.847 395.541C651.42 395.541 656.743 400.293 656.743 406.011C656.693 407.904 656.121 409.746 655.089 411.334C654.058 412.922 652.607 414.193 650.898 415.008C652.606 415.828 654.055 417.103 655.087 418.693C656.118 420.283 656.691 422.127 656.743 424.021C656.743 429.803 651.42 434.491 644.847 434.491C638.273 434.491 632.951 429.739 632.951 424.021C633.007 422.127 633.581 420.286 634.612 418.696C635.642 417.107 637.09 415.831 638.796 415.008Z" fill="white" stroke="#263238" stroke-linecap="round" stroke-linejoin="round"/>
<path d="M524.209 420.98C524.209 420.98 514.991 424.876 512.139 424.876C509.288 424.876 505.993 422.009 504.362 418.54C502.73 415.071 502.778 413.424 503.744 414.248L505.788 415.832C505.788 415.832 504.204 412.363 505.993 412.775C507.233 413.187 508.262 414.069 508.861 415.23C508.861 415.23 509.066 412.157 510.698 413.646C511.778 414.624 512.74 415.724 513.565 416.925C513.565 416.925 513.771 413.044 514.801 414.058C515.83 415.071 519.695 420.6 519.695 420.6L524.209 420.98Z" fill="white" stroke="#263238" stroke-linecap="round" stroke-linejoin="round"/>
<path d="M513.565 416.893C513.565 416.893 514.183 421.803 517.24 422.627L513.565 416.893Z" fill="white"/>
<path d="M513.565 416.893C513.565 416.893 514.183 421.803 517.24 422.627" stroke="#263238" stroke-linecap="round" stroke-linejoin="round"/>
<path d="M508.86 415.261C508.86 415.261 510.444 423.023 512.947 424.259L508.86 415.261Z" fill="white"/>
<path d="M508.86 415.261C508.86 415.261 510.444 423.023 512.947 424.259" stroke="#263238" stroke-linecap="round" stroke-linejoin="round"/>
<path d="M505.788 415.863C506.605 418.696 507.703 421.439 509.067 424.053L505.788 415.863Z" fill="white"/>
<path d="M505.788 415.863C506.605 418.696 507.703 421.439 509.067 424.053" stroke="#263238" stroke-linecap="round" stroke-linejoin="round"/>
<path d="M572.363 320.316C573.959 319.239 575.251 317.771 576.116 316.051C576.982 314.332 577.391 312.419 577.305 310.496C577.021 307.423 576.24 304.416 574.993 301.594C574.993 301.594 587.11 293.674 590.326 293.674C590.326 293.674 588.599 305.3 590.817 309.989C591.544 311.447 592.729 312.627 594.191 313.347C591.262 321.231 587.294 328.689 582.39 335.523C577.939 341.114 575.769 329.329 572.363 320.316Z" fill="white" stroke="#263238" stroke-linecap="round" stroke-linejoin="round"/>
<path d="M609.762 317.782C612.784 318.298 615.646 319.51 618.12 321.321C620.594 323.133 622.613 325.495 624.018 328.221C628.896 337.63 650.217 380.334 648.395 382.885C638.036 397.457 600.353 407.943 596.519 411.777C592.687 415.785 588.481 419.418 583.958 422.627C580.125 425.066 572.474 424.021 571.08 423.324C569.686 422.627 568.641 419.491 571.08 419.491C572.012 419.503 572.92 419.195 573.653 418.619C574.385 418.042 574.897 417.232 575.104 416.323C575.452 414.929 571.27 417.717 569.179 416.671C567.089 415.626 573.852 411.808 575.943 410.066C578.034 408.324 579.776 405.9 582.564 405.9C585.352 405.9 590.595 405.9 590.595 405.9C590.595 405.9 603.426 396.602 611.187 389.68C617.227 384.23 623.814 379.421 630.845 375.329L607.322 336.632" fill="white"/>
<path d="M609.762 317.782C612.784 318.298 615.646 319.51 618.12 321.321C620.594 323.133 622.613 325.495 624.018 328.221C628.896 337.63 650.217 380.334 648.395 382.885C638.036 397.457 600.353 407.943 596.519 411.777C592.687 415.785 588.481 419.418 583.958 422.627C580.125 425.066 572.474 424.021 571.08 423.324C569.686 422.627 568.641 419.491 571.08 419.491C572.012 419.503 572.92 419.195 573.653 418.619C574.385 418.042 574.897 417.232 575.104 416.323C575.452 414.929 571.27 417.717 569.18 416.671C567.089 415.626 573.852 411.808 575.943 410.066C578.034 408.324 579.776 405.9 582.564 405.9C585.352 405.9 590.595 405.9 590.595 405.9C590.595 405.9 603.426 396.602 611.187 389.68C617.227 384.23 623.814 379.421 630.845 375.329L607.322 336.632" stroke="#263238" stroke-linecap="round" stroke-linejoin="round"/>
<path d="M575.959 410.082C578.049 408.339 579.792 405.916 582.58 405.916C585.368 405.916 590.611 405.916 590.611 405.916C590.611 405.916 603.441 396.618 611.203 389.696C617.242 384.246 623.83 379.437 630.86 375.345L621.451 359.853C626.261 356.942 631.764 355.372 637.386 355.307C643.722 368.518 649.409 381.57 648.474 382.948C638.115 397.521 600.431 408.007 596.598 411.84C592.766 415.848 588.56 419.482 584.037 422.69C580.204 425.13 572.553 424.084 571.159 423.387C569.765 422.69 568.72 419.554 571.159 419.554C572.091 419.566 572.999 419.258 573.731 418.682C574.464 418.105 574.976 417.295 575.182 416.386C575.531 414.992 571.349 417.78 569.258 416.735C567.167 415.689 573.868 411.84 575.959 410.082Z" fill="white" stroke="#263238" stroke-linecap="round" stroke-linejoin="round"/>
<path d="M563.208 276.614C564.443 274.143 564.443 272.163 563.952 268.694C563.461 265.225 566.423 256.814 566.423 256.814C569.449 262.041 578.192 265.146 582.057 266.318C586.318 267.617 580.093 270.563 580.759 274.507C581.424 278.451 589.93 280.732 589.93 280.732C589.93 280.732 592.417 275.616 595.87 275.616C599.323 275.616 601.778 283.536 599.814 287.734C599.302 288.896 598.411 289.851 597.286 290.441C596.16 291.031 594.868 291.221 593.621 290.981C593.621 290.981 593.858 298.41 589.17 300.627C584.167 303.014 578.948 304.919 573.583 306.314C570.621 306.805 567.659 305.332 566.423 300.881C565.457 296.395 564.796 291.849 564.443 287.274C562.369 285.917 560.461 284.322 558.757 282.522C557.569 280.812 561.972 279.085 563.208 276.614Z" fill="white" stroke="#263238" stroke-linecap="round" stroke-linejoin="round"/>
<path d="M568.023 276.725C568.023 278.087 568.467 279.18 569.005 279.18C569.544 279.18 569.987 278.087 569.987 276.725C569.987 275.363 569.544 274.27 569.005 274.27C568.467 274.27 568.023 275.363 568.023 276.725Z" fill="#263238"/>
<path d="M572.284 272.638C572.284 272.638 569.654 269.676 567.69 270.341" stroke="#263238" stroke-linecap="round" stroke-linejoin="round"/>
<path d="M567.69 292.945C568.877 293.303 570.137 293.345 571.346 293.067C572.554 292.79 573.669 292.201 574.581 291.361" stroke="#263238" stroke-linecap="round" stroke-linejoin="round"/>
<path d="M661.115 601.508C661.115 601.508 667.023 613.357 666.802 614.972C666.58 616.588 654.858 625.078 649.378 628.056C643.897 631.034 633.981 631.509 634.678 627.375C635.375 623.241 644.784 620.485 647.081 614.275C648.304 611.063 649.361 607.791 650.249 604.47C654.078 604.527 657.845 603.5 661.115 601.508Z" fill="white" stroke="#263238" stroke-linecap="round" stroke-linejoin="round"/>
<path d="M634.646 627.438C638.863 628.004 643.155 627.395 647.049 625.68C655.555 621.989 663.791 614.449 666.057 612.311C666.459 613.165 666.716 614.081 666.817 615.02C666.579 616.604 654.874 625.126 649.393 628.104C643.912 631.081 634.076 631.493 634.646 627.438Z" fill="white" stroke="#263238" stroke-linecap="round" stroke-linejoin="round"/>
</svg>
