<svg width="606" height="470" viewBox="0 0 606 470" fill="none" xmlns="http://www.w3.org/2000/svg">
<g clip-path="url(#clip0)">
<path d="M554.683 469.376H1.52588e-05" stroke="#3F3D56" stroke-width="2" stroke-miterlimit="10"/>
<path d="M219.078 44.7016C213.987 44.7016 209.861 40.5812 209.861 35.4985C209.861 30.4158 213.987 26.2954 219.078 26.2954C224.168 26.2954 228.295 30.4158 228.295 35.4985C228.295 40.5812 224.168 44.7016 219.078 44.7016Z" stroke="#3F3D56" stroke-width="2" stroke-miterlimit="10"/>
<path d="M499.376 67.7787C494.286 67.7787 490.159 63.6584 490.159 58.5756C490.159 53.4929 494.286 49.3726 499.376 49.3726C504.466 49.3726 508.593 53.4929 508.593 58.5756C508.593 63.6584 504.466 67.7787 499.376 67.7787Z" stroke="#3F3D56" stroke-width="2" stroke-miterlimit="10"/>
<path d="M508.003 68.2204H357.704C350.452 68.2204 343.415 70.6842 337.75 75.2069C332.086 79.7296 328.131 86.042 326.536 93.1065L250.593 429.449C249.765 433.118 249.75 436.923 250.55 440.598C251.351 444.273 252.946 447.728 255.225 450.722C257.504 453.716 260.412 456.176 263.744 457.93C267.076 459.683 270.751 460.688 274.513 460.873L429.021 468.474C437.295 468.881 445.434 466.268 451.92 461.124C458.406 455.979 462.796 448.654 464.27 440.515L507.35 202.717L510.555 203.631L518.798 158.56L515.499 157.736L527.524 91.3582C528.039 88.5151 527.919 85.5935 527.174 82.8018C526.428 80.0101 525.075 77.4169 523.211 75.2072C521.347 72.9975 519.017 71.2257 516.389 70.018C513.76 68.8103 510.897 68.1965 508.003 68.2204Z" fill="#3F3D56"/>
<path d="M265.5 422.5L339.5 90.5C341.996 79.3 352.873 75.8333 358 75.5H377.5C378.3 82.7 384.5 85.1667 387.5 85.5H467.5C471.5 85.5 473.5 82.1667 474 80.5C475.2 76.9 478.833 75.6667 480.5 75.5H499C509.4 75.5 513 85.5 513.5 90.5C493.333 202.167 452.5 428.3 450.5 439.5C448.5 450.7 438.333 453.167 433.5 453L281 443.5C263 442.3 263.167 429 265.5 422.5Z" fill="white"/>
<path d="M328.426 161.695H487.789V162.479H328.426V161.695Z" fill="#2F2E41"/>
<path d="M322.146 187.17H483.078V187.954H322.146V187.17Z" fill="#2F2E41"/>
<path d="M477.725 160.454L474.104 155.633L474.732 155.163L477.861 159.33L489.921 149.478L490.417 150.085L477.725 160.454Z" fill="#2F2E41"/>
<path d="M456.921 274.113L453.3 269.292L453.928 268.822L457.058 272.988L469.118 263.137L469.614 263.744L456.921 274.113Z" fill="#2F2E41"/>
<path d="M304.491 274.178L471.311 277.706L471.295 278.489L304.475 274.962L304.491 274.178Z" fill="#2F2E41"/>
<path d="M299.389 297.301L469.349 301.221L469.331 302.005L299.371 298.085L299.389 297.301Z" fill="#2F2E41"/>
<path opacity="0.1" d="M403.594 364.125C403.594 374 399.665 383.47 392.672 390.453C385.679 397.436 376.194 401.358 366.304 401.358C356.415 401.358 346.93 397.436 339.937 390.453C332.944 383.47 329.015 374 329.015 364.125C329.015 363.659 329.023 363.196 329.043 362.734C329.407 352.986 333.589 343.771 340.687 337.07C347.786 330.369 357.235 326.716 367.002 326.899C376.769 327.081 386.075 331.083 392.918 338.045C399.76 345.006 403.594 354.371 403.594 364.125H403.594Z" fill="#93C1F9"/>
<path opacity="0.1" d="M400.061 378.627C400.061 379.093 400.053 379.556 400.033 380.018C396.416 387.669 390.298 393.861 382.685 397.576C375.073 401.291 366.421 402.307 358.153 400.457C349.885 398.607 342.495 394.001 337.199 387.397C331.902 380.793 329.016 372.586 329.015 364.125C329.015 363.659 329.023 363.197 329.043 362.734C332.66 355.084 338.778 348.891 346.391 345.176C354.003 341.461 362.655 340.445 370.923 342.295C379.191 344.145 386.581 348.751 391.877 355.355C397.174 361.959 400.06 370.167 400.061 378.627H400.061Z" fill="#0AB1B1"/>
</g>
<defs>
<clipPath id="clip0">
<rect width="606" height="470" fill="white" transform="matrix(-1 0 0 1 606 0)"/>
</clipPath>
</defs>
</svg>
