<svg width="122" height="112" viewBox="0 0 122 112" fill="none" xmlns="http://www.w3.org/2000/svg">
<path d="M1.386 97.184H6.948C8.328 97.184 9.402 97.52 10.17 98.192C10.938 98.852 11.322 99.758 11.322 100.91C11.322 102.062 10.932 102.974 10.152 103.646C9.384 104.318 8.316 104.654 6.948 104.654H3.708V110H1.386V97.184ZM6.678 102.854C7.482 102.854 8.088 102.692 8.496 102.368C8.916 102.032 9.126 101.552 9.126 100.928C9.126 100.292 8.922 99.812 8.514 99.488C8.106 99.152 7.494 98.984 6.678 98.984H3.708V102.854H6.678ZM17.0003 110.144C16.0763 110.144 15.2603 109.952 14.5523 109.568C13.8563 109.184 13.3163 108.638 12.9323 107.93C12.5603 107.21 12.3743 106.37 12.3743 105.41C12.3743 104.45 12.5603 103.616 12.9323 102.908C13.3163 102.188 13.8563 101.636 14.5523 101.252C15.2603 100.868 16.0763 100.676 17.0003 100.676C17.9123 100.676 18.7163 100.868 19.4123 101.252C20.1083 101.636 20.6423 102.188 21.0143 102.908C21.3983 103.616 21.5903 104.45 21.5903 105.41C21.5903 106.37 21.3983 107.21 21.0143 107.93C20.6423 108.638 20.1083 109.184 19.4123 109.568C18.7163 109.952 17.9123 110.144 17.0003 110.144ZM16.9823 108.38C17.7503 108.38 18.3323 108.134 18.7283 107.642C19.1363 107.138 19.3403 106.394 19.3403 105.41C19.3403 104.438 19.1363 103.7 18.7283 103.196C18.3203 102.68 17.7443 102.422 17.0003 102.422C16.2443 102.422 15.6623 102.68 15.2543 103.196C14.8463 103.7 14.6423 104.438 14.6423 105.41C14.6423 106.394 14.8403 107.138 15.2363 107.642C15.6443 108.134 16.2263 108.38 16.9823 108.38ZM26.8606 110.144C25.2166 110.144 23.9086 109.76 22.9366 108.992L23.5666 107.408C24.5386 108.128 25.6486 108.488 26.8966 108.488C27.4366 108.488 27.8506 108.398 28.1386 108.218C28.4386 108.038 28.5886 107.786 28.5886 107.462C28.5886 107.186 28.4866 106.97 28.2826 106.814C28.0786 106.646 27.7306 106.502 27.2386 106.382L25.7266 106.04C24.0706 105.68 23.2426 104.834 23.2426 103.502C23.2426 102.95 23.3986 102.464 23.7106 102.044C24.0226 101.612 24.4606 101.276 25.0246 101.036C25.5886 100.796 26.2426 100.676 26.9866 100.676C27.6346 100.676 28.2586 100.778 28.8586 100.982C29.4586 101.174 29.9866 101.456 30.4426 101.828L29.7766 103.358C28.8646 102.686 27.9286 102.35 26.9686 102.35C26.4526 102.35 26.0506 102.446 25.7626 102.638C25.4746 102.83 25.3306 103.094 25.3306 103.43C25.3306 103.694 25.4146 103.904 25.5826 104.06C25.7626 104.216 26.0626 104.348 26.4826 104.456L28.0306 104.798C28.9306 105.002 29.5846 105.32 29.9926 105.752C30.4126 106.172 30.6226 106.724 30.6226 107.408C30.6226 108.248 30.2866 108.914 29.6146 109.406C28.9426 109.898 28.0246 110.144 26.8606 110.144ZM35.3223 102.602V106.67C35.3223 107.738 35.8203 108.272 36.8163 108.272C37.0923 108.272 37.3923 108.224 37.7163 108.128V109.91C37.3203 110.054 36.8403 110.126 36.2763 110.126C35.2443 110.126 34.4523 109.838 33.9003 109.262C33.3483 108.686 33.0723 107.858 33.0723 106.778V102.602H31.3263V100.91H33.0723V98.696L35.3223 97.94V100.91H37.7343V102.602H35.3223ZM44.2201 100.91H46.4521V110H44.2201V100.91ZM46.5781 96.788V99.002H44.0761V96.788H46.5781ZM54.1155 100.676C56.2875 100.676 57.3735 101.924 57.3735 104.42V110H55.1235V104.528C55.1235 103.808 54.9855 103.286 54.7095 102.962C54.4335 102.626 54.0075 102.458 53.4315 102.458C52.7475 102.458 52.1955 102.68 51.7755 103.124C51.3555 103.556 51.1455 104.132 51.1455 104.852V110H48.9135V103.484C48.9135 102.524 48.8655 101.666 48.7695 100.91H50.8755L51.0375 102.404C51.3495 101.852 51.7695 101.426 52.2975 101.126C52.8375 100.826 53.4435 100.676 54.1155 100.676ZM68.3632 100.928L64.3852 110H62.4232L58.4992 100.928H60.8572L63.4672 107.444L66.1312 100.928H68.3632ZM77.3304 105.572H71.0664C71.1144 106.544 71.3544 107.264 71.7864 107.732C72.2304 108.188 72.8844 108.416 73.7484 108.416C74.7444 108.416 75.6684 108.092 76.5204 107.444L77.1684 108.992C76.7364 109.34 76.2024 109.622 75.5664 109.838C74.9424 110.042 74.3064 110.144 73.6584 110.144C72.1704 110.144 71.0004 109.724 70.1484 108.884C69.2964 108.044 68.8704 106.892 68.8704 105.428C68.8704 104.504 69.0564 103.682 69.4284 102.962C69.8004 102.242 70.3224 101.684 70.9944 101.288C71.6664 100.88 72.4284 100.676 73.2804 100.676C74.5284 100.676 75.5124 101.084 76.2324 101.9C76.9644 102.704 77.3304 103.814 77.3304 105.23V105.572ZM73.3344 102.296C72.7344 102.296 72.2424 102.476 71.8584 102.836C71.4864 103.184 71.2464 103.694 71.1384 104.366H75.3684C75.2964 103.682 75.0864 103.166 74.7384 102.818C74.4024 102.47 73.9344 102.296 73.3344 102.296ZM84.4377 100.676C86.6097 100.676 87.6957 101.924 87.6957 104.42V110H85.4457V104.528C85.4457 103.808 85.3077 103.286 85.0317 102.962C84.7557 102.626 84.3297 102.458 83.7537 102.458C83.0697 102.458 82.5177 102.68 82.0977 103.124C81.6777 103.556 81.4677 104.132 81.4677 104.852V110H79.2357V103.484C79.2357 102.524 79.1877 101.666 79.0917 100.91H81.1977L81.3597 102.404C81.6717 101.852 82.0917 101.426 82.6197 101.126C83.1597 100.826 83.7657 100.676 84.4377 100.676ZM92.9434 102.602V106.67C92.9434 107.738 93.4414 108.272 94.4374 108.272C94.7134 108.272 95.0134 108.224 95.3374 108.128V109.91C94.9414 110.054 94.4614 110.126 93.8974 110.126C92.8654 110.126 92.0734 109.838 91.5214 109.262C90.9694 108.686 90.6934 107.858 90.6934 106.778V102.602H88.9474V100.91H90.6934V98.696L92.9434 97.94V100.91H95.3554V102.602H92.9434ZM96.9017 100.91H99.1337V110H96.9017V100.91ZM99.2597 96.788V99.002H96.7577V96.788H99.2597ZM105.717 110.144C104.793 110.144 103.977 109.952 103.269 109.568C102.573 109.184 102.033 108.638 101.649 107.93C101.277 107.21 101.091 106.37 101.091 105.41C101.091 104.45 101.277 103.616 101.649 102.908C102.033 102.188 102.573 101.636 103.269 101.252C103.977 100.868 104.793 100.676 105.717 100.676C106.629 100.676 107.433 100.868 108.129 101.252C108.825 101.636 109.359 102.188 109.731 102.908C110.115 103.616 110.307 104.45 110.307 105.41C110.307 106.37 110.115 107.21 109.731 107.93C109.359 108.638 108.825 109.184 108.129 109.568C107.433 109.952 106.629 110.144 105.717 110.144ZM105.699 108.38C106.467 108.38 107.049 108.134 107.445 107.642C107.853 107.138 108.057 106.394 108.057 105.41C108.057 104.438 107.853 103.7 107.445 103.196C107.037 102.68 106.461 102.422 105.717 102.422C104.961 102.422 104.379 102.68 103.971 103.196C103.563 103.7 103.359 104.438 103.359 105.41C103.359 106.394 103.557 107.138 103.953 107.642C104.361 108.134 104.943 108.38 105.699 108.38ZM117.449 100.676C119.621 100.676 120.707 101.924 120.707 104.42V110H118.457V104.528C118.457 103.808 118.319 103.286 118.043 102.962C117.767 102.626 117.341 102.458 116.765 102.458C116.081 102.458 115.529 102.68 115.109 103.124C114.689 103.556 114.479 104.132 114.479 104.852V110H112.247V103.484C112.247 102.524 112.199 101.666 112.103 100.91H114.209L114.371 102.404C114.683 101.852 115.103 101.426 115.631 101.126C116.171 100.826 116.777 100.676 117.449 100.676Z" fill="#9D9F9F"/>
<g filter="url(#filter0_d)">
<circle cx="61.1744" cy="43.7076" r="42.2462" fill="#0489C7"/>
</g>
<path d="M77.7589 48.384H64.8309V61.312H59.1989V48.384H46.2709V42.688H59.1989V29.76H64.8309V42.688H77.7589V48.384Z" fill="white"/>
<defs>
<filter id="filter0_d" x="8.92822" y="1.46143" width="104.492" height="104.492" filterUnits="userSpaceOnUse" color-interpolation-filters="sRGB">
<feFlood flood-opacity="0" result="BackgroundImageFix"/>
<feColorMatrix in="SourceAlpha" type="matrix" values="0 0 0 0 0 0 0 0 0 0 0 0 0 0 0 0 0 0 127 0"/>
<feOffset dy="10"/>
<feGaussianBlur stdDeviation="5"/>
<feColorMatrix type="matrix" values="0 0 0 0 0.0752431 0 0 0 0 0.583774 0 0 0 0 0.820833 0 0 0 0.08 0"/>
<feBlend mode="normal" in2="BackgroundImageFix" result="effect1_dropShadow"/>
<feBlend mode="normal" in="SourceGraphic" in2="effect1_dropShadow" result="shape"/>
</filter>
</defs>
</svg>
