<svg width="697" height="610" viewBox="0 0 697 610" fill="none" xmlns="http://www.w3.org/2000/svg">
<path d="M39.0663 617.272H664.669C664.669 617.272 684.534 583.8 698.309 516.52C712.085 449.24 646.437 473.797 629.65 415.802C612.864 357.806 686.098 370.035 679.992 290.678C673.887 211.321 573.185 209.807 524.357 220.488C475.529 231.169 481.634 194.552 425.119 133.512C368.604 72.472 283.209 78.5777 240.486 125.892C197.763 173.207 211.505 222.019 158.068 222.019C104.631 222.019 55.7855 232.75 23.8275 334.982C-8.13055 437.214 50.3526 483.94 49.293 530.094C48.4179 559.395 44.9962 588.564 39.0663 617.272Z" fill="#0489C7"/>
<path opacity="0.7" d="M39.0663 617.272H664.669C664.669 617.272 684.534 583.8 698.309 516.52C712.085 449.24 646.437 473.797 629.65 415.802C612.864 357.806 686.098 370.035 679.992 290.678C673.887 211.321 573.185 209.807 524.357 220.488C475.529 231.169 481.634 194.552 425.119 133.512C368.604 72.472 283.209 78.5777 240.486 125.892C197.763 173.207 211.505 222.019 158.068 222.019C104.631 222.019 55.7855 232.75 23.8275 334.982C-8.13055 437.214 50.3526 483.94 49.293 530.094C48.4179 559.395 44.9962 588.564 39.0663 617.272Z" fill="white"/>
<path d="M411.68 617.272C427.003 593.942 492.416 495.848 511.558 493.224C530.211 490.668 596.499 589.855 614.429 617.272H411.68Z" fill="#2E353A" stroke="#2E353A" stroke-linecap="round" stroke-linejoin="round"/>
<path d="M327.799 44.0967V270.309" stroke="#2E353A" stroke-width="3" stroke-linecap="round" stroke-linejoin="round"/>
<path d="M300.921 50.1687V270.309" stroke="#2E353A" stroke-width="3" stroke-linecap="round" stroke-linejoin="round"/>
<path d="M271.452 170.633V383.861" stroke="#2E353A" stroke-width="3" stroke-linecap="round" stroke-linejoin="round"/>
<path d="M240.251 50.1687V383.861" stroke="#2E353A" stroke-width="3" stroke-linecap="round" stroke-linejoin="round"/>
<path d="M209.05 50.1687V276.381" stroke="#2E353A" stroke-width="3" stroke-linecap="round" stroke-linejoin="round"/>
<path d="M351.196 74.4231H208.175" stroke="#2E353A" stroke-width="3" stroke-linecap="round" stroke-linejoin="round"/>
<path d="M351.196 124.698H196.099" stroke="#2E353A" stroke-width="3" stroke-linecap="round" stroke-linejoin="round"/>
<path d="M353.786 170.633H181.314" stroke="#2E353A" stroke-width="3" stroke-linecap="round" stroke-linejoin="round"/>
<path d="M356.393 221.783H181.314" stroke="#2E353A" stroke-width="3" stroke-linecap="round" stroke-linejoin="round"/>
<path d="M323.459 277.239H190.851" stroke="#2E353A" stroke-width="3" stroke-linecap="round" stroke-linejoin="round"/>
<path d="M288.794 330.979H202.12" stroke="#2E353A" stroke-width="3" stroke-linecap="round" stroke-linejoin="round"/>
<path d="M516.974 65.5758L486.378 89.5275" stroke="#2E353A" stroke-width="2" stroke-linecap="round" stroke-linejoin="round"/>
<path d="M455.782 40.3121L445.135 56.2743" stroke="#2E353A" stroke-width="2" stroke-linecap="round" stroke-linejoin="round"/>
<path d="M401.235 1.72705L391.917 30.9938" stroke="#2E353A" stroke-width="2" stroke-linecap="round" stroke-linejoin="round"/>
<path d="M226.677 377.822H277.137V257.845H345.594V45.3582C374.446 45.643 402.739 53.3448 427.754 67.7231C452.768 82.1014 473.664 102.673 488.432 127.46C503.2 152.247 511.343 180.416 512.079 209.259C512.815 238.102 506.119 266.65 492.635 292.158C487.152 304.924 474.267 336.193 461.366 376.628C449.441 413.952 443.218 451.477 443.218 457.145C443.218 457.7 443.218 458.272 443.218 458.827C443.276 460.515 442.995 462.196 442.39 463.773C441.785 465.349 440.869 466.787 439.697 468.002C438.524 469.217 437.12 470.183 435.566 470.843C434.012 471.504 432.341 471.845 430.653 471.846H256.987C255.299 471.843 253.629 471.5 252.077 470.839C250.524 470.177 249.12 469.211 247.948 467.997C246.776 466.782 245.86 465.345 245.255 463.77C244.649 462.195 244.366 460.514 244.422 458.827C244.422 458.222 244.422 457.65 244.422 457.145C244.456 451.544 238.35 414.742 226.677 377.822Z" fill="#0489C7" stroke="#2E353A" stroke-width="2" stroke-linecap="round" stroke-linejoin="round"/>
<path d="M402.598 72.472C397.73 70.2775 392.737 68.3735 387.645 66.77" stroke="#2E353A" stroke-width="2" stroke-linecap="round" stroke-linejoin="round"/>
<path d="M458.608 115.094C458.608 115.094 444.9 93.2279 414.775 78.5104" stroke="#2E353A" stroke-width="2" stroke-linecap="round" stroke-linejoin="round"/>
<path d="M455.009 357.167C448.769 377.553 440.51 405.794 437.651 421.571C432.806 448.18 435.969 461.939 425.54 464.311" stroke="#2E353A" stroke-width="2" stroke-linecap="round" stroke-linejoin="round"/>
<path d="M462.645 332.845C462.645 332.845 460.963 338.312 458.255 346.688" stroke="#2E353A" stroke-width="2" stroke-linecap="round" stroke-linejoin="round"/>
<path d="M354.476 470.214V309.415C354.476 309.415 347.748 267.365 369.614 267.365C391.48 267.365 389.798 289.231 364.568 312.779C339.338 336.327 300.652 314.461 295.606 295.959C290.56 277.457 304.016 269.047 312.426 284.185C320.836 299.323 312.426 470.887 312.426 470.887" stroke="#2E353A" stroke-width="2" stroke-linecap="round" stroke-linejoin="round"/>
<path d="M252.597 470.87H434.102V512.988H252.597V470.87Z" fill="white" stroke="#2E353A" stroke-width="2" stroke-linecap="round" stroke-linejoin="round"/>
<path d="M252.597 523.012H434.102V565.13H252.597V523.012Z" fill="white" stroke="#2E353A" stroke-width="2" stroke-linecap="round" stroke-linejoin="round"/>
<path d="M252.597 512.988H434.102V523.013H252.597V512.988Z" fill="#2E353A" stroke="#2E353A" stroke-linecap="round" stroke-linejoin="round"/>
<path d="M252.597 575.155H434.102V617.272H252.597V575.155Z" fill="white" stroke="#2E353A" stroke-width="2" stroke-linecap="round" stroke-linejoin="round"/>
<path d="M271.586 507.353H258.097" stroke="#2E353A" stroke-linecap="round" stroke-linejoin="round"/>
<path d="M426.97 507.353H278.079" stroke="#2E353A" stroke-linecap="round" stroke-linejoin="round"/>
<path d="M306.572 560.319H263.093" stroke="#2E353A" stroke-linecap="round" stroke-linejoin="round"/>
<path d="M400.024 560.319H311.568" stroke="#2E353A" stroke-linecap="round" stroke-linejoin="round"/>
<path d="M414.506 560.319H407.021" stroke="#2E353A" stroke-linecap="round" stroke-linejoin="round"/>
<path d="M252.597 565.13H434.102V575.155H252.597V565.13Z" fill="#2E353A" stroke="#2E353A" stroke-linecap="round" stroke-linejoin="round"/>
<path d="M348.337 584.389H410.47V616.734H348.337V584.389Z" fill="#0489C7" stroke="#2E353A" stroke-linecap="round" stroke-linejoin="round"/>
<path d="M267.483 584.389H329.616V616.734H267.483V584.389Z" fill="#0489C7" stroke="#2E353A" stroke-linecap="round" stroke-linejoin="round"/>
<path d="M211.59 617.272C223.499 606.827 274.345 562.909 289.147 561.766C303.646 560.605 355.115 605.027 369.042 617.272H211.59Z" fill="#2E353A" stroke="#2E353A" stroke-linecap="round" stroke-linejoin="round"/>
<path d="M44.668 521.28H88.3159V582.505H70.2344H44.668H26.5696V551.893L44.668 521.28Z" fill="#2E353A" stroke="#2E353A" stroke-linecap="round" stroke-linejoin="round"/>
<path d="M26.5695 582.505H46.5684V596.415H26.5695V582.505Z" fill="white" stroke="#2E353A" stroke-linecap="round" stroke-linejoin="round"/>
<path d="M120.762 581.815C120.762 581.815 98.8959 570.041 106.465 511.171L134.218 496.033L182.155 488.464L225.046 490.146V514.535C225.046 514.535 200.657 535.56 198.134 542.288C196.552 546.893 195.7 551.717 195.611 556.585V580.133L120.762 581.815Z" fill="#0489C7" stroke="#2E353A" stroke-linecap="round" stroke-linejoin="round"/>
<path d="M106.465 511.171L120.762 581.815" stroke="#2E353A" stroke-linecap="round" stroke-linejoin="round"/>
<path d="M134.218 496.033L150.197 581.815" stroke="#2E353A" stroke-linecap="round" stroke-linejoin="round"/>
<path d="M182.155 488.464L193.929 552.38" stroke="#2E353A" stroke-linecap="round" stroke-linejoin="round"/>
<path d="M223.364 511.171C223.364 511.171 195.611 522.945 184.678 530.514C173.745 538.083 175.427 554.062 175.427 554.062" stroke="#2E353A" stroke-linecap="round" stroke-linejoin="round"/>
<path d="M87.929 582.942H218.334V593.875H87.929V582.942Z" fill="white" stroke="#2E353A" stroke-linecap="round" stroke-linejoin="round"/>
<path d="M61.8921 554.903H34.6605L49.2771 529.673H61.8921V554.903Z" fill="white" stroke="#2E353A" stroke-linecap="round" stroke-linejoin="round"/>
<path d="M66.0971 529.673H77.8711V554.903H66.0971V529.673Z" fill="white" stroke="#2E353A" stroke-linecap="round" stroke-linejoin="round"/>
<path d="M138.255 582.505H217.645V601.461H138.255V582.505Z" fill="white" stroke="#2E353A" stroke-linecap="round" stroke-linejoin="round"/>
<path d="M63.0459 616.965C53.9684 615.325 47.939 606.637 49.5789 597.559C51.2187 588.482 59.9068 582.452 68.9842 584.092C78.0617 585.732 84.0911 594.42 82.4512 603.498C80.8114 612.575 72.1233 618.605 63.0459 616.965Z" fill="#2E353A" stroke="#2E353A" stroke-linecap="round" stroke-linejoin="round"/>
<path d="M66.0464 610.325C60.6678 610.325 56.3076 605.965 56.3076 600.586C56.3076 595.208 60.6678 590.848 66.0464 590.848C71.425 590.848 75.7852 595.208 75.7852 600.586C75.7852 605.965 71.425 610.325 66.0464 610.325Z" fill="white" stroke="#2E353A" stroke-linecap="round" stroke-linejoin="round"/>
<path d="M191.774 617C182.691 615.392 176.631 606.725 178.239 597.642C179.847 588.559 188.514 582.499 197.597 584.107C206.681 585.715 212.74 594.382 211.132 603.465C209.524 612.549 200.857 618.608 191.774 617Z" fill="#2E353A" stroke="#2E353A" stroke-linecap="round" stroke-linejoin="round"/>
<path d="M194.719 610.325C189.341 610.325 184.98 605.965 184.98 600.586C184.98 595.208 189.341 590.848 194.719 590.848C200.098 590.848 204.458 595.208 204.458 600.586C204.458 605.965 200.098 610.325 194.719 610.325Z" fill="white" stroke="#2E353A" stroke-linecap="round" stroke-linejoin="round"/>
<path d="M143.097 612.817C136.302 606.578 135.852 596.012 142.091 589.218C148.33 582.423 158.896 581.973 165.69 588.212C172.485 594.451 172.935 605.017 166.696 611.811C160.457 618.606 149.891 619.056 143.097 612.817Z" fill="#2E353A" stroke="#2E353A" stroke-linecap="round" stroke-linejoin="round"/>
<path d="M154.402 610.325C149.023 610.325 144.663 605.965 144.663 600.586C144.663 595.208 149.023 590.848 154.402 590.848C159.78 590.848 164.141 595.208 164.141 600.586C164.141 605.965 159.78 610.325 154.402 610.325Z" fill="white" stroke="#2E353A" stroke-linecap="round" stroke-linejoin="round"/>
<path d="M159.868 553.221H201.918C204.937 553.221 207.385 555.669 207.385 558.688V576.349C207.385 579.368 204.937 581.815 201.918 581.815H159.868C156.849 581.815 154.402 579.368 154.402 576.349V558.688C154.402 555.669 156.849 553.221 159.868 553.221Z" fill="#2E353A" stroke="#2E353A" stroke-linecap="round" stroke-linejoin="round"/>
<path d="M228.41 581.815V498.64H211.59V581.815" stroke="#2E353A" stroke-linecap="round" stroke-linejoin="round"/>
<path d="M228.292 509.658H211.775" stroke="#2E353A" stroke-linecap="round" stroke-linejoin="round"/>
<path d="M228.292 522.643H211.775" stroke="#2E353A" stroke-linecap="round" stroke-linejoin="round"/>
<path d="M228.292 535.628H211.775" stroke="#2E353A" stroke-linecap="round" stroke-linejoin="round"/>
<path d="M228.292 548.629H211.775" stroke="#2E353A" stroke-linecap="round" stroke-linejoin="round"/>
<path d="M228.292 561.615H211.775" stroke="#2E353A" stroke-linecap="round" stroke-linejoin="round"/>
<path d="M228.292 574.6H211.775" stroke="#2E353A" stroke-linecap="round" stroke-linejoin="round"/>
<path d="M564.827 618.903H595.103V90.7554L564.827 125.96V618.903Z" stroke="#2E353A" stroke-linecap="round" stroke-linejoin="round"/>
<path d="M594.8 507.891H565.113L594.8 479.18H565.113L594.8 507.891Z" stroke="#2E353A" stroke-linecap="round" stroke-linejoin="round"/>
<path d="M594.8 478.456H565.113L594.8 449.745H565.113L594.8 478.456Z" stroke="#2E353A" stroke-linecap="round" stroke-linejoin="round"/>
<path d="M594.8 449.021H565.113L594.8 420.31H565.113L594.8 449.021Z" stroke="#2E353A" stroke-linecap="round" stroke-linejoin="round"/>
<path d="M594.8 419.586H565.113L594.8 390.875H565.113L594.8 419.586Z" stroke="#2E353A" stroke-linecap="round" stroke-linejoin="round"/>
<path d="M594.8 390.151H565.113L594.8 361.44H565.113L594.8 390.151Z" stroke="#2E353A" stroke-linecap="round" stroke-linejoin="round"/>
<path d="M594.8 360.716H565.113L594.8 332.005H565.113L594.8 360.716Z" stroke="#2E353A" stroke-linecap="round" stroke-linejoin="round"/>
<path d="M594.8 331.281H565.113L594.8 302.57H565.113L594.8 331.281Z" stroke="#2E353A" stroke-linecap="round" stroke-linejoin="round"/>
<path d="M594.8 301.846H565.113L594.8 273.135H565.113L594.8 301.846Z" stroke="#2E353A" stroke-linecap="round" stroke-linejoin="round"/>
<path d="M594.8 272.411H565.113L594.8 243.7H565.113L594.8 272.411Z" stroke="#2E353A" stroke-linecap="round" stroke-linejoin="round"/>
<path d="M594.8 242.976H565.113L594.8 214.265H565.113L594.8 242.976Z" stroke="#2E353A" stroke-linecap="round" stroke-linejoin="round"/>
<path d="M594.8 213.541H565.113L594.8 184.83H565.113L594.8 213.541Z" stroke="#2E353A" stroke-linecap="round" stroke-linejoin="round"/>
<path d="M594.8 184.106H565.113L594.8 155.395H565.113L594.8 184.106Z" stroke="#2E353A" stroke-linecap="round" stroke-linejoin="round"/>
<path d="M594.8 154.671H565.113L594.8 125.96H565.113L594.8 154.671Z" stroke="#2E353A" stroke-linecap="round" stroke-linejoin="round"/>
<path d="M424.262 155.462L438.929 146.228H543.6L556.383 155.462H424.262Z" stroke="#2E353A" stroke-linecap="round" stroke-linejoin="round"/>
<path d="M421.84 154.671H677.504V161.399H421.84V154.671Z" fill="#2E353A" stroke="#2E353A" stroke-linecap="round" stroke-linejoin="round"/>
<path d="M438.929 146.228L595.103 90.7554L543.6 146.228" stroke="#2E353A" stroke-linecap="round" stroke-linejoin="round"/>
<path d="M595.086 90.7554L677.504 154.671" stroke="#2E353A" stroke-linecap="round" stroke-linejoin="round"/>
<path d="M542.944 168.968H606.019V209.336H542.944V168.968Z" fill="#2E353A" stroke="#2E353A" stroke-linecap="round" stroke-linejoin="round"/>
<path d="M556.097 177.378H592.883V189.152H556.097V177.378Z" fill="white" stroke="#2E353A" stroke-linecap="round" stroke-linejoin="round"/>
<path d="M421.84 161.399V233.927" stroke="#2E353A" stroke-linecap="round" stroke-linejoin="round"/>
<path d="M412.252 258.703H430.939V279.879H412.252V258.703Z" fill="#2E353A" stroke="#2E353A" stroke-linecap="round" stroke-linejoin="round"/>
<path d="M430.939 258.703L421.588 232.548L412.236 258.703" stroke="#2E353A" stroke-linecap="round" stroke-linejoin="round"/>
<path d="M472.249 514.249L431.881 578.064L421.789 570.68L451.493 511.272C452.828 508.602 454.881 506.356 457.421 504.787C459.962 503.219 462.889 502.389 465.875 502.391C467.245 502.417 468.584 502.806 469.754 503.52C470.924 504.234 471.883 505.247 472.532 506.455C473.181 507.662 473.497 509.02 473.448 510.39C473.398 511.76 472.984 513.092 472.249 514.249Z" fill="#0489C7" stroke="#2E353A" stroke-linecap="round" stroke-linejoin="round"/>
<path d="M425.338 562.371L466.867 591.907C466.867 591.907 463.166 607.583 439.181 606.658C415.196 605.733 416.104 580.823 416.104 580.823L425.338 562.371Z" fill="#2E353A" stroke="white" stroke-linecap="round" stroke-linejoin="round"/>
<path d="M540.69 542.995L465.471 509.102C462.99 507.986 460.202 507.753 457.57 508.441C454.939 509.13 452.622 510.699 451.006 512.887C450.061 514.165 449.383 515.619 449.01 517.163C448.637 518.708 448.577 520.311 448.834 521.879C449.091 523.447 449.66 524.948 450.507 526.292C451.354 527.637 452.461 528.798 453.764 529.707L536.064 587.315L540.69 542.995Z" fill="#0489C7" stroke="#2E353A" stroke-linecap="round" stroke-linejoin="round"/>
<path d="M551.758 584.523H629.281V596.516H551.758V584.523Z" fill="white" stroke="#2E353A" stroke-linecap="round" stroke-linejoin="round"/>
<path d="M589.603 550.379H656.967V578.064H589.603V550.379Z" fill="#2E353A" stroke="#2E353A" stroke-linecap="round" stroke-linejoin="round"/>
<path d="M598.366 518.993H541.178C539.84 518.993 538.556 519.524 537.61 520.471C536.664 521.417 536.132 522.7 536.132 524.039V578.031H603.429V524.039C603.429 523.375 603.298 522.717 603.043 522.104C602.788 521.49 602.415 520.933 601.945 520.465C601.474 519.996 600.916 519.624 600.302 519.372C599.688 519.119 599.03 518.99 598.366 518.993Z" fill="#0489C7" stroke="#2E353A" stroke-linecap="round" stroke-linejoin="round"/>
<path d="M657.656 617.272H547.367C543.883 617.272 540.542 615.888 538.078 613.424C535.615 610.961 534.231 607.619 534.231 604.135C534.231 600.65 535.614 597.307 538.077 594.841C540.541 592.374 543.882 590.987 547.367 590.982H657.656C661.142 590.987 664.483 592.374 666.946 594.841C669.409 597.307 670.792 600.65 670.792 604.135C670.792 607.619 669.408 610.961 666.945 613.424C664.481 615.888 661.14 617.272 657.656 617.272Z" fill="#2E353A" stroke="#2E353A" stroke-linecap="round" stroke-linejoin="round"/>
<path d="M641.038 617.272H530.766C527.281 617.272 523.938 615.888 521.471 613.425C519.005 610.962 517.617 607.621 517.613 604.135C517.613 600.647 518.999 597.301 521.466 594.835C523.932 592.368 527.278 590.982 530.766 590.982H641.038C644.527 590.982 647.872 592.368 650.339 594.835C652.806 597.301 654.191 600.647 654.191 604.135C654.187 607.621 652.799 610.962 650.333 613.425C647.867 615.888 644.524 617.272 641.038 617.272Z" fill="white" stroke="#2E353A" stroke-linecap="round" stroke-linejoin="round"/>
<path d="M536.081 578.064H656.967V587.299H536.081V578.064Z" fill="white" stroke="#2E353A" stroke-linecap="round" stroke-linejoin="round"/>
<path d="M632.039 604.135C632.039 605.779 632.526 607.385 633.439 608.752C634.352 610.118 635.65 611.183 637.168 611.812C638.687 612.441 640.357 612.606 641.969 612.285C643.581 611.964 645.062 611.173 646.224 610.011C647.386 608.849 648.177 607.368 648.498 605.757C648.818 604.145 648.654 602.474 648.025 600.956C647.396 599.437 646.331 598.14 644.964 597.227C643.598 596.314 641.992 595.826 640.348 595.826C638.144 595.826 636.031 596.702 634.473 598.26C632.914 599.818 632.039 601.932 632.039 604.135Z" fill="#2E353A" stroke="#2E353A" stroke-linecap="round" stroke-linejoin="round"/>
<path d="M618.196 612.445C613.607 612.445 609.887 608.724 609.887 604.135C609.887 599.547 613.607 595.826 618.196 595.826C622.785 595.826 626.505 599.547 626.505 604.135C626.505 608.724 622.785 612.445 618.196 612.445Z" fill="#2E353A" stroke="#2E353A" stroke-linecap="round" stroke-linejoin="round"/>
<path d="M596.061 612.445C591.472 612.445 587.752 608.724 587.752 604.135C587.752 599.547 591.472 595.826 596.061 595.826C600.65 595.826 604.37 599.547 604.37 604.135C604.37 608.724 600.65 612.445 596.061 612.445Z" fill="#2E353A" stroke="#2E353A" stroke-linecap="round" stroke-linejoin="round"/>
<path d="M565.6 604.135C565.6 605.779 566.087 607.385 567 608.752C567.913 610.118 569.211 611.183 570.729 611.812C572.248 612.441 573.918 612.606 575.53 612.285C577.142 611.964 578.623 611.173 579.785 610.011C580.947 608.849 581.738 607.368 582.059 605.757C582.379 604.145 582.215 602.474 581.586 600.956C580.957 599.437 579.892 598.14 578.525 597.227C577.159 596.314 575.553 595.826 573.909 595.826C571.705 595.826 569.592 596.702 568.034 598.26C566.476 599.818 565.6 601.932 565.6 604.135Z" fill="#2E353A" stroke="#2E353A" stroke-linecap="round" stroke-linejoin="round"/>
<path d="M543.448 604.135C543.448 605.779 543.936 607.385 544.849 608.752C545.762 610.118 547.059 611.183 548.578 611.812C550.096 612.441 551.767 612.606 553.378 612.285C554.99 611.964 556.471 611.173 557.633 610.011C558.795 608.849 559.586 607.368 559.907 605.757C560.227 604.145 560.063 602.474 559.434 600.956C558.805 599.437 557.74 598.14 556.374 597.227C555.007 596.314 553.401 595.826 551.757 595.826C549.554 595.826 547.44 596.702 545.882 598.26C544.324 599.818 543.448 601.932 543.448 604.135Z" fill="#2E353A" stroke="#2E353A" stroke-linecap="round" stroke-linejoin="round"/>
<path d="M521.313 604.136C521.313 605.78 521.801 607.387 522.714 608.754C523.628 610.12 524.927 611.185 526.446 611.814C527.965 612.442 529.637 612.606 531.249 612.284C532.862 611.962 534.342 611.169 535.503 610.005C536.665 608.841 537.455 607.359 537.774 605.746C538.092 604.133 537.925 602.462 537.294 600.944C536.662 599.426 535.595 598.13 534.226 597.219C532.857 596.308 531.249 595.823 529.605 595.826C528.515 595.826 527.435 596.041 526.428 596.459C525.421 596.877 524.506 597.489 523.736 598.261C522.966 599.033 522.355 599.949 521.939 600.957C521.524 601.965 521.311 603.045 521.313 604.136Z" fill="#2E353A" stroke="#2E353A" stroke-linecap="round" stroke-linejoin="round"/>
<path d="M456.708 518.993C456.708 518.077 456.98 517.182 457.489 516.421C457.998 515.66 458.721 515.067 459.567 514.718C460.413 514.368 461.344 514.277 462.242 514.457C463.14 514.637 463.964 515.079 464.61 515.728C465.256 516.377 465.696 517.202 465.872 518.101C466.049 518.999 465.955 519.93 465.602 520.774C465.249 521.619 464.654 522.341 463.891 522.847C463.128 523.353 462.232 523.621 461.317 523.618C460.71 523.618 460.109 523.498 459.549 523.266C458.989 523.033 458.48 522.692 458.052 522.262C457.624 521.833 457.285 521.323 457.054 520.761C456.823 520.2 456.706 519.599 456.708 518.993Z" fill="#2E353A" stroke="#2E353A" stroke-linecap="round" stroke-linejoin="round"/>
<path d="M546.224 526.376H595.137V555.912H546.224V526.376Z" fill="white" stroke="#2E353A" stroke-linecap="round" stroke-linejoin="round"/>
<path d="M546.224 526.376H572.985V555.912H546.224V526.376Z" fill="white" stroke="#2E353A" stroke-linecap="round" stroke-linejoin="round"/>
</svg>
