<svg width="147" height="110" viewBox="0 0 147 110" fill="none" xmlns="http://www.w3.org/2000/svg">
<path d="M7.43494 108.162C6.45094 108.162 5.52694 108.03 4.66294 107.766C3.81094 107.502 3.08494 107.124 2.48494 106.632L3.27694 104.94C3.90094 105.408 4.54894 105.756 5.22094 105.984C5.90494 106.2 6.64894 106.308 7.45294 106.308C8.34094 106.308 9.02494 106.152 9.50494 105.84C9.99694 105.528 10.2429 105.09 10.2429 104.526C10.2429 104.046 10.0149 103.68 9.55894 103.428C9.11494 103.164 8.37694 102.918 7.34494 102.69C5.73694 102.342 4.56694 101.892 3.83494 101.34C3.10294 100.788 2.73694 99.984 2.73694 98.928C2.73694 98.172 2.94094 97.5 3.34894 96.912C3.75694 96.324 4.33294 95.862 5.07694 95.526C5.83294 95.19 6.70294 95.022 7.68694 95.022C8.58694 95.022 9.43894 95.16 10.2429 95.436C11.0589 95.7 11.7249 96.072 12.2409 96.552L11.4669 98.244C10.3269 97.332 9.06694 96.876 7.68694 96.876C6.85894 96.876 6.20494 97.05 5.72494 97.398C5.24494 97.734 5.00494 98.196 5.00494 98.784C5.00494 99.288 5.21494 99.672 5.63494 99.936C6.06694 100.2 6.79894 100.446 7.83094 100.674C8.89894 100.926 9.76894 101.202 10.4409 101.502C11.1129 101.79 11.6289 102.168 11.9889 102.636C12.3489 103.092 12.5289 103.668 12.5289 104.364C12.5289 105.132 12.3249 105.804 11.9169 106.38C11.5089 106.944 10.9209 107.382 10.1529 107.694C9.38494 108.006 8.47894 108.162 7.43494 108.162ZM22.4749 103.572H16.2109C16.2589 104.544 16.4989 105.264 16.9309 105.732C17.3749 106.188 18.0289 106.416 18.8929 106.416C19.8889 106.416 20.8129 106.092 21.6649 105.444L22.3129 106.992C21.8809 107.34 21.3469 107.622 20.7109 107.838C20.0869 108.042 19.4509 108.144 18.8029 108.144C17.3149 108.144 16.1449 107.724 15.2929 106.884C14.4409 106.044 14.0149 104.892 14.0149 103.428C14.0149 102.504 14.2009 101.682 14.5729 100.962C14.9449 100.242 15.4669 99.684 16.1389 99.288C16.8109 98.88 17.5729 98.676 18.4249 98.676C19.6729 98.676 20.6569 99.084 21.3769 99.9C22.1089 100.704 22.4749 101.814 22.4749 103.23V103.572ZM18.4789 100.296C17.8789 100.296 17.3869 100.476 17.0029 100.836C16.6309 101.184 16.3909 101.694 16.2829 102.366H20.5129C20.4409 101.682 20.2309 101.166 19.8829 100.818C19.5469 100.47 19.0789 100.296 18.4789 100.296ZM33.0742 98.91V108H30.8603V106.542C30.5843 107.046 30.1883 107.442 29.6723 107.73C29.1563 108.006 28.5683 108.144 27.9082 108.144C27.1163 108.144 26.4143 107.952 25.8022 107.568C25.1903 107.184 24.7163 106.638 24.3803 105.93C24.0443 105.222 23.8763 104.4 23.8763 103.464C23.8763 102.528 24.0443 101.7 24.3803 100.98C24.7283 100.248 25.2083 99.684 25.8203 99.288C26.4323 98.88 27.1283 98.676 27.9082 98.676C28.5683 98.676 29.1563 98.82 29.6723 99.108C30.1883 99.384 30.5843 99.774 30.8603 100.278V98.91H33.0742ZM28.5203 106.38C29.2643 106.38 29.8403 106.122 30.2483 105.606C30.6563 105.09 30.8603 104.364 30.8603 103.428C30.8603 102.468 30.6563 101.73 30.2483 101.214C29.8403 100.698 29.2583 100.44 28.5023 100.44C27.7583 100.44 27.1763 100.71 26.7563 101.25C26.3483 101.778 26.1443 102.516 26.1443 103.464C26.1443 104.4 26.3483 105.12 26.7563 105.624C27.1763 106.128 27.7643 106.38 28.5203 106.38ZM40.4208 98.694C40.7688 98.694 41.0688 98.742 41.3208 98.838L41.3028 100.89C40.9188 100.734 40.5228 100.656 40.1148 100.656C39.3468 100.656 38.7588 100.878 38.3508 101.322C37.9548 101.766 37.7568 102.354 37.7568 103.086V108H35.5248V101.484C35.5248 100.524 35.4768 99.666 35.3808 98.91H37.4868L37.6668 100.512C37.8948 99.924 38.2548 99.474 38.7468 99.162C39.2388 98.85 39.7968 98.694 40.4208 98.694ZM46.5198 108.144C45.5718 108.144 44.7498 107.952 44.0538 107.568C43.3578 107.184 42.8238 106.644 42.4518 105.948C42.0798 105.24 41.8938 104.412 41.8938 103.464C41.8938 102.516 42.0858 101.682 42.4698 100.962C42.8658 100.242 43.4178 99.684 44.1258 99.288C44.8458 98.88 45.6738 98.676 46.6098 98.676C47.2578 98.676 47.8818 98.778 48.4818 98.982C49.0938 99.186 49.5798 99.468 49.9398 99.828L49.3098 101.412C48.9258 101.1 48.5178 100.866 48.0858 100.71C47.6538 100.542 47.2278 100.458 46.8078 100.458C45.9918 100.458 45.3558 100.716 44.8998 101.232C44.4438 101.736 44.2158 102.468 44.2158 103.428C44.2158 104.388 44.4378 105.12 44.8818 105.624C45.3378 106.128 45.9798 106.38 46.8078 106.38C47.2278 106.38 47.6538 106.296 48.0858 106.128C48.5178 105.96 48.9258 105.72 49.3098 105.408L49.9398 106.992C49.5558 107.352 49.0578 107.634 48.4458 107.838C47.8338 108.042 47.1918 108.144 46.5198 108.144ZM56.6526 98.676C58.8246 98.676 59.9106 99.924 59.9106 102.42V108H57.6606V102.528C57.6606 101.808 57.5226 101.286 57.2466 100.962C56.9706 100.626 56.5446 100.458 55.9686 100.458C55.2846 100.458 54.7326 100.68 54.3126 101.124C53.8926 101.556 53.6826 102.132 53.6826 102.852V108H51.4506V94.752H53.6826V100.224C53.9946 99.732 54.4086 99.354 54.9246 99.09C55.4406 98.814 56.0166 98.676 56.6526 98.676ZM67.3977 95.184H69.7197V108H67.3977V95.184ZM77.5354 98.676C79.7074 98.676 80.7934 99.924 80.7934 102.42V108H78.5434V102.528C78.5434 101.808 78.4054 101.286 78.1294 100.962C77.8534 100.626 77.4274 100.458 76.8514 100.458C76.1674 100.458 75.6154 100.68 75.1954 101.124C74.7754 101.556 74.5654 102.132 74.5654 102.852V108H72.3334V101.484C72.3334 100.524 72.2854 99.666 72.1894 98.91H74.2954L74.4574 100.404C74.7694 99.852 75.1894 99.426 75.7174 99.126C76.2574 98.826 76.8634 98.676 77.5354 98.676ZM91.7831 98.928L87.8051 108H85.8431L81.9191 98.928H84.2771L86.8871 105.444L89.5511 98.928H91.7831ZM100.75 103.572H94.4863C94.5343 104.544 94.7743 105.264 95.2063 105.732C95.6503 106.188 96.3043 106.416 97.1683 106.416C98.1643 106.416 99.0883 106.092 99.9403 105.444L100.588 106.992C100.156 107.34 99.6223 107.622 98.9863 107.838C98.3623 108.042 97.7263 108.144 97.0783 108.144C95.5903 108.144 94.4203 107.724 93.5683 106.884C92.7163 106.044 92.2903 104.892 92.2903 103.428C92.2903 102.504 92.4763 101.682 92.8483 100.962C93.2203 100.242 93.7423 99.684 94.4143 99.288C95.0863 98.88 95.8483 98.676 96.7003 98.676C97.9483 98.676 98.9323 99.084 99.6523 99.9C100.384 100.704 100.75 101.814 100.75 103.23V103.572ZM96.7543 100.296C96.1543 100.296 95.6623 100.476 95.2783 100.836C94.9063 101.184 94.6663 101.694 94.5583 102.366H98.7883C98.7163 101.682 98.5063 101.166 98.1583 100.818C97.8223 100.47 97.3543 100.296 96.7543 100.296ZM107.858 98.676C110.03 98.676 111.116 99.924 111.116 102.42V108H108.866V102.528C108.866 101.808 108.728 101.286 108.452 100.962C108.176 100.626 107.75 100.458 107.174 100.458C106.49 100.458 105.938 100.68 105.518 101.124C105.098 101.556 104.888 102.132 104.888 102.852V108H102.656V101.484C102.656 100.524 102.608 99.666 102.512 98.91H104.618L104.78 100.404C105.092 99.852 105.512 99.426 106.04 99.126C106.58 98.826 107.186 98.676 107.858 98.676ZM116.363 100.602V104.67C116.363 105.738 116.861 106.272 117.857 106.272C118.133 106.272 118.433 106.224 118.757 106.128V107.91C118.361 108.054 117.881 108.126 117.317 108.126C116.285 108.126 115.493 107.838 114.941 107.262C114.389 106.686 114.113 105.858 114.113 104.778V100.602H112.367V98.91H114.113V96.696L116.363 95.94V98.91H118.775V100.602H116.363ZM120.322 98.91H122.554V108H120.322V98.91ZM122.68 94.788V97.002H120.178V94.788H122.68ZM129.137 108.144C128.213 108.144 127.397 107.952 126.689 107.568C125.993 107.184 125.453 106.638 125.069 105.93C124.697 105.21 124.511 104.37 124.511 103.41C124.511 102.45 124.697 101.616 125.069 100.908C125.453 100.188 125.993 99.636 126.689 99.252C127.397 98.868 128.213 98.676 129.137 98.676C130.049 98.676 130.853 98.868 131.549 99.252C132.245 99.636 132.779 100.188 133.151 100.908C133.535 101.616 133.727 102.45 133.727 103.41C133.727 104.37 133.535 105.21 133.151 105.93C132.779 106.638 132.245 107.184 131.549 107.568C130.853 107.952 130.049 108.144 129.137 108.144ZM129.119 106.38C129.887 106.38 130.469 106.134 130.865 105.642C131.273 105.138 131.477 104.394 131.477 103.41C131.477 102.438 131.273 101.7 130.865 101.196C130.457 100.68 129.881 100.422 129.137 100.422C128.381 100.422 127.799 100.68 127.391 101.196C126.983 101.7 126.779 102.438 126.779 103.41C126.779 104.394 126.977 105.138 127.373 105.642C127.781 106.134 128.363 106.38 129.119 106.38ZM140.869 98.676C143.041 98.676 144.127 99.924 144.127 102.42V108H141.877V102.528C141.877 101.808 141.739 101.286 141.463 100.962C141.187 100.626 140.761 100.458 140.185 100.458C139.501 100.458 138.949 100.68 138.529 101.124C138.109 101.556 137.899 102.132 137.899 102.852V108H135.667V101.484C135.667 100.524 135.619 99.666 135.523 98.91H137.629L137.791 100.404C138.103 99.852 138.523 99.426 139.051 99.126C139.591 98.826 140.197 98.676 140.869 98.676Z" fill="#5E5E5F"/>
<g filter="url(#filter0_d)">
<circle cx="74.1744" cy="42.7076" r="42.2462" fill="#0489C7"/>
</g>
<path d="M92.3757 58.3789L85.2003 51.2246C87.5154 48.2751 88.7716 44.633 88.7669 40.8835C88.7669 37.5442 87.7767 34.28 85.9215 31.5035C84.0663 28.727 81.4295 26.5631 78.3445 25.2852C75.2594 24.0073 71.8647 23.673 68.5897 24.3244C65.3146 24.9759 62.3062 26.5839 59.9451 28.9451C57.5839 31.3062 55.9759 34.3146 55.3244 37.5897C54.673 40.8647 55.0073 44.2594 56.2852 47.3445C57.5631 50.4295 59.727 53.0663 62.5035 54.9215C65.28 56.7767 68.5442 57.7669 71.8835 57.7669C75.633 57.7716 79.2751 56.5154 82.2246 54.2003L89.3789 61.3757C89.5751 61.5735 89.8085 61.7305 90.0657 61.8377C90.3229 61.9448 90.5987 62 90.8773 62C91.1559 62 91.4318 61.9448 91.689 61.8377C91.9461 61.7305 92.1795 61.5735 92.3757 61.3757C92.5735 61.1795 92.7305 60.9461 92.8377 60.689C92.9448 60.4318 93 60.1559 93 59.8773C93 59.5987 92.9448 59.3229 92.8377 59.0657C92.7305 58.8085 92.5735 58.5751 92.3757 58.3789V58.3789ZM59.2209 40.8835C59.2209 38.379 59.9635 35.9309 61.3549 33.8485C62.7463 31.7661 64.7239 30.1432 67.0377 29.1848C69.3515 28.2263 71.8975 27.9756 74.3538 28.4642C76.8101 28.9528 79.0664 30.1588 80.8373 31.9297C82.6081 33.7005 83.8141 35.9568 84.3027 38.4131C84.7913 40.8694 84.5406 43.4154 83.5822 45.7292C82.6238 48.043 81.0008 50.0206 78.9184 51.412C76.8361 52.8034 74.3879 53.546 71.8835 53.546C68.5251 53.546 65.3043 52.2119 62.9297 49.8373C60.555 47.4626 59.2209 44.2418 59.2209 40.8835Z" fill="white"/>
<defs>
<filter id="filter0_d" x="21.9282" y="0.461426" width="104.492" height="104.492" filterUnits="userSpaceOnUse" color-interpolation-filters="sRGB">
<feFlood flood-opacity="0" result="BackgroundImageFix"/>
<feColorMatrix in="SourceAlpha" type="matrix" values="0 0 0 0 0 0 0 0 0 0 0 0 0 0 0 0 0 0 127 0"/>
<feOffset dy="10"/>
<feGaussianBlur stdDeviation="5"/>
<feColorMatrix type="matrix" values="0 0 0 0 0.0752431 0 0 0 0 0.583774 0 0 0 0 0.820833 0 0 0 0.08 0"/>
<feBlend mode="normal" in2="BackgroundImageFix" result="effect1_dropShadow"/>
<feBlend mode="normal" in="SourceGraphic" in2="effect1_dropShadow" result="shape"/>
</filter>
</defs>
</svg>
